<mxfile host="Electron" modified="2023-10-29T12:56:14.601Z" agent="Mozilla/5.0 (Windows NT 10.0; Win64; x64) AppleWebKit/537.36 (KHTML, like Gecko) draw.io/21.7.5 Chrome/114.0.5735.289 Electron/25.8.1 Safari/537.36" etag="RVAxGBk73inyx3O0XkOT" version="21.7.5" type="device">
  <diagram name="Page-1" id="YCcrPv00PcNQy8F1WYxl">
    <mxGraphModel dx="780" dy="504" grid="1" gridSize="10" guides="1" tooltips="1" connect="1" arrows="1" fold="1" page="1" pageScale="1" pageWidth="1654" pageHeight="1169" math="0" shadow="0">
      <root>
        <mxCell id="0" />
        <mxCell id="1" parent="0" />
        <mxCell id="bFUkQ9FSZ-hTwYrbiSbe-1" value="" style="shape=image;verticalLabelPosition=bottom;labelBackgroundColor=default;verticalAlign=top;aspect=fixed;imageAspect=0;image=data:image/png,iVBORw0KGgoAAAANSUhEUgAAB4AAAAQ4CAYAAADo08FDAAAABHNCSVQICAgIfAhkiAAAIABJREFUeF7s3XmUbGdd7/+nejynu09ci0Qy4FqSBAjeJUm4wvWSAZkCAREwDCpTwCuiAt57HXD4eS+K1wHEkUnAK4NMMkYcCElAlCRcBCWDa0GAJLiWmSDxj5zuc3ru3/PsXbtqV3VVd1Wf2rv6JK/NYnXq1EnOcz77ed7fz97f5/t9Gktvf9pWaDRC32trK/iePuZHHwWsD3zAT/GjnwL4gA/4gA/40FsBfMRHfMRHfMTHXgqID+KD+CA+iA/ig/iwXQHxUXwUH8XHPcbHxtI7fjBmeF0UoAAFKEABClCAAhSgAAUoQAEKUIACFKAABShAAQpQgAIUoAAFKHC8KxATwLECOMQK1207SVJeOFW+Nn/6vmunCX3MD+sDH/BR/BA/+YfuTin8AX/AH/AH/AF/wB/wB/xBZyc5/og/4o/4I/6IP+KP+CP+iD8qd9rlD+vwhyqAj/cUvvFTgAIUoAAFKEABClCAAhSgAAUoQAEKUIACFKAABShAAQpQgAIUaCrQWIxnADeyHuJ5xn0rVvr6TA/zwXrAAzwUD8RDfoAf4Af4AX6AH+AH+AF+gB/gB/gBfoAf4Af4AX6AH+AH+AF+4PjzA80K4KLcukiM+5yXX9MjV8B8MB+sBzzAQzwUD8RDfoAf4Af4AX6AH+AH+AF+gB/gB/gBfoAf4Af4AX6AH+AHjgc/0FiKFcBZ7/HijF8/87N+6UAH88A6wAEcwAEcwAEcwAEcwAEcwAEcwAEcwAEcwAEcwAEcwAEcwAEcOM440FUB3HXwcqvy0693HMhMl6xdeHunk/lBD/PBesABHMABHMABHMABHMABHMABHMABHMABHMABHMABHMABHMCB/cCB9hnAzcx160wHn7MdLfRonnFhPpgP1gMeFGfE4wEe4AEe4EG0ie2OMfwiv2g+WA9FByk8wAM8wAM8iC/9PS94XvC84HnB81KrUpI/5A/5Q/5wXP4wVgDHFtDZhowiI18UdvqcZ+jpYX5YH/iAh3goHoiH/AA/wA/wA/wAP8AP8AP8AD/AD/AD/AA/wA/wA/wAP8AP8APHhx9onQFsJ4qdKHai2Ikyrp0o+IM/+IM/+KNSQqWIzjP8AD/AD/AD/AA/wA/wA/wAP8AP8AP8AD/AD/AD/MBo/ECpAtiRro72dbSvo41xAAdwAAdwAAdwAAdwAAdwAAdwAAdwAAdwAAdwAAdwAAdwAAdw4HjmQPMM4Hbbgjyz7nPRxoAe5oP1gAd4kLc1wUM8xEM8xEM8FA/EQ36AH+AH+AF+gB/gB/gBfoAf4Af4AX6AH+AH9r8fyFtAp6vUstpnepgPzSCeLQbzwXwwH4oj0a0HPMADPMCDwhzgAR7gAR7gQUsB7xNaR2Lyy+Kj+Cg+io/io/jofSo/wA/wA/zAfvADrQrgWPibVf76SQfzwDrAARzAARzAARzAARzAARzAARzAARzAARzAARzAARzAARzAARzAgeOTA+0zgFU6qvRU6aoS3s59O/fznhB4iId4iId4iIfigXjID/AD/AA/wA/wA/wAP8AP8AP8AD/AD/AD/MBx6gdiBfBTtxrZ2Y5FBjudYZBKgfMy/fxMB9/Tx/zIdzpZH/iAj+KD+Mgf8Ef8IX/s+cDzkecjz0eejzwfej72fsD7Ae8HvB/wfsD7Ae8HvB/wfsD7gf37fqB9BnCp6Ktnj3rfdyrQvfOHPvQpK2B+dO4Msz6sD+uj/04568P6sD6sj347SfEBH/ABH/Chd+UZPuIjPuIjPuJjUsD7N+/fypWZ/AF/wB/wB/xBhz8oVQAXOxX8zHcs0IEO5oF1gAM4gAM4gAM4gAM4gAM4gAM4gAM4gAM4gAM4gAM4gAM4gAM4cHxxoH8FcPeOGZ8pQAEKUIACFKAABShAAQpQgAIUoAAFKEABClCAAhSgAAUoQAEKUGBfK5BXAMd+GVvxf60dHD7Tw3ywHopKeDzAAzzAAzzIO4PgIR7iIR7iIR6KB+IhP8AP8AP8AD/AD/AD/AA/cJ/yA5Mnnhm2ZubC5KGTw8bhu8LWHf869r9fWPjOMPXgx4TJ+P+i2/3mHTeGtZuuDGHx22Md3+SpZ4eJU783TBw6JWytLIatxbvCRhzb1n/cKj7ss/jQrABOzfLTNCoun+lhPlgPeJArgId4iId4iId4KB6Ih/wAP8AP8AP8AD/AD/AD/AA/wA/wA/zAXv3A1MMuCpPf/V9DY3Y++09sHv5WWP/aVSElNccVX9J4Zh7zk6ERE7/d1/qNl4XVf3l/CKtLtY9v5jEvC1Pf+6y+laXrX7syrH7+Hc2x1edPJk48I+r1spj8Pbvn2Da++fmw8g9/GMe1WHu+cSIm8ace+sQwcdIZrbFt3n1LWP/6p8PmPTfXPp5yvEzJ8qnvfkyfsd1S6fzqrAAudq74me+goAMdzAPrAAdwAAdwAAdwAAdwAAdwAAdwAAdwAAdwAAdwAAdwoMSBVKE5EROHjYUHxsrHb4aNmGQadz4hVWZOf+8zs6rR4kpJubV//atYoXnDWMbXOPH0MPsDPxdS8rDXVSQNt2LSsE79Zn7gf4aphz2pb5I1S6vGauDlK38zbN0TK1trWv8HLnljX63Kg01JzeW/+ZVQl26TD3tidh93veJ9TOOqbT3Eyu2DT/5ffZPSabxpji3/wx+ExuqR2u5jmi8TCyeHmcf9z5DWZb+rSOZXdR+7KoCLnWx+5hl6OtDBPLAOcAAHcAAHcAAHcAAHcAAHcAAHcAAHcAAHcAAHcGAcHGjEJMpETCJuxUrMzXtitVxM4oxjHK35P7MQZv7z88PUIzorNFOycCUmCzdjsnAc40sVtimp2e9a/fzbw/q/XtashKyHZ42YJD/47DeFEDXb6cqSmR/72dp0m/6+54fp//yCXXOZ6TekObf8N79Uy7zbrfK3e8BZ8vzK/1O5bmn9HXj67+56H4vxFcnpdiVwNfNtmHGl9Xn0Y6+s5T6m9Z8qkg88/XcG0qxKvRqLb4tnAKezK/rtYEg9q31PH/Oj9w4k6wMf8BEf8REfe1UCiA/ig/ggPogP4oP4sJ0D4qP4KD6Kj+Kj+Cg+io/dHNjBH8w+5uWxFe4z23mvWF24EhOZG1/7dFvHmv3F7JN/LbYyblfYdiTl4viOfDQmmYozWtN8r2F8k6ednSfodrmW/+aXt1cCVzi+g09/XazMfMRuw8q+X/uX94W1f35/5esjVW7P/di7BhpT8ZvWYivo1X9+b6X83su40viW//qXwuadzTOLK+LrwR8a/D62NWvez6rmV6r8TfOrT2V5rxuckvkpCdxRaV7F+OKGh4OxkrtXa/F+E6/YBLEtT3uM44sVwE+N/4m0f6XYwVTsT/E5V4Ie5of1gQ94iIfigXjID/AD/AA/wA/wA/wAP8AP8AP8AD/AD/AD900/0IhJlKJNb7nt7Tjv98z3vTBWaT6/Z74kVWRu3vGvzTf39cXndGbsbGw3u9O1GVstH42J1jp5eWDARGtWBfnBlzb7nlbLs8lUARmTYANfKXn+7udVno9JZ+umc3+HuXLdfrzS+bZts8OAA0znKK+k9sZV5fdm5sPcpR8ecDTt35ZVTqeK24ryazvxYafBrkat1qJmlekV//Dp73vBwBXm5bGmsaX7OUq/3T4D+BgzyXXsZFGJrFJbpXqfs6mtXzvp7aS3k95O+kp3Yoo/4k/Ps4jEX/FX/BV/xV/xt6JKC+8/vP/gP/lP/rMHB/jvyvz3wUve1FFJlxJeR2KisPJKuXIc7bq/cy/72755nI1/+39h+YrX1j6+2cf93K7nxqZBH3nHD1ZeydqKE7EScn6IBN3Su5/b+yzUEa+vYdosFze6Z4Vy4bdHNL5UKT1oVXJ5Ah6Nld1b/7HDWcDHOL69jqtITleVn5s49Xtjdfnrhk4Ab1sHx6hP999v7tIPxfbK80OPq6pK2/L4svW4p7H1qFA+xvmfVQAXKhWduPup5vu80z99eitgfpgf1gc+4CM+9lJAfBAfxAfxQXwQH8SH7QqIj+Kj+Cg+io/io/goPnYrMBZ/0KfCL6+yvbFjiHWNr7HwwHBwhza9W4vfCkc/8JJtE6jq8Q1aadtLuzTYKsaXkpnDJOj6jW3U49tLFeROYxvV+IZpS12eYGlsG3E9VOXf0nxP834v15F3PC3716qYX3u5j8Xfoft+jmp8qe3zgbhpZa9XYkdiSBX8nRxyPXaPobiXo/IHzTOA220S8ky1z0WZNT3MB+sBD/Agb3OGh3iIh3iIh3goHoiH/AA/wA/wA/wAP8AP8AP8wH3PD8y/ZHvFWqtSdEz5grmX/V3f/E5KTB+NCbm6eXTgyf87nv/7X3fNOx2JVbZbq0u1jK/xgNPDwWcPngw78v6YOF/6VqvNbFXreS+Jw6wC+PYbKs1P7bXStmg7XpVeg24u2Db54jzL5lv8oor1MBHn+4Fd2p73WxCppffWyuLI7+fkacNteugeXzuZP/p4PnFKrJiOZybv9crPdL5xZPezdAZwe0jdmXifO3cm04Me5Z0+5oP5YD6IH4UCeIAHeIAHeJArgId4iId4iId4KB6Ih/wAP8APHD9+YPJhT8rOAC6udKboRjyLcpzxPCWdJr/7MT3zKKuff3tY/9fLah/fIOfHpsrCI7HCsM75P3D1aEeysNr5ORXv3W7nJW+rfoyJzBDHWGX8SOf/pvs47FWuzKxifGn9TcV1OOy18W+fj+3Qf7Oy+bbnatvmXKvCDw5b9d4rAVzubjDK+zmKsXVXmh/L+NoVwPG/ku3k9ZMO5oF1gAM4gAM4gAM4gAM4gAM4gAM4gAM4gAM4gAM4gAP3Gw6E+QeGiRNODpv33pVXiI57/U/Ph4Oxki4loMrXekxMr8YE9bjGl1rPdo+pPL5WBV+N+s086gVh+j+/YNfcYUqcr914WW1cm3v+4G2N67qvE6fE6tEhKzTT2FY++weV6jb50LgJI54xPeyVxrXx9asqXQ/D3Mdi/FXez8mTjr0F9Obhb1VyPxsPOGOoivzu+7309qeNdFw7ngF8LJnlKjL7xmPnYJ07p8w38818q3YnIH3pO86dxOaf+Wf+qUzzvKIyjd/n9/kBfoAf4Af4AX6AH9j/fmA6VmtmCdfVxbB++41hM1Y8jpPfk3Ess7EVdK/zWsdVmZz0mNmlgrTdNru++D8Rq4AHah8cq0WPfvQVYTNWT9fhz1Jlcr/q8m0J2ObYUmV31bzYbXNB99i6z8KuanxJq6GquWu4nwNXvXeJtnnPLWH5Y6/MfrUqveYu3d5Sf5DEflqjqT31SPm2+LaLtxqx9Le9YyadYeAzPYqKcPPBesADPMCDvEMGHuIhHuIhHuKheCAe8gP8AD/AD/AD/AA/wA/wA/xAI6SKzanTHxMaMwth444bwtpXr2xWTo9vfmSVwKm98cx8R74ptcte+dL7QmMttleu+f3WrpWtMVmYncl69y3Nysca9JtdCNmZu13V5b2SdNsrbKsb38ShB8bq0Tdvu389k4ct3W6uJZ+32waD8hhThf7aTVdVej9TxXs6Z3rYq477OfOoFw5Ukd899ly3K0d6P/MzgJvtCFqZZZ+zyUmP5k5Q88F8sB7woKmAeJG/7BEfxIdsp6D4aD3gAR6Kj/nOaTzEQzzEQzzEQ/FAPOQH+AF+YH/4gZj8nYhtaCcfdHbYuP2GkCoet1aWxjo/U3vxlBSbenA807mZnE7Vq+tfuzJrST2W8c3Oh5nHvLzvubtpfCuf/f2QqjLrfN5JSemUbN0pOZ2N7YrXZve2zuexlHDdsdV4TEqnBOv6Nz9fy3wbtmK6qLCt/H72aV+/U7I6neW8Es9yHvX9jGcAFxXAxc4FP/MdTHSgg3lgHeAADuAADuAADuAADuAADuAADuAADuAADuAADuAADuDASDgwPRcrkY/sm/xLSk5PnX5elnCdOHRyK2m+/s1rm5WY47nvqXJ6+qyLwsSpj2jlDVPCNyXN0/m6WyuLYxlflsw/O7VlPzMfW0z6ZuOKetU+riEqubPWz7HSvC7dkk4Hn/H6nq3iuxPBaWxH//rVlayLjgrgAuJF8+vtB6nnk9338RZl7UCLtj+d7X/oQx/zw/rAB3zM26KJD+X2cOKj+Cg+io/io/goPvIH/BF/yB+22wfzx/wxf8wf88f8MX/MH/PHx+CPd6nkTsnWVGW+9i/vayV/a/NfsRJ49rz+VeZpbFl79mvf3tEue6TjUwE8nh0cdkzRfSQ7plSqj2Wnk/Vr/Vq/dj7jAA7gAA7gAA7gAA7gAA7gAA7gAA7gAA7gAA7gwPg5UFRyT8aq5EasDE6Vvhuxfff6rdd2nc1d/3xNleWTsf351IPPy1s8r8axxfbsG7FV9ubhuyrNbzSW3hbPAI4p5VZlbxpA63MsXYpb0XxPH/OjWflufeADPjbjhfggPvIH/BF/xB/xR9nOXP6QP+QP+cOidMf7E++PvF/zfrHonMgf8Af8AX/AH+SlvfwRf8Qfjc0fOQNYBWWlOwzsgKp/R4kdR+PfcWTem/fWoXWIAziAAziAAziAAziAAziAAziAAziAAziAAziAAzgwLg40zwCOi7C0EyMbTLZTLfXebt4c37d2atDH/LA+8AEfxQfxkT/I/UC7Epo/4A/4A/6AP+AP+AP+gD/gj/hD/rjoFOT5wPOB5wPPB54PPB94PvB8MNbnA2cA24FiB4odKOPageLPxR/8wR8cwAEcwAEcwAEcwAEcwAEcwAEcwAEcwAEcwAEcwAEcGC0H4hnAFzc7sTd35Gyr/O36dd93VUbTJ+/kb/506NCqnDc/zA/rAx/wER9LHBAf4hFApUoA/iH3lfw1f93ReYl/5B/5R/6RfxQf+QP+qLtykj/gD/gD/oA/4A/4A/5gSH+gAni0GXU7FOhpp5KdSjiAAziAAziAAziAAziAAziAAziAAziAAziAAziAAziAAziAA+PiQP8K4O6KDJ87KzToQY9elc/mhXlhXmzvCGBdWBfWhXWBAziAAziAAziAAziAAziAAziAAziAAziAAziAA/VxIKsA7td2rrtNoc+dbQvpQY9yG0vzwXwwH/q3MbU+rA/rw/rgN3u3OcZHfMRHfMRHfOzVBl58EB/EB/FBfBAfxIfQqpy0HqwH68F64I+H9seNlACOa6dlqtI/+0yPYlOA+WA94AEe4EF+tgIe4iEe4iEe4qF4IB7yA/wAP8AP8AP8AD/AD/AD/AA/wA/wA/zA8eAHsgTwtgPUix01firHL20OME+aB2xbF9aFdVFfmwrrzXqz3qw3HMABHMABHMABHMABHMABHMABHMABHMABHMABHBiKA84ABg3QAI2hoJF2ttgMYDOAeWAd4AAO4AAO4AAO4AAO4AAO4AAO4AAO4AAO4AAO4AAO4MA+5cDinz5lK+ul30rqbMXkTulzOnPE9/QxP5pJT+sDH/CxFS/EB/GRP+AP+AP+INtMyR/xR/wRf9R86cUf8of8IX/IH/KH/CF/7PlAfkV+qe0H+GP+eIz+2BnAzUMb9GzXs/146NnujBFnjDhjxBkj4pV4JV4V0RAP8AAP8AAPPB94PvB8wA/wA/wAP8AP8AP8AD/AD/AD/EAvPxATwLECOO3IaO1EKHbwd/30fXOnAn3yCgfzo0MH68P6yHby4AM+4KP4ID6KjyUO8Af8AX/AH/GHzQoY8VF8FB9bPpk/4A/4A/6AP+APvF+XX5Bf6eQAf1SJP2qeAdxuAF20L8v3zbQf0oo9FL7P25vRx/ywPvCheImDj/keM/FBfBAf+QP+iD/ij/gj/ihPcvGH/CF/7PnA85HnI89Hno88H3k+8nzk+cjzkeejsT4fts8Abi7G7ky7z52Zd3rQo7xT03wwH8yH9o4968F6sB6sh2IzCB7gAR7gAR7km+PwEA/xEA/xEA/FA/GQH+AH+AF+gB/gB8bgB5pnAPfbidG9c9nnzp3c9KBHeWe7+WA+mA/9dzZaH9aH9WF98Ju9d/7iIz7iIz7iIz72qowQH8QH8UF8EB/EB/Fhe+Wc+Cg+io/io/g4aHxstCqAi51IfuY7kuhAB/PAOsABHMABHMABHMABHMABHMABHMABHMABHMABHMABHMABHMABHDjOONCqAG4da7vtH/IdFb7vpwB9zA/rAx/wobcC+IiP+IiP+IiPvRQQH8QH8UF8EB/EB/FhuwLio/goPoqP4qP4KD6Kj90K8Af8wd79gQrg4yxjrzI5lvfbaWOnjXVrHeAADuAADuAADuAADuAADuAADuAADuAADuAADuAADuAADuBATw7ECuCnZK304xpp1/n6TA/zwXooNhvhAR7gAR7gQa4AHuIhHuIhHuKheCAe8gP8AD/AD/AD/AA/wA/wA/wAPxDCwslha3UxhJUl82GfzoeuCuDI7gxe/c7A9T19zA/rAx96V+LjIz7iIz7iIz726lQiPogP4oP4ID6ID+LDdg6Ij+Kj+Cg+io/io/goPnZzYDz+YPKkM0PjAaeHiRNODuu33RC2/uPWsLWy2CNPVt/4Jk59RJh62EWhcejkMHna2WHznpvD5t03h43bbwgbX/90n4rf6sc3Gcc0/YhnhYkTz+zoVb3xzWvD2o2XZeMbV3ybOv0xYfK7HxMmDp2Sb1aLyek0nvWvXdW8n9Xrs83fTc+F6bMuyu5h0izdz810D+P9XL/xr8Lm4TtLeo1+fK0K4FC0EvczL4WmAx3MA+sAB3AAB3AAB3AAB3AAB3AAB3AAB3AAB3AAB3AAB3AAB46JA1MxCTb14MeEMLOQN1mLia+UmNu444Zj+u8eSx5n5vtemCUzizGVM5rrN10RVv/5fWFr8a5ax5cShLOP+/ksYdjvSsnglc/+fkwI31Lbupw46YxsXN2J3+4xpkTw8t//fghrS7XpNvGAM8KBp7wmS672vGIiePXGj4e1L72vNr3SvEwJ/NnzXt5zfhXjXIvjWv3SeyvTq1kBXGSW/cwz9HSgg3lgHeAADuAADuAADuAADuAADuAADuAADuAADuAADuAADvTmQErSpUrusPitWMl319jzCmk8KaE5+eDzWnmwVAG59s/vbVZm1s+zxi7JuTS+lSt+I1ZoNtsI15GfmZ0Ps09+zY5J1kzAmDg8+olXx4rgW5qdc6vVbzImWQ/80Ot3TBi2bmwc2/JfvzpsxCRw1etzqHHFAaYEddKtEZPAVcePVJG8W5K10Cwl9Vc++weV65XuRzaumDAf5KpSrywBnA2i2MFSjMjnfIcCPXIFzAfzwXrAAzzEQ/FAPOQH+AF+gB/gB/gBfoAf4Af4AX6AH+AH+IGa/UCWaI0Jr6zicR/Mv5lHba8cTYnM1Wv/NCa/mmOsOV7OnPdTeTVrn6tIftWpX6rMPPiM3ROaWQIsJjPTWbJ1jC9Vi06mauRBrmYSeDMmgSvNF8Wk9MGY/N2twrZjyHFsS++7NCaqo24VzreDz3lLHNcZg6jV+j11zLdB51d54KlNdVqnVeqVeJUl8oe4WuMaMd9KFcBFz/1iR5PPea9yeuQ7SMwH88F6wAM8xEPxQDzkB/gBfoAf4Af4AX6AH+AH+AF+gB/gB/iBevzAzKNeFKZjm97WlaoeY3vZzX/7/NjeV2eVo/2Sh3F8Rz7yilgRfFet45s++1lh5jE/tWu6KVUCp3azdc3fuRe8JzQW+rTl7Rptah28csVrK8/HTMQzYlMCeJgrndl69K9/sXlWazX8S/O8Y64POMD1r10ZVmM76Kr86V7HlYafVShnZwJXw4uDz/i9MHFq/1bZ/SQ8+v5LS2fvjv5+pk0PexlXFXq1zwAecWa5jp0a2Z9R4c4G/336ml9xDtjZW8vOM7zBG7zBG7wtWXP+TvzlP/gPz6e5AniIh3iIh3iIh+KBeFiDH0iVdLOPz8/3TNWYq9e+LUvcjNOPZFW25eRv6ZGxSJTUPb6U+N0teZh0S+OrLT8SK0fnn//uwdoGx0EdicmvrdiuuurxpWrkVJU8zHX0Iz8Tqq603Us1a/o7ZGNL1d0Vrcf5l3403sP5YeRq/d6ldz47rwKuIF7MveDdAyfxuwefktPprOIq3nel837n0rzfw9VRbTvi+5nOSj747LfsYVQhnok9er1iBfCT09bNrHl5voNx+05O39PH/LA+8AEfxQfxsbvSgT/gD/gD/oA/4A/4A/6AP+ishOSP+CP+iD/ij/ijHf3R7EKY+t5nhYn4c+2mK5tni7YPPR3L/JmeC/OxUjPMLHQkLVKisKhkrT2+RX3mXhITYn2ulMBM4ysqC+sa36AVh8sf/ZnS2azV3t9hK1pT+9v1f72so9K2Cv1SC9xhqyDzCuW/2FZpO8rxzf3k5XtKzqWxpf9X8fwzcdKZe04apr9MviHi+pHn9yZikvXgHpOsaVz5On1x6xD1UfItcXTYDQbFjc9ajsdK/Sr4cSwV04Veo3y+ap4BnLaUplR3cRVQKn32PX3Mj6YC1kdOR3zIFcBP8UP85B/4pxYPxQfxkT9o+0XPT56fPD95fiqeF8RH8VF8FB+9P/D+pPn+qHz2aJGEGPf7pamzLgqzj/v5bUmxol3wOMY3SKXt0tsvrj2+zL98sOThymffEKv5rqplfDtVSm+7qfEXiiRr1e93h2n/XIwzq4CMLb4z4SrwT3s5m7UYW+cZraMd3+Rpj4hnxv5er9s10K91rtXm++oR6DcZ2ysPe5Zt94CX3hbXaQXvz7e1hx9IqfZvqoofw67HvnqN4P5lyyhVAHdm3rt36vlMn/LOPfPBfDAf2ju9rAfrwXqwHnAAB3AAB3AAB3AAB3AAB3AAB3AABwbjwOzjfyFMPeyi1jv/IzGJOe71M/mwJ8UE8C/0TAB3VjzWN88nTztn18TT0tue0lXxWP345l/+qYHSTOlM1rWbrqhlfMNWHG6vZK1Gt1Q5Ouj5v50J4DdUptsg86rfDV678eNh7fNvq2S9Hsu40nhXP/+nYe2Gj49rdoT4AAAgAElEQVRct2MdVxpbVet02Hm/PdFaDT/227i6KoCLSjY/283ciybgfrZ3apgf5of1YD3gAA7gAA7gAA7gAA7gAA7gAA7gAA7gAA7gwFAcmJkLM2dfElIl4tbKUlj+1K/HvMSY11Fs/Zy3gC6dPxrPEz0SzzzdOnznWMbXOPTAeL5nHFOfK53Fms5krXv9HXzGYG2Nj37kp+N5sbfWMr7JB5+367nEZRnTmazrMTld9bw78JRfD6mSe5grtadOlbaV3de4/uZf+rFhhtT6vfnYPl6JbhMnnh4OPuetexpX+peW//oXYwvoG0eu227rcLcBby3GFtDvi63kWxXAo4sX04/44T23gN6v46qCa/kZwM0gU+zU8jkPuvTId66ZD+aD9YAHeIiH4oF4yA/wA/wAP8AP8AP8AD/AD/AD/AA/wA/cN/3AxIlnhtS6NCUTUxIiJbvKZ4qOg/87tVLtPvO0rvFNnX5emH3ya3bMe23ecUM4+olX15dfyM5w/ovOBH6/EcbE/tL7XhRLRo9UPr6ps3pXlu8kXn528s2V5iP2cjZxGnNK6m/9x62V5UvmXxrPvC5vwtgtu1r6vmizXAWfDzz7LWHixDOGGE37t67HZP7KtSmxPXr/dCzJ6byd91sryf+FhZ03r+wkZBV6NRPA6Y8tdhoVQ/C51KSfPuZHc6eK9ZErgA/40DrEynywHvCxfSi69WA9WA/WQ+l5jl/il/il9oKwHqwH68F68D7F+xTvk7xPG94PdCeBU+Xeyt+/ISanbxjb83d3G++OhE5WOR0ThYfvqnV8+TnO29t4dyebWuf/1vR+d+4Fg7eBzs//fUPlz1P5OcDDnbdbTupXFc/3eqZtqkpOGzaq4sugc6tXYjOvhL+l+dXw6383/zxoRX732I68/8VxjX6rsvc3OzKil1Dp11qbM5ZGqld+BnB8WbeVKl67frYy876nj/lhfeBDBwfwsblzS3wQH8QH8UF8EB9KHBAfxcesMow/4A/4A/6AP+AP+IMWB/gj/og/OnZ/mM4i3UztqGPSppzHGNf6ypJ1sQVtuWIzJQlXr4mV0/fcPJb1Px0ruNP5o/2u7Azba+MZtjXyOVWWH3xGTLbuUtmatb79xC+ERqxMrmN8QyXoYmJu+ROxxXLpvhbPOyOdf7E99cFnvGG4attm0rBbt1GPL7WnHrYKOE9Mvy1Lslb1fDjo/CqvifI6GOn9K/89Y1v9ue62+n1XZv7Fymfjxpabrhr5/C9VAO8yAl9TgAIUoAAFKEABClCAAhSgAAUoQAEKUIACFKAABShAAQpkZzmnK2tbHJNx477SeFJiOiXMi6Trxjevzc6uzaum679S4vDAxb8eGgsn9/zDs+ray3+9Xv1iQnr2/J8OUw+7aGdB4j1Niel2FWu1+iWtUhJ4t4R5NooaxzbUuOLQioR+HWsiOwP78bH6fYD22durzKu7n8No1q7iHv14GotvjWcAp41Y8eq5MyCdAet7+pgf1kdzB3fHzhh8wEfxQXwQH8QH8SHboSk+lio7+AP+gD/gD/gD/oA/4A/4I/6wOPMx8YA/5A/5w/u9P0yJunSG8sShPBGckuYbN12ZJ8/HND+mz3pyVjXdaI6pnH5LycK1L703bN4bK8/rHF+qBI4J84lT880Fva6UNF+55q1h657mmcQ1jC9pdOApcVy7nAecJVljJXxYXcz9cA38nzjpjCyh31ezmCzPKn/j/azz/c3EoVPCzHkvz85W73VlLe2vjl0D/u3ayvigAnj0SXX/RQpQgAIUoAAFKEABClCAAhSgAAUoQAEKUIACFKAABShAgX2uQEpqNmKyLiWnN2Or5/1Q0Z2quadigjqNKSVf07nSm/H/6zddMbZq7nQb05nAUzGh2ZHUjAnW9VhpPu6xpTEl3SZPOjObcVsri/m4bo0J1jFW6Kf7lzRrzC607mW2ASKOreqrnQAuChfin9iuBC798b7vsdODPi0FzA/zY9tOI+vD+mgqgA/4gA/ZYuCv4s7PrBJEfBAfxIf8aTQDAz7go/jQqhQVH8QH8UF8EB/5A/6IP+SPvT/w/sT7I++PRvX+TAVw1Sl2/30KUIACFKAABShAAQpQgAIUoAAFKEABClCAAhSgAAUoQAEKUIACNSnQdQZw3Iie9eTOt6JnJ3l17Ez3PX3MD+sDH/BRfBAf+QP+qGkUW36RP+AP+AP+gD/gD/gD/oA/aFfueX/m/Rl/zB/zx/wxf8wf88f88Xj9sQrgmjLt/hgKUIACFKAABShAAQpQgAIUoAAFKEABClCAAhSgAAUoQAEKUIACVSvQrgAuKn+3/WxmqH2fV0bTp0sH86NVKm9+WB/4gA8dHMBHfIxzgH/in/gD/oA/4A/4gxIH+CP+iD/iD5uVseKj+Cg+io8tDvAH/AF/wB/wB1XkH1UAV51i99+nAAUoQAEKUIACFKAABShAAQpQgAIUoAAFKEABClCAAhSgAAUoUJMCsQL4oq3emeX0y432mcA9Klh8T5/WmS7mx7YKJ+vD+rA++u3cEl/wAR/wAR/4716ddcQH8UF8EB/EB/FBfOhVASQ+iA/ig/ggPogP4sN2DoiP4qP4uHN8zCuAi+RdkXX2OU/m0SNXwHwwH6wHPMBDPBQPxEN+gB/gB/gBfoAf4Af4AX6AH+AH+AF+gB/gB/gBfoAf4AeOCz+wYwVwv51Ffr33jiO60KV/r/7+OzHMG/PGvLE+cAAHcAAHcAAHcAAHcAAHcAAHcAAHcAAHcAAHcAAHcAAHRsWBzgrgHm18TTaTbVSTzX9H8MITPMEBHMABHMABHMABHMABHMABHMABHMABHMABHMABHMABHMCBajmgAljSe9vZtRZdtYuOvvRlbpgbHMABHMABHMABHMABHMABHMABHMABHMABHMABHMABHMCBqjiQJ4DTlXp2p2RocflMD/PBesCDXAE8xEM8xEM8xEPxQDzkB/gBfoAf4Af4AX6AH+AH+AF+gB/gB/gBfoAfOE78gApgFcAqgIvF6mdu4ulAB/PAOsABHMABHMABHMABHMABHMABHMABHMABHMABHMABHMCB45YD8QzgWAFcKvwNsRDY5/ZGJnqYD9aD9dDujGA9WA/Wg/XQVIBf4hf559LOf/FRfBQfxUfxMe8chId4iId4iId4KB6Ih/wAP8AP8AP7ww80DscW0CmBny3K+A9bcUeHz/QwH6wHPMBD8UA85Af4AX6AH+AH+AF+gB/gB/gBfoAf4Af4AX6AH+AH+AF+gB/gB44/P9A+A7i0KaHnTi3fdyrQvbOXPvQpK2B+dFaGWR/Wh/XRVgAf8KFcOYqP+IiP+FgoID6ID+JDd1TEB3zIFcBHfMRHfOynAD7gAz7gAz70VgAf8TGd9rkYK4CTmS5auec7OYodLe2fvs9bvdPH/LA+8KGbA/iIj+KD+Mgf8Af8AX/AH3RygD/ij/gj/og/4o/4I/6IP+KPyhzgD/lD/pA/5A/r9Yf9K4D77x3xDQUoQAEKUIACFKAABShAAQpQgAIUoAAFKEABClCAAhSgAAUoQAEK7EMF4hnAT9pqZFtx4pVVAqeCYJ/pYT5YD3iAh+KBeMgP8AP8AD/AD/AD/AA/wA/wA/wAP8AP8AP8AD/AD/AD/AA/wA8cb35ABfA+zMobEgUoQAEKUIACFKAABShAAQpQgAIUoAAFKEABClCAAhSgAAUoQIG9KBATwE9KRwHH1tvFTq78EGCf6ZHvbDMfrAc8wEM8xEPxQDzkB/gBfoAf4Af4AX6AH+AH+AF+gB/gB/gBfoAf4Af4AX7gePEDKoD3kjb371CAAhSgAAUoQAEKUIACFKAABShAAQpQgAIUoAAFKEABClDgfqhA49DJYWtlMYTVpfvh3/74+Cs3Dr8lngHc2GHnTjoT2Pf9K2HpY35YH9ZHv0p5fMAHfMAHfIhzoMfOUHzER3zER3zER/Fhe+c18VF8FB/FR/FRfBQfxcfuTq38QeX+YOKEU0Jj4YEZf1KF9+YdN7bj0Zj0nzrrojB52jlh4sQzw8RJZ4bNu28OW4fvDGu3XhM2vnbV2MY3Gcc184hLsjGVr404rrUbPx7Wb78+qljKN9akX+PQA8N0HNfU6eeFxqFT8qGtLob1264PG7deG9a/dsXY48vEiQ8JYWYujutI2LznG/l4KtanWQGcl+23L5/pYT5YD4UCeIAHeIAHeJArgId4iId4iId4KB6Ih/wAP8AP8AP8AD/AD/AD/MCwfmDywefHhObZrcThRkwUbtz6+ZgIu3ls71umznpymHnUC9sJwwLvKXEYk4arX/qLmHS9q9bxpYTvgYtfs31M5exdTAQvX/4bTe3q4VFKXu42rjSSdF+XL39NluSsyy/MnP9TWfJ3pyslz9ua1bh+Z+bDbBzf1Onnx+TvQnuIHXPszsrys43D8QzglJEvMs1F7+ptP5uZaN/nZ13Qp0sH8yPbiWR9WB/4gI/ig/jQwQHxUXzkD/ij5g5+8UF8EB9KPlF8FB/FR/FRfPR+0ftV75e7OcAfHLM/SJWs04/44SzJOhn/vxGrRlPlaKrM3Lz3zmP+7+/l/XfjxDPCwYt/vW9CM08Y/nrWSngv//3Wc9Yw8ycm4g7EMaUK2x2vmKQ7Gse2efsNteTPph50TjaujkThDgNc+fs3hLWbPpXHk2H+/kPydyrqdOAZb9hZq64E9dKHfyo0YhJ4T/dn0PHF+3gwjqu7GrnvQMv3swb+ZLrtdj/jmJY/84a44eCaSuZ/VwVwkfn2syj397Ndrt/e2WV+mBfmhfWAAziAAziAAziAAziAAziAAziAAziAAziAAzhQAwdS29TUwTQmS/aD3qk9b6o4bCWemtV8K9e8pVn5WP+6mDrrKVmlYb/kYUoWrsdkYZ36pYrfgRKHUb8jH/7prMVxHePLkoZxbINeR2Myc/OeW0qVwKO/v6nC9uAzf2/g5G8x9qNRt6KdcBXxKLVTnnvuW4ceV9p4cPQjcT6W2kGPenyzj/+FkKq4h7qyufZTca59a1/dz7QJYuOb14xcr+1nAHf3nPa5s8c8PehRPpPHfDAfzIdWsNx2ZoH1YX1YH9ZHcYYZHuABHuABHmQP8/xSrATHAzzAAzzAQ/HA84F4OKAfSG2DU1KzONMzJQhXrnlrTJR8fmzxdKekUxrfkb/6hRAW28mlOvxfai+bVRrucmUVo1+NFaMD6n8s/jWdyTr33D8dOHGYJwxjErhiPkzFCunZ8396N6k6vs/u6/teVGn8HjYpXQwwq6D+xC9Wth72lGRtDq7K+Tbw5oIed3r9pivCyt/HZHtVfmR2IUuat84iHmS2xcT00ntf1KqEL5Llx7oeYgXwk9J2hVJmuRhNsXPHZ/qYH+2dKtaD9WA9WA/iY25C8BAP8RAP8RAPxQPxkB/gB/gBfoAf4Af4gfuCH0itcKcf9aKsJW5KKK3d8LFSknU88X7mUS/OxtTrWv7EL8Rx3tBMetU3vskHPyYmWn9jx3ROnpCLSeBW5WPF44tnjM6/8L2DJVqzJNMLY5XyUuXjm338Lw5dnZmScik5V6W/mv/xy6JW8zvew15ftiuoR38/07m/B1OyfI9XOnO3vSlihOOLlfeZXnu82onz0fvFvcyv8l9j6c9/uNlRYIR6Nd+Xpu4AM0NuMkijWItnTq9+6T0jnf+tCuBWj/CiV7ifec9tOtDBPLAOcAAHcAAHcAAHcAAHcAAHcAAHcAAHcAAHcAAHRsCByYddFNJZn8tXvyU01uIZmWOeV40HnBHmnrc9+XQ0VrJu3lE6+7TGcaazbOde8Bd9004psZSq5ep+f58SrY1DJ++aDksJ4PXbrq9lfGk+HXhCqgAd7EoV1OvxTOCq5126f4NoVR71xjevDUc/+ZrKdJs8KbZZTu2M93DlVaNvqES32Uf33+wwyFDTGc8riScj4FN5Xkw/PLYVj22Wj+XKNhzEivhRz7f5H//4nhL5xd9l+TO/Fza+duXIx5X+nnPP/P2hWowXY6qCa6UK4GO5jf5dClCAAhSgAAUoQAEKUIACFKAABShAAQpQgAIUoMD+UCBV1KXKuvz8zpv3xaAmH3xeq4I0JbtS5d64r1SplirWuq9xjm+QCrq8Cvj6+uRLlbYDVkN2VvJVO8R+96/fn7oZK6ePfuLnKx7U4FqVB9I+N7aa4Q0yr8ah27FWs1Z1T3eqwh/0DlW1Tud/6spBh9Dz91W5Ro9lbEt/etEx/b26/+VmBXBsVhK7dbR3CPhMD/PBeigq4PEAD/AAD/Ag36mIh3iIh3iIh3goHoiH/AA/wA/wA/zA8eAHJk44OVaQxra48Vp860X75nmuXOmXWhin5Mi49TzwjDfE1s9nb08Aj3F8g1REdlYoVx+fGw84s2eldK9szdqNH4sVmfEM0FZFZnXj63f/+mWR8nn385XmgyZP2ntL4yrX6yDzqm8COG4iOfrh4ozi0d7PvVaMFmNNCeAjf/XzI59vx6JXMbZ8nV4/2vk2u7cNBuV7uxrbLackcBX8XfjpvSenRz3/swrg3LyX/vrp6IbSZ9/Tx/ywPloK4AM+ig/t5SB+8g/8UztAig/ig/ggPjQV8Pzo+dHzo+dHz48FEL1f836xZJc9P9b+/Dh99iVhM7YKTpWs+8WflCsQV2Mr3pQoTNc4x9evKjJveft7Yxnf1MOeHGZ3aWt85H0vDFuH76p1fINW9pXvbdX3d9gqzey+xva3VfN5fg9JsFYla0XvF8oV+MOWWXZU2Y54fDPnxSr8yKu9XkVSf9T+a9i51Wv87Xboo/XHe5lf5fGVK4BHzd+9njOdxpdVAI9wfnVVALeDTfGX9jN/eKcDHcwD6wAHcAAHcAAHcAAHcAAHcAAHcAAHcAAHcAAHcOCYODA9H8/+Xdo/75vjeOaeFc+sjO2yiyslVpc+9PLxjTNW+M099219z5BtnxVbL48GrdRMyenNe++qJa8wceo54eAz3zBw7jA/+/SKyudf0YJ94IHF39iunK7mvpY7AwwzrvR71274WFi99q2V6Db98Ljh4fGDn+PcPfa04WA1ju+YuNTcpFSOb1Ont1vWD6tX8fsX/++zKuHIXuZX+e/QWZk82vl28Km/EdJmg2GvKriWnwFcZJT9zHe+0IEO5oF1gAM4gAM4gAM4gAM4gAM4gAM4gAM4gAM4gAM4cD/hQKpAbMwuhK2VxbD21U/FjNfSWNf/RGoj/MzfDyGevVu+0nnORy+LZ9iOYXyNhdha/Hlv2zambZWFX3xPrevm4DNiAr9HG+/uBFSmXTwTu478x9QekppH3huruhdjVXeF3E1zahCturXLKs5jUr+S/FHchDH/ovftOK92SiZWqdv8f7tsz+PauDWec/6peM55Bfdz5tEvDtOPetGwOdb8968uhaU/f1Yl40rzYzJuyjgwxKaM4i+RKvPX4+aMUeoVK4CfuJX3oi92bqUzjXymh/mQ75ixHvAAD/EQD/FQPBAP+QF+gB/gB/gBfoAf4Af4AX6AH+AH+IG6/UCq2EwtqidPekjYjInpzduvj5WOHx1r/mLi1LPDwae+tmdSLLVXXv7M6+sfX0zcz79wlwRiTHodjefEbtz9jdrGN/e8P+2oLN8pW9eusK023mb3L20sGOLK7+vvNStsqxnf9KNeHGb2kNAsWrVXxeeUZE2toPdy5e2fr6tmvsWk+cIek+aptf3aV6+o9H7OPuU3QqqgHvRqn8092vnVWHxLPAM4jiI7oyf9Q1EA6zM9zAfrAQ/yDTd4iId4iId4iIfigXjID/AD/AA/wA/wA/wAP8AP8AP8AD+Q/ECsSp55+FNiguf8TI+UVE3tWzduu358+sS22Qcvfm3P6taUXFr5+9fnFax1+pmYpDvY1V68V0Ksdd50Tetr8qwnhwO7nDFdjDNVTR+JFeepbXvV+bNh2xoX1fBbMblf5fvrAzFhPjlAhXn53qZ23qtXv7XS+TbIWeHd8y2d5XwkboSoUq8sn5DWY6o2L7XW75cMzu5jHFNYiXNsxOuzVAFcZJb9zHc00oEO5oF1gAM4gAM4gAM4gAM4gAM4gAM4gAM4gAM4gAM4gAM4cHxwICw8MEyffkEIMQHViP9bu+XqsPUft4wv3zE9F2bPeU5ILca723mns6ZXvvjueCbxlbWPb/JhF4UDF7xix/bG2Zmsn35dTP4eqWd8sZL7wMXx/NjTzumXK2z9epE0TC3bK+dzHNegycw0wM5K+GrXTXYfn/DqXfVKvyFP5v9crfdz9vyfCVNxw0G/ayN2NVi+/DVZ6/0q7mP7DOBiBDvsZMt+i+/77vSgj/lhfTS3qPTYqWJ9WB/Wh/XRb6ckPuADPuADPuQPY92dR/ARH/ERH/ERH8UH8ZE/6OzMxh/xR/zR8euPssRmM7+UEl4bMSFXrsSsfX2XKrmLc4FTUjol5dZji+D1+HMc40stl3slzDN9YrVv1i77+o+G7srfqvXLzt3tkchvJTfj2FIL9HT2b53+JZ25m8bW92znQrPy2dw1Pn9PPODMkM7ETq3s08aMVOmbugasR50274hdA5qV75Xcv/YZwNVm4u0Qom8VOxjMK/PKvLIDFQdwAAdwAAdwAAdwAAdwAAdwAAdwAAdwAAdwAAdw4L7EgdRifOKkM7NK7q34v827b45Jw2sqqRQdVLdUYT71oHPD5IPPCxOzh7JxpaR5Ous3VUxXVck6yPhSgnUynrvbiBXLjYWTw9Y9t+Tt2WMif5zjGieXmmcAx+DQ2jqTT6Y0qPZOU9/Tpyj9Nj+sD3zAR/FBfCwqMfgD/oA/aNak8M+eHzw/eX70/Nw6s40/4A/4A/4gq1nlj/gj/og/4o/4o2YlKH/IH/KH4/CHzgB21u9Yd4wMsnNjnDskjM/OQfPPzkEcwAEcwAEcwAEcwAEcwAEcwAEcwAEcwAEcwAEcwAEcwIHjiQOlCuAi/9yViS927BU9sbsrhX2f72ikT35mmfnRmgn5vGjueDU/zA/rAx/wER+bJBQfxEf+gD/y/OD5yfOj9w+en70/8P7E+8eOSiDvj7xf9X7Z+3Xvj70/9v7Y++NRvz/OzgAutWXJdjD43GpTQw/zwXpot22yHqwH68F6KNrg4wEe4AEe4EFp57PnJ89PzTaf4qP4KD6Kj+Kj+NiqDOIP+AP+oN150nqwHqwH6yG2xfe8VO/zUqwAfmJM+ZZ3Xhb7z/Lz/dLle/q0d6aaH/l6sD7wAR/FB/GRP+AP+IOicoU/4o/4Q/7Y84HnA88Hng88H3g+8Hzg+cDzQXHor+cDzweeDzwfeD4Y//NBfgZwq81I0Y7Nz872jPSgR7ldpflgPpgP4gYO4AAO4AAO4AAO4AAO4AAO4AAO4AAO4AAO4AAO4AAO4MD+5ECpArhduVDs0PEz36lDBzqYB9YBDuAADuAADuAADuAADuAADuAADuAADuAADuAADuAADuAADuDAccGBw2+OFcBxthZtWvJMfelzOhPY9/Rptgk3P6wPfMDHVrwQH8RH/oA/4A+iby52+ooP4kPe9jE70wgf8REf8VF8yM869H6pzUPxQXzkD/gD/oA/4A/4A/6IP6zRH+9YAdzZo3t7Rt/35R7e9One8WB+mB/tM6CsD+ujc2cgPuADPvTfKWl9WB/Wh/XRbycxPuADPuADPvSuOMJHfMRHfMRHfOxVkSk+iA/ig/hwf44PzTOA4ySIKrR3qveYFL6nT2unovmxDRrWh/VhffRvl299WB/Wh/WR7XTnH/iHrnkgPogP4oP4ID6Ij/zBdg6Ij+Kj+Cg+io/io/goPnZzgD/gD/bgD5wB3Aum/YKsX3cmsvniTGwcwAEcwAEcwAEcwAEcwAEcwAEcwAEcwAEcwAEcwAEcwAEcwIH9zIHDb35CPAM4nV3W3JGfnUniMz3Mh6xSyXrAAzwUH8TH3MzjIR7iIR7iIR6KB+IhP8AP8AP8AD/AD/AD/AA/wA/wA/wAP3Bc+AEVwHZo2KGxn3domJ/mp/lpJyEO4AAO4AAO4AAO4AAO4AAO4AAO4AAO4AAO4AAO4AAO4MAwHGhVABc7d/zMd/DQgQ7mgXWAAziAAziAAziAAziAAziAAziAAziAAziAAziAAziAAziAAzhwnHGgqwI4tn+O/2u1P47/5DM9zIdmO2zrAQ/wUXxo7bASH/kD/oA/4A+y9vD8EX/EH/FH/FGzEoU/5A/5Q/6QP+QP+WPPB/wAP8AP8AP7yA+oAG6eeXycZe5VKLtvKtVV6uMADuAADuAADuAADuAADuAADuAADuAADuAADuAADuAADuAADnRzoHH4LU9IG3OaB5c3c/Otg9zT57ypeDZ5ir3Nvi/pQR/zw/rAB3wUH8TPbG8bf8AftPwif8Qf8Uf8EX/EH/FH/BF/yB83X8Zn7xP5Q/6QP+QP+UP+kD/kD/nDOv1hQwWwnSF2htgZYocYDuAADuAADuAADuAADuAADuAADuAADuAADuAADuAADuAADuDAfYMD8QzgJ6R7WTSlLh3knRXyxM/5z+ahNr5vHfRNH/PD+sAHfBQfxEf+oFTJkFVA8wf8AX/AH/AH/AF/wB/wB61KR/6IP+SPvV/1ftn7dfkF+RX5Jfm1/JB4+cW684sqgO8bmXw7MtxHO7PszMIBHMABHMABHMABHMABHMABHMABHMABHMABHMABHMABHMABHMhaQKdjOFo79fNTOXwudibRw3ywHvAAD/KdiniIh3iIh3iIh+KBeMgP8AP8AD/AD/AD/AA/wA/wA/wAP8AP8AP8wL73A7ucAVy0MeyXKfd93uaQPr13FJkf5of1gQ/4iI+9dlyKD+KD+CA+iA/ig/iwnQPio/goPoqP4qP4KD6Kj90c4A/4A/7g/uoPJk86M0ycdk5ozC6ErZXFsHn7DWHj7m/0aKNco3+YngtTDzo3TMSxTT7onHxcd98cNm67LmzecWNMipfjWL38mjjhlDBx6qvrtOwAACAASURBVNkh/Syu9VuvCVv33NI1rkKvesc3jvjWPgPYzi07t+zcsnPLzi07t+zc2vc7t1Ri61SiU4tONTr3NM/Y9fzi+cXzi+cXzy+eXzy/eH7hB/gBfoAf4AeOGz/QOHRyTM6dnJ0FuxGThmF1aezzd/rhTwmTp58XJg6dkiVaNw/fGTa/fXNYveGjYevwXWMZ3+RZTwmzj35xaMQxbbtiwnX56jeH9ZuuqJ3/M4++NMycfUkIUade11bUbuWat4T1W66p1Z+EhZOjXpeGqXgv+47r6jiumAwex/uUdD+n4hybOv2C1vBSwnztq58KG1+7otr1m58BXGS6u392Z8J9n+846t4ZQL9OXejTuTPN/DA/ytywPqyP8s5NfMAHfNjuQ/nPfMcsPuADPuCD52/P394/eP/i+dHzo+fHdsUUf8wf88eD+OPGiWfGRNP5XRWQN2dJpkH+/Sr8V0qyTsfE4cRJD+nIz23EhNzq9R+NlaPX1z6+pNPBp762d5K1Ocq1mAReiYnD2p7PZ+fD7BNe3ZEo7JnRjL+YEojLl78mq8CtfHxxXAcufm2s+D2333A6fr2tW/XvdxonnhHmnvkHfZPS5YGtx4Tr8mdeX1t+bzLO9wNP/Y0d51hKmi9/8n9nGyKqWJ/tM4CjEqWNk9sz4b6nT2m1bNspYX6YH+ZH/51N1of1YX1YH/0qE/ABH/ABH/Ch9851fMRHfMRHfMTHqID3T12dT8RH8VF83B/xcWY+zGSVo3miNWuBG5OZ67dfP7bxTcTq2pQ87JWkS8nC1ViZmVXd1hxfD6SEZp/KzGIsKSm3EZNzdeWnJmNb5ZT87VfJWlpmoZU0rIG/s3FM5eR9eRy9/nkztoM+8qGX536hwvEdGHJcaTxpvqXkfmu+VTC+lMQfNPlbjKM7qV/V+FL77oMDJqbTGJYv+7lK+NE8AziZiaI3d6+dIL6nj/mR7zi0PnrvKDI/zA/rAx/wER977cgXH8QH8UF8EB/EB/FhOwfER/FRfBQfxUfxUXwcND6m9qkpmZJezG7ec3Nsm3pFn4rHeuLr5IPPDymp2St5uL3CsHyfqxtfaqs899y375zQjJWiR//q5/pUGlaT/znwxJj8jfdvkGv5M68LG7GtcdXxIbULnn/eLlp1DXjtS+8JK//0rubZu9Xwe/KsJ8d59UuDSNXxe1a/+J6w9qV3V5bfS+svm+97uI689/lh896ijfbo5//8i94fq2tjS/Ehr+W4DtZvu76LIyMcX6yYnotzrGcL735jjetzKeq1tdJui94ZJ/c2vlYFcL9Md/d4uncS+L5TAfp0VpKbH+ZHWQHrw/oo7+TDB3zAh7YC+IiP+Nj/ic36sD6sD+ujnwL4gA/4gA/40FsBfMTHofkYK1pTm950DurW6mJeuRfPZ+111TW/JmLSNyWeutsGZ1WPsVpuHONLyabdkodrMSG38sV39wV0FfodfNYfhFTVutuV2s0e+YsXdFTaVvV+LquyjeMa+IoJsMW/eH5oxHk39Pwt/SG76TtIRfK2MTfHlp1ZHL+sYnwLP/GJEOI6HPoqjS39u6Me316TrGksxYaIKt7/paryvSamU0X80b/6+cr4NnX2s8PsBT8z9K3MkvmRHaOcXzEB/PitRpwWW/F/rTMVfKaH+WA9ZBXPkQt4gAd4gAd4gIfigXjID/AD/AA/wA/wA/wAP8AP8AP8wH3TD0zPhbln/WFnojVLKv1YaKwdGVv8O7BDUjNPshYVmfW9vzz41N9stX3eKbtzJCYyN2OytY58y+SDz4vnjP7mwMmmrNI2VlFXnQ8atp1x+gvkbYM/Umm8nf/pTw+sVfk3rlz95rB+48cqWQ9Tp18Q72FsSb3HayW20F776uUjn2/pDNuDqVp6r1fiyP99RiX3cy/zq/zXWIp8C4vfquR+zj3vHZGnsWvBkFfaoLGUNkGM0G81K4ALSBYj8jkXmR65AuaD+WA94AEe4qF4IB7yA/wAP8AP8AP8AD/AD/AD/AA/wA8cP35g5uznZEm49Xg2637hdyOdCxkTPak16OrVMdl1Q3FG5vj4Ot2nWq2zeq/e8U2ednasHv3DHdMnS295Yu3v7+d/ZrDkYTvJWv16mXn0pWHm0S8eONWU1sPyJ/9XM8lU3fgWfuKvh65ozcf2vytbrxPDViWXVE1nPB/NxjZ6P5zuX7qPe71WY9Vo2hQx6vg0eQxVtsXfJSU0U2Jz1P5pL/OrrG/nmbuj5dvCgJzodb8X/+wZcSfE4sj06qwALjLLfuY7YOhAB/PAOsABHMABHMABHMABHMABHMABHMABHMABHMCB44oDU6edG1IF6baKqjHfx6zSttmqt92Od7zvoftV2m7cfn1ISZJxvCdPyfuZXVqoZhV8h2MFX018bpx0RjzX8x0D5ehaFco1zLedKqV7Dbau+zposrw8xs04545c9j8rizcFFwa6iV2/qUrdZh/9kjA9RBK/e/xV6Xas40rjPBrv5+btN4x8ne5lfpV1ayfNR8zfmbmQJaf3eI1ar1YFcLs7eNEl3M+8mzsd6GAeWAc4gAM4gAM4gAM4gAM4gAM4gAM4gAM4gAM4cLxwIKuoO+c5WVvUlVhpu1/GPX32JfFsyFe0UgOLb3nC2N8/p/GkKuDuq6gUHce6H6QCeDFWANd9Xwet7EvJpXSeZx3j63f/+uWfUiIzJZmqvq8LP/OZoVNg+dji+c4V5WUGmVfj0O1YK4DXYieBKjjXzauhb2j8F4586CdDOrd71PNtL/OrowI4VnOv33r1yMeV/p6DcqKXnkXF9Kj0ahx+UzwDOJ3l02+nTDrjxff0MT967zyyPvABH/ERH/Gx145e8UF8EB/EB/FBfBAftnNAfBQfxUfxUXwUH8XHkCpJJw6dmiW5Nm69Nj+Dcox8bJwYK1t/ZHtla6sSbRzjm1kI8y/+QN8Wwh0VjzWOb/5FH4jtu0/eNQ92NCa9NmLSK+swWvH4Js96cjjwxF/adUzFb8jOsr0hnmVb8Lii8Q1bmZzGlycy39zJyRGObyK2Xp970fsH1mqgitERjG/6ey4Os0949Z7Glf6lvJ186ezkMmePYXzHUjFd/GUW3/yESviWzibeyzm7xbiOfOhlYevuWypZn4NyYtsNX10Ki3/2QyOd/1kL6PwPKnawFX+sz/lOE3qYH9YHPuAhHooH4iE/wA/wA/wAP8AP8AP8AD/AD/AD/AA/wA/cN/3AZGxLPR0rpqcedG6WuFz9p3eFjdi2dZz3e+r0C8KBeF5yryTJ0l/+RGzv/a3axzdIBen2yumK/cPMfFh48QcHO283JZje86MxY7hUeT5o6uEXhwNDJjVTW++tw3c1BauGt+ls6TTfh73alawV3M90D4+hbXCuWzXr4VjO2m2vhdH7p+nYJn52lzbx/e5xmmOp0rYqvh14wi+FqXh+8rBXFXq1zwA+hp0AdexkqXqnjP/+eHea0Z/+49zpaP6Zf+afTiA6ofQ584Q/rGSnatU7rf33m/PZ/DV/x1hJw1/yl/wlf8lf8pfZ+9Luimf+hD/hT4bqhDB50kPi2aiXhvRza2UxayW7fPWbQmP1yNjWVzqbuFfL7JTs2bz75niG7f+ofXx9k+VdGaiVz7w+a4teF5/SmcmDVmmuXf/RsHrNW4aaHx1/jwH5OnHa2SElgYe51r/6qbD86ddVyq9UAbynpGEcW7qvVT1/pLOJZ+Ia3MuVzhBfv/26airh01m7g258GGQdDDh/BvF3e600PxKT0puH7xzp+ixVAO/lFvp3KEABClCAAhSgAAUoQAEKUIACFKAABShAAQpQgAIUoMD9Q4Gp08/PKqaLStJUUZgSq6vXf6RZXVu/Dil5eOCCV/atBF7+zOtCSmTWeaV22XPP+qNd22a3zyWuZ3QpoTloUrNI6udV0xVesQp4/kf+bFetOkYQx5RXwxdV0xWMby/jisPorGatYFzxP5nN+VhtO8yV3c/Y/rnqa9ixpdbnqQX6qK/tZwDHTHfcyhD/nD47531PH/PD+sCH3juX8BEf8REf8REfe53xJD6ID+KD+CA+iA/iw/bKFPFRfBQfxUfxUXwUH0cbH+PZySnxNHXGBVkeKWV5Nr79jSyx1KosrDv+Ts+FAxe+snd1a0xgpqT52hff03EmcR35qZkBKluzZOHHY0X3WqnivEL9UqV7Vp0ck667XlG7dE53ur8dnWcqGN/kdw4xrjjwjkr47sraEY9v6uxLYivoV+wqV/oNxf0M8X7Wkf+ciW2qU8eA3a40/1e++K5WPBjl/FcBvJv6vqcABShAAQpQgAIUoAAFKEABClCAAhSgAAUoQAEKUIACFNiTAqkaOLWqbswuZP9+Skiv33L12Cqm0xhSe+qZR78kO/u6nHRNicLVGz5Se8V0JkxM/qZK7p3aQaeK6eVP/261lb9ddzndvwNP/OVdz09Omw1W4hnilVdMl8aXKvJno2ZpjP2urI13bB9f57jSWNKY0tjSGLuvVCW9FjdApPtZ1dWuAM4y8THvnRUAxzMqfKaH+WA94AEeigfiIT/AD/AD/AA/wA/wA/wAP8AP8AP8AD/AD/AD/AA/wA/ch/1A48QzwkRMTq/fdv2+4H0az3Ss5J6Iyem8X2+qYI3V3F+5PGzdc8vYeDRx2jlh+uEXh8k0rmbCNSXMN267LlaafyRs3nvXePSLlebTZ14QJuMmg3QfG4dOiQnyO9sV8PfGs3XHPH+nHnROdh/T2dXr3/56rCxfqtxfqgCuKrXuv0sBClCAAhSgAAUoQAEKUIACFKAABShAAQpQgAIUoAAFKEABClCgZgViBfDjmqW/+dEjqQK42FKQf26eCVz88D19mltOzA/rAx/wMQ8c4of4yT/wT/wj/xznQCseiI/iI3/AH/GH/CF/yB/yh/whf8gfF37A84HnA88Hng88H4zj+SCvAC6SukX22ec8yUuPXAHzwXywHvAAD/FQPBAP+QF+gB/gB/gBfoAf4Af4AX6AH+AH+AF+gB/gB/gBfoAfOC78QFYBXJz527kTJRUGF2cB5z99X96pQh/zw/rIzwrHB3wUH8RH8bG8s1t8FB/FR/6AP+IP+UP+kD/kD/nDduUff8wf88f8MX/MH/PH/DF/XL8/7qwALrV3bp0sXZww7Wd7Zw+dWm2wzZNShbR5YV7gJE7iAA7gAA7gAA7gAA7gAA7gAA7gAA7gAA7gAA7gAA7gAA6MmQOlM4C7dyL53LkziR70KO/UMh/MB/OhvXPPerAerAfroX0YuPVgPVgP1kO+s5s/wEM8xEM8xEPxQDzkB/gBfoAf4Af4AX5gXH4gJoDjGcCtvjSlQxyyh3afW4c60MN8sB6aQGi3q7A+moee4AM+4AM+ZArgY9HOR3wwH6wHPMADz9PeJ3ifwg/wA/wAP8AP8AP8AD/AD/AD/MD4/ECPM4DbOzL67Uwoft33vXcu0CfXxfwwP3rtbLE+rA98wEfxQXwQH7ZXQoiP4qP4KD6Kj+Kj+Cg+dlcK8gf8AX/AH/AH/AF/wB/wB52dBPijwf1R8wzgUjPyZruuVnNun/NkZnHYLT3oYT5YD3hQqnTER/GheZiF+Cg+io/io/goPrY6IfAH/AF/0K50sB6sB+vBeigV2/BL/BK/1CoaEh/EB/FBfGglc8XHSuKjM4B3qFR1RoMzGpzR4IwGZzQ4o2FcZzTgD/7gD/7gjzPjPI94HuEH+AF+gB/gB/gBfoAf4Af4AX6AH+AH+IG9+IE8AZxdzR0nRVv6ViVP6xfyDLTvm3I1y6zbgtDH/LA+8AEfsnCCj3nnCPGTv+Cv+Ev+2vOD5yfPj00F+KNmpwz+iD/ij/gj/og/4o/4I/4oT8d4f+b9mfeH3p9W+3zUUQHc3Tvb585e2vSgR/nsFfPBfDAftp8Zb11YF9aFdYEDOIADOIADOIADOIADOIADOIADOIADOIADOIAD4+VAqQK4VKzkHylAAQpQgAIUoAAFKEABClCAAhSgAAUoQAEKUIACFKAABShAAQpQ4LhToDMB3N12wOfONlX0oEe5rav5YD6YD+2gZz1YD9aD9VAogAd4gAd4gAe5AniIh3iIh3iIh+KBeMgP8AP8AD/AD/ADY/IDKoCPu5y9AVOAAhSgAAUoQAEKUIACFKAABShAAQpQgAIUoAAFKEABClCAAhTorYAEsJlBAQpQgAIUoAAFKEABClCAAhSgAAUoQAEKUIACFKAABShAAQpQ4D6igATwfeRG+mtQgAIUoAAFKEABClCAAhSgAAUoQAEKUIACFKAABShAAQpQgAIUaNz7xh/YaqSzCFrXVvyn9uet2KPe9/QxPwoFrA98wMfWahAfxEf+gX/iH5sK8Af8AX/AH+QKeH72/sD7E+9PvD/x/qQZEbxf9X65/bTk/Yn3J96feH/i/Yn3J/kTY63+QAWwTQAUoAAFKEABClCAAhSgAAUoQAEKUIACFKAABShAAQpQgAIUoAAF7iMKxATwD8SUc9yhGXcixa04pQx0kYlu/vQ9fcwP66O1QwUf8konfBQ/xE/+gX/iH/nn9g5W/oA/4I/4Q/6YP+aP+WP+mD/mj/njrucC78/iO0TxUXwUH8XH+uOjCuD7SCbfX4MCFKAABShAAQpQgAIUoAAFKEABClCAAhSgAAUoQAEKUIACFKBA6QzgfGdO+8win+lhPlgPxRleeIAHeIAHeJCf6YeHeIiHeIiHeCgeiIf8AD/AD/AD/AA/wA/wA/wAP8AP8AP72w80K4A7Dx7uPojYZ/rk7eyKix70MB+sBzzIFcBDPMRDPMRDPBQPxEN+gB/gB/gBfoAf4Af4AX6AH+AHjmc/MHHSQ0NjZj5s3H79vnjf1zh0aph80Dlh4tAp2c/Nu28Om/feGdZvvSZsHb4jK+Ych96NOJ7phz85jumRYeKEU8LWymIc1x1h47brw9pXPxXC6uLY9Js46SFh8rRzwuR3nhmSfhu3XRd1+0ZYjz/D6tJY9Cr7o8kHnZsfxRvfJ2/cfUtTq2r9Q+PwG+MZwKmipTjjt/mzlbnv+vXi9/m+mdmnT342svnToYP1YX1kO2HxAR/wUXwQH8XHEgf4A/6AP+CP+MPm2Wfio/goPrZ8Mn/AH/AH/AF/wB/cH96vT5x4Zpg644KY0Dw5bMVkXEoart96bdiKP8f195844dQw++gXx3FdGMLsQitBmJKGq9d9OKzfdMVY3u/OfP9Lw8zZz+4YU7mZ8fpXLw9H//FNobEWk5o1vn+evfBVYfqcOK5+V0wGL3/6d/MkdRxXXfGtEe/jgSe+OktK97xK46o7v9lYODnMfv9LwtTDL942tPVbrg4rn3tT2Fq8q7L3p10VwH0OaG9VOPk+31lBBzqYB9YBDuAADuAADuAADuAADuAADuAADuAADuAADuAADuDA/uBAqhSdPvs5WaK1uFKSae2Gj2QVmmO5TzOHwsGnvbZvcm7t+o+ElX96V7NCsz4dpx7+1Jg0/KX+ycz4zfotn4sJzdfHsR1uVtxWPL5YgTz3w38UUiXrbldKUh/5+P+oTbcDT/yVmMR8ym7Dyr7PksCpGriGPFqq3J571h/2TZZ3Js4/md/PGsaV4uLU6efHOfbLu46tSr3aZwD3qfztztT73LlzgR70KO9kMR/MB/OhvXPXerAerAfrod/OSnzAB3zAB3zIK13wEA/xEA/xEA/FA/GQHzj+/MB0rBid+S+XthN1scJw9foPx/9/LLbEPdxR+VjX/Z159KVxTC/pm6Bb/0pMfn3m9bX6z1SZOf8j79g1AZYlMz/4E7X54+nv2T35Wwi5cduXw9HLfq5v545R3t8DP/hbWdJw0Cu1OE5J4Kr95IHdKn97DHj5736tZyXwKPUadH6Vh5cqbtdu+Gjl9zNVvM/96J8NeitDVXrFCuDYAjrbuFDsVCoS4D7nOwHoYX5YH/iAh3goHoiH/AA/wA/wA/wAP8AP8AP8AD/AD/AD/AA/wA/U6QdSRWtKbGatXWOSdT0m41aufnNsG3zn2PIZqZVrVtXX42pVZcax1snLqbPimJ7Ue0zlYa5+8V1hNVXb1pQPOvjDfxjPZI3nng5wrX7x3XFs76w+HzOzEBZe/MFdk9I9k4YV5osmv+uR4WCqZB3yyqpHv3J5ZfMtnfk7n/Qa8to6fGdYes+PVno/UwV3r9bKOw41rs3Fd8dxpfbZFd7P+Uv/Mp5DfPLgqqVxJb3SGcojXJ+tCuB+mffi133feycSfXJdzA/zo9dOI+vD+sAHfBQfxAfxYXtlk/goPoqP4qP4KD6Kj+Jjd+Uvf8Af8Af8wTj9weR3PjRrh5taz6YkZkqyrv/7lzve+9Y9vonTzsna4W67skTJj7UqbevkZ9JpLlW07nBlLY1Tkrp5Bmod4zv0k38bQmwfvOtVSn5VPb7JWMl68Gn/Z9chtX5D876GWEFd7owwav2m49m6sxe+cvBxpd8Zx3b4HU/vWWk7qvEdeOpvdrTuHnSA2aaDv3xZZfmZmQteEWbOec6gw+n4fct/97/CWmyjXUl8m54Ph37yb/Y0rrQ+0xnP5XGNkm/pTOkDT/vNoce2/OnXxWT+J0c6/0sVwM2EtyML6moB7s+puGV+Ta3c3Uf30VE34gYO4AAO4AAO4AAO4AAO4AAO4AAO4AAO7CMONBZOCRMnnBw2vn1zrPQqKqr2wfvv6YUwc+6zQyNWIa7d9Kmw+e1vjH3eNE6IFX4/EluVzi50JCxS9V5eaTse3eYv/WCsoDulZxJl/auXZ+eM1v3+d/aCV4bpAZJhi296XG26pfN+DwyRaG1XjFZ7X1NF8rDVmXkb3Ksrva8HL/mjgauSy5PvyF/+RKXrdeGVnx06YVj8C1XOt53W4W4DrnKdTn7XubFiuscGkd0GFb9PrbOPXhbPT67It6QOAcPO/TTsdF738id/baTjalYAF4u92Gnlc1FmnWf+6UGPOAdalc7mg/lgPlgP4qX4yB/wR/wAP8AP8AP8AD/AD/AD/AA/wA/sVz8wc+5zQkrWtSv39sd6LZ/x2Vm5N77xTZ31lJ7tg1Or4NSWdyzxPiajF17Wv7pv+5mx9eh38JI/jsnDc3ZNMaXk0sa/X1fL++Tdzv7tHmx+X9/VajNb1f1NybnJBw3W/rkYY5pvK194Z6X5mIVX/P2u96/Xb+g8o3XE822X+b7bgKucb3vVK4154/brw5GP/fdK7ufMo1+y45nXO2m2cXtMAH8sJoAryvfM7XGTQRV6NQ6/MZ4BnK7SERY+08N8aEK8IIX10WqJjw/4gA/4UByRgQd4gAd4gAelx0p+kV9sHgkoPoqP4qP4KD6Kjy0F+IOx+YPUynjuR/8sZOdQpvMe98n77+7KsKxyb8zvH7MzbXucH5udF/uFd41nfOmc1h3au+bJ85+ofX4NmtQ88sFYLXpPrO6uwR/O/JfhEmFZAjidA1wxn/ZSadsaW4Xrda+VtlkCOFZoVrVe9zquNJ6jH48bDmJSs4r5dizjyipt49iq4O/M98d5H5PAe7k6KoAr4O/B2Lp+2M0PaRhV6NWqAI6Frlkm3k86mAfWAQ7gAA7gAA7gAA7gAA7gAA7gAA7gAA7gAA7gAA6MmAOx0m86JlynzrwgbC0vZu0+x77OYlvqQy/5YDxDttQCejWes/uBmGBdvHNs45t/8c4toI9e9bu15zMOxLNjB2oB/ebH1abb5OkXDHXW7nLUbf2myysf30yswB/27NjUnnrtK5dXel8HTeJ3JxaXYlJ/Kyb1q1qvWcV7eQ0OkdlcrHC+7bQOdxtiagFd1TqdOO3c3meE7zaolGiNyfIjsQK4qvh2cA/tz9OwU/vzo3/7ayMdV/sM4Aoy3VVk9qvemeK/H+9aDTuTqtop4/65f+ZvKcpVvJPPerPerDfrTTxvKoC3/CP/XNlOeH6D3+A3+A1+g9/wfjEqwG/ymxX7zYkTH5K1U03nyabq2pXPvSmrRhvn+ksVdKmSbtuVktPvilXd8Wfd40tnEs//WDwveYdE3TgqpwdOHibtUkX8SlO7JGBFfOl7//ol6Ir7WpzZXVG+arpoDz9AorD1W9LY3v70SudbOsc5rb9hr1Y79Ir0mh1w00OvcXec6Tzq8e3SJWAnHRPf1q7/SGX3cypuyhjmXO5irMXmjFE+/8QK4MduNbJe18WOtnSGTSoFzhd/3gPe9/QxP/IdIdYHPuCj+CA+8gf8EX/IH3s+8Hzk+cjzkecjz4eej70f8H7A+wHvB7wfqPr9wMR3xsR0bPOaJcZiEi614D36j28MjbWlseUv8jOTf6Vnfikl45Y++N9qz69Mn3HhQAmnlavfFFav+3Bt4xumDXRxNnHl/mJ6Pla8/+VQ1badlcnVxP+9VrQuX/U7saL7U5Xl98LCyWHh0qjXkFfWfv89P1ppfjG1rk8t7Ie6ypsgKsx/Dls53a3XqOJr+wzgbpW6d374vlMB+nTuvDM/zI+yAtaH9VHemYoP+IAPbQXwER/xsf+zmfVhfVgf1kc/BfABH/ABH/ChtwL4iI/4OBY+purWdAbpZGxDm66UvEmti1evi1WF/SqTK34/llpTp2rNfleqeEyVj62rDn7E9uIL3e3Fewyw4+zT4vsKx5c2FAxaoZk2HaRK1m1XBeMbNqHZU7cK9NtLFfC2M5OrmP8Dzq/yH51V2cbW1Nsq30c8vrR5Ze5HYreAAa/sHOei60L6d0Y0v0oVwEUlg595RQMd6GAeWAc4gAM4gAM4gAM4gAM4gAM4gAM4gAM4gAM4gAM4gAP7nwNT3/XIMH32c8LUd8XEdGpTnaqm//26sHbDR+LPLzc7vdb894gVt3NP/61Wsrw7H7YaE9OrsTK57vmVVXI/9lU7VgJnZ9g2K85rGd/soew857TBYLcra/0ck4ZbK4drua+zT/zl7PzyQa68YvqTtYyrceKZYf6SPx6oojttglj+XOwgUFP+L6vMj1XKIZlcHAAAIABJREFUO57tHNfocmpJXZFeXRXAzb7Pfe+i7/PUe7+LPvQxP6wPfOitAD7iIz7iIz7iYy8FxAfxQXwQH8QH8UF82K6A+Cg+io/io/goPt634uPESQ/JWnk3Zhdi0nIx+3+qrk3V0+2r3viXznSejZXcWYvx0rnOqRIzJQvT+DqvesaXzuOeiWcV90scZu2yy9XmrUFWO77dxpXuZaoy365bMcBqxpfdx1j93u8M5fa4PhcHUm987TfHkiJpg8HKF95VWgOj1yevAI5/6a34v1bm22d6mA/WQ7ETBg/wAA/wAA/ynah4iId4iId4iIfigXjID/AD/AA/wA/wA/wAP8AP3Pf8wMx8mPyOU8PGt7++P+Z3HM/0mReGiZjcnDjhlLB5751hM7Uav/lzobG6NDb905nAqbJ1ezL/c2H91mvyiuQxrY+JE04NU6efHzcZHAqNqFlK/Kb7uXFLHNc+8G+pQr94v7h+W6kiv0K9mhXAnZnlTIyOTLjvyzsD6GN+WB/lnTL4gA/t+YCP+IiP+Nhv5y4+4AM+4AM+9N75jo/4iI/4iI/4mCvg/Yr3K96vtGnAH/AH/AF/wB8cqz/orAAuMs1+5jsC6EAH88A6wAEcwAEcwAEcwAEcwAEcwAEcwAEcwAEcwAEcwAEcwAEcwAEcOI440FUBXOw0Sz+LK+20KP968dn3uQL0MT+sj+3rAB/wAR/FB/FRfBQfxcduDvAH/AF/wB/wB/wBf8Af8AedHOCP+CP+iD/ij/gj/og/qsYfNe79k3gGcDq7ot/OhXSmge/pY3703tlifeADPuIjPuJjr51/4oP4ID6ID+KD+CA+bOeA+Cg+io/io/goPoqP4mM3B/gD/oA/4A/4g0r8QawAfmxEbPmEhWK/RbvS1/f02d5x3/zIV0r3CS3WT84L88P8sD7wAR/5J/6Jf+o+sYg/4A/4A/6AP+AP+AP+gD/oPNGQP+KP+CP+iD/ij/gj/qgaf9Q+A9hOGztt7LSx08ZOm0p22mzhK77iK77iK76qdFDpoNKhkwP8EX/EH/FH/BF/xB/xR/wRf1TmAH/IH/KH/CF/OFJ/mFUAd+48Kx3/2/WP3Tsxun+n7zt3atCnUwHzw/wo7+SxPqyPsgL4gA/4wH/1UwAf8AEf8AEfeiuAj/iIj/iIj/jYSwHxQXwQH8QH8UF8EB+2K3B/jI/NM4DbbWvzSjWfiza29DAfrAc8wIO8rTce4iEe4iEe4qF4IB7yA/wAP8AP8AP8AD/AD/AD/AA/wA/wA/wAP7D//cAOZwB395z2uV+ldO8e9fSiV66A+dHrDAPrw/qwPvABH8UH8WH7GTfio/goPoqP4qP4KD6Kj/wAP8AP8AP8AD/AD/AD/AA/cOx+oF0BHKma7dzxkw7mgXWAAziAAziAAziAAziAAziAAziAAziAAziAAziAAziAAziAAziAA8clB3qeAVzssOm308b3+Q4c+vTeiWR+mB/WBz7gIz722qkpPogP4oP4ID6ID+LD9p384qP4KD6Kj+Kj+Cg+io/dlW78AX/AH/AH/AF/cMz+4N4/uXCrEUt/25W/6QwDn+lRVISbD9YDHuABHuQdMvAQD/EQD/EQD8UD8ZAf4Af4AX6AH+AH+AF+gB/gB/gBfoAf4Af2vx/IzwBulm+3dhr5nJVz06PZY9x8MB+sBzxoKiBe5OZOfBAfsjOpxEfrAQ/wUHzMFMBD/oA/4g/5Y/5YPBAP+QF+gB/gB/gBfoAf2F9+IJ4BXFQAFzuX/Mx3MNGBDuaBdYADOIADOIADOIADOIADOIADOIADOIADOIADOIADOIADOIADOHB8caCjAlj7Du07tO/QvkP7Du07tO/Y/+07xGvxWrwWr8Vr8Vq8Fq/5AX6AH+AH+AF+gB/gB/gBfoAf4Af4AX6grx9QAXx8ZeztsHC/7LSy0woHcAAHcAAHcAAHcAAHcAAHcAAHcAAHcAAHcAAHcAAHcAAHcKAfBxqH/ySeARzyRZId3hSiWM3P2b9U+ux7+pgf1gc+lEwFPrbihfggPogP4oP4ID60HjrFR/HR86Xna+8XvF/xfsn7Ne8XvV/1fjnzA96vyy/Ir7Tfl3h/6P2h94c1vz9UAWyHiB0idojYKYYDOIADOIADOIADOIADOIADOIADOIADOIADOIADOIADOIADOHDf4EDzDOC0EyduUE37E1s7k3ymh/lgPRQ7FfEAD/AAD/Ag37mNh3iIh3iIh3goHoiH/AA/wA/wA/wAP8AP8AP8AD/AD/AD+9wPqAC+b2Ty7chwH+3MsjMLB3AAB3AAB3AAB3AAB3AAB3AAB3AAB3AAB3AAB3AAB3AAB3CgkRLAsZilXdHSqmxpHlmTvvQ9fYp5YX40K+Wtj+xIJ3zAR/FBfBAf8rggPoqPWScd/oA/4I/4Q8/P3h94v9LyRfwRf8Qf8Yf8cX7kqfdn3p95f+b9mfdn3p+N4f1hlgBu7wTIX1r13xnge/qYH9ZHv50z+IAP+IAP+NB7hy0+4iM+4iM+4mOvCgTxQXwQH8QH8UF8EB+2c0B8FB/FR/FRfBQfxcdRxMfG4ZgA7qhc6d6J4HPnzgR60KPXji3zwrwwL7bv5LMurAvrwrrAARzAARzAARzAARzAARzAARzAARzAARzAARzAgfo5kFUAt9rydB9Y3Nxx5ftm2x76ZDtPuto4mT9xnWRtjcwP88P6wIeCB+JntmOZfxAfxEf+gD+KHZb4A/6AP8ifl/gj/og/5I+9P/H+yPsz7w+9P/V8sP+ejyZPekiYSP//jlPD+r//S9j89s1ha3VxvP51ZiFMn3lBmDrjwtCYXQhbK4th47brwtrNnwvh8J0dx0zU6i+m58PM91wcJr/rkdm40rV1751Rty+H9Zs+Ndbn38nvfGiYPP38MBXHlq7Nb389juu6sHHr1WN/PxcOnRLHdW5oxJ+ZXvFehsV4Hyt+f7rtDOBMmVIm3md6mA/th1TrwXqwHqyHwlThAR7gAR7gQf4SFw/xEA/xEA/xUDwQD/kBfoAf4Af4gf3jB7Jk5ux82FxZCpt3f2Nf5Humv+epYTomDidSAiwmM9O4Vr/yySypOS5+TJ5xQThw4atC44RTS0+2+T+uXfehsPyFd4UQE8F1j2/m3OeG2f/y0hCaCdbuwa184c/D2j+9q/bn8aTXwSf9at9xpYTr0at+J7u3tfIgJssPXvQrWbK817V17x1hOY4rS7o2r7rGl9bigce+Kkw+KE9Kl6+N274clv/xjZXqlZ8BHP/U7W2g006MuCMnfud7+pgf3evA+sAHfBQfxEf+gD/gD/iDTg7wR/wRf8Qf8Uf8EX/EH/FH/FGZA/whf3jf9odTMamzlTIoMdG6UUp65Ryof/5PxwTdbFdCMyW/Vj73xrB2y9VdeZ56xteICbCDT/qVMBGrM3td67d8Lixf+Tt5xW1Hnqra8c18/0vDTEqy7nClhObSx/57aMSx1RXfZ6NWKVm+27X2lb8LK1f9bm35u6k4pgNxbLteMbl/5GM/G9fD1+vJL8bk7/wlf9x3fpXHm5LAa3HTQV3rc/Kkh4a5S/6kb8I8G1vUazmtz9a4Ch81mvnf9wzg7kx490OM73MFej/ctaeV73s9/NHH+rF+8AM/xQfxoVeSQHwQH8QH8UF8EB/Eh+0cEB/FR/FRfBQfxUfx8f4dHycedG6WKCknWcfpD6Z7VGimar6jMZFZtOete3wpabhTgm7tug9niaZ+lY+V5H9icu7QSz60cwIsCpUlgf/2/+tIZlapX1bJ+oO/vWsuM/2GLAn8wf+2LQ9UxfgGTrI2//DVf3pnWP3CO3smgUc5vpTEn/+xPx9Ir/Sb0qaDxXf/SC35s5RgnUx8GOSKDFn6wI+HzdhCe5T69NwEHCvdF5Jmfaq4O4ZbGtfI1+e9f3zBVnb2QGtHSldmOZ1Z5Xv6mB/NHSvWR8fORXzAR/FBfBAfxIesY4z4KD6WdvbzB/wBf8Af8Af8AX/AH/GHnZVP/BF/xB/tyR9lSc0LXxmTKIeyfElKLB35218NW3fHM1rj5yxZUvP6mj73ObHK9md7ppvyxNfzal//6ezTuQESdEdjZeZ6TFTX9fyaKn9TUnOQa/mq3w7rX7m8lvi58JIPZ2exDnrllaN/V7m/G3ZcaVPE4Xc+NzTWlva0vgZdPwef/juxvfIFg8qV/b6s6jxuOqhyfU7FxO/BVGE7xJUqbVfi/ayaH4NWchdDb2+CGO37teYZwO3/aHfmO//s+wKK9MkV6NyJYH6YH/lLX+vD+sAHfBQfymf+iI/io/jIH/BH/CF/yB/yh/whf9j2A/wxf8wf71t/PDMf5p7+29k5lb0rWetfv5Ox6rBXUjNLsn4gVmQ22/LWmb8IqaovVbTucKXE12pMfNUZ/w7+4G/1Pf+0PNR03m5qz1uLP4vVvwsv/7uBU3NFpW3Vzw8pkTlo9e/25Fx1z3epnfiwycw0mqNxQ0RKHlYWX1IV9xD3sVCo835Ww49hk6zF2A6/8bGVr89Ms6jdMNfhtz2tz5nTe9cvJoBjBXDamdl3p0zzP+77PjvV6GP+WD/40a9TAj7gAz7gAz707iSDj/iIj/iIj/jYqxOZ+CA+iA/ig/ggPowoPswcCgef/luxfes3YtvbP8mTI/vk/XZx9mhKEq7GZGGro9IYx3fwSb/aUam5Hs+LPfq3v9JZ8Vjz+GbiWbYzsdVyr2s5Jr3WWkmv+vzD9JkXhgO7tA5OSdZUabut42qF+g1TOXr4jRd2VbJWo19q252dfzrEtRgTc9s71Y52fIOc/bttyKnS9m1PrTQ/lM4jTmMb9mq1ga5ofu3lPhZ/h477WcH45i554+Dtn0vCdlbCj3Z+pfm752R+R4V+kfQ9tvG1KoCLPan5ToGeXaujRO0/tN/pI/59+pk/1g8+9D6dCB/xER/xER/xsdfpbeKD+CA+iA/ig/ggPmzngPgoPoqP4uOxxMfijM+teNbj4ruel73X3i/vv4ukRdFWtvvvOQ7+dZ+j2a4UHR+fD/5g/7azKem1Es8+rTt+zuzQ/rlV+Xj3N+I5oymRV5+/OfSqfxw4b1gk5aoeX6omHzYBXE5OVzW+2e//8ZCSrcNeqWq0yvzYXseVr4V0Pm8+30bNj73cx3al7YXb1sEoxzfU+b+lG56q4BPjquLHXpPmaVybcVyj9D+NbWcAd2fife7c2UEPepTP7DAfzAfzof9OVevD+rA+rI/i4QMP8AAP8AAPelce4SM+4iM+4iM+9qpMFR+OOT6kSs2JeC5qakO6dnNsj7qPeDtx2rlh8oEPjW2CP7Rv5v/MI58Xz7V9VStFUiSVelZO1zQ/dzpr98gHfjxs3P312vUbpLJv21meNeg1//x3honYMnu3K9sQkc6MrWE9NE46M8z/WErSD35lyemK9Zo+J57h/NjeZzj3G+lmM6lf5XrYab7vpOBq3AiR1mvfTgLHqGfjxHgf4/wa+oot2hdjS+Mq7+deK4Cr5sfECaeG+V1axffSM6tM/vd4RvcI12fWAjr9Ye3Me/5H+1zstKSH+WA94AEe5DuP8BAP8RAP8RAPxQPxkB/gB/gBfoAf4Af4AX6AH7gv+oHpM2LSPFZtbsbE6tpXPjn+/EBs4z3//D8PjXjubvlKCdZ07um44nFKau6UbO08k7UeXs5e+LN922WXtUv3dfmq364t/5OdATzgOahF2/Gq+Zru3bCJ6XK79qrGN3Fob0nDVG2eEtRVrodDL//kwPex0KeO+7mXpHneFSJugmh1Qq4mng3Tlj0bQUyYpzbjo55f7QrgYieAn3mGnQ50MA+sAxzAARzAARzAARzAARzAARzAARzAARzAARzAARwYDwdmD8VqzVeFyVjNna6U/F35fzEpPMb7kSq4534oJlF7JDbX4rnOy/8Yz5yue3xRp17J8o7MearIfOfzwtbK4drGN/tfB2+3vPT+l4ate26uZZ7NPXu4s2OXYhv5zXvvqFy3YceVtWr/6KsqH9cw97GYc0c+GtsZ3x7bGVcYP/dSaduqmK5wXGn9Tz384nDgol/tWII7fahqXK0K4IFH4jdSgAIUoAAFKEABClCAAhSgAAUoQAEKUIACFKAABShAgfuhAqkq+UBsIzz1XY/MEsGpAjO19E4VtuO6ssrWmNjsWXEbk79LMVGYxln3deBJvxqmv6dd2djrz09VyXVqt6NWXQNsn7FbvXLDjCuNpqj+rXxkcY6nuTVIm/E0lnKledVjmzn3ubF9/WAtvbNW3nEdpGrbOq5BW1RXOa5mBXA87jh2I+i/M8X39DE/rI9+lfH4gA/4gA/40HtHIz7iIz7iIz7i41aP52zxQXwQH8QH8UF8EB+2c0B8FB/Fx2OOj7ESePp7Lg5TZz42TJxwSqxavTNsxDNFU3J6a2VxbPmfrII0Juq6k9OpHe/yP/xJ2Lj1c7Xnp7KzbZ/TJ2HezA5myd+s4rw+Pu1UYd5KWsYEZtJt/auXNytsqx9f48SHxMr339nWkr07kZqqko/+za92VZpXO760GWM6za8drpRkTePqXcld0fjiejz49N8Okw86t+/I0rhSFXdV6zOvAE6t6OMkbl1ZMjj+pYtf8D19zA/ro8QDfMBH8aG5IMRH8VF8FB/Fx1wBzw+enzw/en72/qDFQ+9XvF/yfq39vOT9gfcH3h94f1A8L4iP9/P4OLsQps+M50yfcGoGxuys6djSe6zzI1a2zj7yeWEqnX8dK6izKyZX127+XFiP1dzrt315LONrLMQK85g0n+pROZ0SrMv/8MexXfY36n/+iHplydZeFd1Rt3RW8soX/nws7wem4txKY+s+Mzzdz9Uvx3HFTRCtyt+a319MP/ypYfo/Pa0jEdzRNaDC98tdFcDdme7ic/fPYqei7/OdWfTp1MH8yHeyWh/WBz7go/ggPpQ5ID6Kj/wBf8Qf8of8IX/IH/KH/OH2SirxUXwUH8VH8VF8FB+3xceYNJ846aGtPENKmndWio4pfsbK1qkzLggT31FK5sek+X6I7yEmzyfjuIr1tB4r4O/PfO2sAC4yzX7mFU10oIN5YB3gAA7gAA7gAA7gAA7gAA7gAA7gAA7gAA7gAA7gAA7gAA7gAA4cRxzoUwHcb+eAX++9I48udOm1U9G8MC/Mi/6VXtaH9WF9WB84gAM4gAM4gAM4gAM4gAM4gAM4gAM4gAM4gAM4UAUHsgRw1si82LlQtKL3Od/JQI9cAfPBfLAe8AAP8VA8EA/5AX6AH+AH+AF+gB/gB/gBfoAf4Af4AX6AH+AH+AF+gB/Y936gVAGcziQrzqYr/ywy776nj/mRn11ofbR1wId8Zw4+4iM+4qP4ID7yB/xBwQH+iD/iD/ljzweeDzwfeD7wfOD5wPOB5wPPBzkHPB95PvJ8NK7no/YZwHZu2bll55adW3Zu2bll59a+37mlM0VTAbzCK7zCK88vnl88v3h+4Qf4AX6AH+AH+AF+gB/gB/gBfoAf4Ad6+oFYAXx+2oqSNVnvvUOztUXD9z0rpOlj/lg/+IGf4kevHf7ig/ggPogP4oP4ID702uksPogP4oP4ID6ID+LDdg6Ij+Kj+Cg+io/io/goPnZz4Fj8QfMM4LRFIm2VKa7ipXXps+/pY340FbA+cujgQ64Afoof4if/wD+1eCg+iI/8Qdsven7y/OT5yfNT8bwgPoqP4qP46P2B9yfeH8k/eD7wfOD5wPNBzc8HWQVwkVE+lkxy2png37dTzU41O9XsVLNTzU41O9VGuVONv+Cv+Ev+kr/kL/lL/pK/5C/5y04O8Ef8EX/EH/FH/BF/xB/xR/xRmQO9/GFXBXBRyeZn+/CE4hABP9uVjuaH+WE9WA84gAM4gAM4gAM4gAM4gAM4gAM4gAM4gAM4gAM4gAM4gAM4sB85kJ8BnLUfaO+Y8Jke5oP10OoMgA/4KD7EDVT5jjLxUXwUH8VHPMBD8UA85Af4AX6AH+AH+AF+gB/gB/gBfoAf4Af4gf3uB5oJ4NR4usjQF43IfS4dUkMf86N5Von1kSuAD/jQOsTKfLAe8LF9KLr1YD1YD9ZD6Vwrfolf4pfaC8J6sB6sB+vB+xTvU7xP8j6NH+AH+AF+gB+o0w/kZwDHl3VbrYPo484Nn+lhPrQr/awH68F6sB6KSng8wAM8wAM8yDtj4CEe4iEe4iEeigfiIT/AD/AD/AA/wA/wA/wAP7Bv/UCpAri0Wd0/UoACFKAABShAAQpQgAIUoAAFKEABClCAAhSgAAUoQAEKUIACFKDAcadA494/imcAp+4L8Wrv5C99Tmce+p4+5of10drJgw8tXuKj+CA+io/io/goPjZ3uvIH/EHzeZI/4o/4I/6IP+KP+CP+qHQsSPa+mT/gD/gD/oA/4A/4g9r9gQrg4y5nb8AUoAAFKEABClCAAhSgAAUoQAEKUIACFKAABShAAQpQgAIUoAAFeivQTgCn87dbO3E6jyPP/lXf08f8yJZCkqF8XL31gQ/4KH6In7nJwEfxQXzsMtz8M//MP4sP4iN/4PnR83P3+zj+gD/gD/gD/oA/4A/4A/6gUwH+qBJ/pALY1gAKUIACFKAABShAAQpQgAIUoAAFKEABClCAAhSgAAUoQAEKUOD/Z+/O4yVL6zrPP5HbzazMm/QfFlJQ+AdLIYvdVBYti7LITCOytSgNJai0gija7YLa40x3w4hLo6y204oCpcgiILYim+K8oAqGBmesKntGYKwC/rCwCimGIvPmcnO7d57nPOeJcyLixM2bVRlxIjLfwQujIqOkTn3jeT6/zznPJoGLJIF4BvDj4hnAeepZtXKnOpPBZ3loD/oDHuCheqAe8gE+wAf4AB/gA3yAD/ABPsAH+AAf4AN8gA/wAT7AB/gAH1g2H7AC+CIZyfevIQEJSEACEpCABCQgAQlIQAISkIAEJCABCUhAAhKQgAQkIAEJSKBZAVxW/nrPK6DlIAftQD/AARzAARzAARzAARzAARzAARzAARzAARzAARzAARzAARzAARxYMg5YAWwSgAQkIAEJSEACEpCABCQgAQlIQAISkIAEJCABCUhAAhKQgAQkIIGLJIEtVwAP4oyG4Z7WHSPbvpeP9lGfgaJ/TMwAwwd8wAd8mLajBj7gAz7gAz507ziEj/iIj/iIj/jYtSOd+qA+qA/qg/qgPqgPkxxQH9VH9XHr+phXAJfBqzKq7XMezJJHTkB70B70BzzAQzxUD9RDPsAH+AAf4AN8gA/wAT7AB/gAH+ADfIAP8AE+wAf4wFL4gDOAl2zPbmcTT5/R4OxmZ1frH/oHDuAADuAADuAADuAADuAADuAADuAADuAADuAADuAADuDApc6B0RXABkMdZO4gcweZ4wAO4AAO4AAO4AAO4AAO4AAO4AAO4AAO4AAO4AAO4AAOXAIcGKx+Y9hx8IqwY/U+YWPty+Hsl25eiN9990O/K+y839Xx2uJ1HUnXdVM4/cX/I4STa71eX7quXQ94fBisHKhWwW4cuSOc/tyfV9fX56B7+h13P/AJVWbp2s7eeWs4+w83hzNf+ESv15UGoXdc/uCw636PDGHvaqwrIZz54ifCRry+Wec1OPyGx22mvdLLSHjaM9tneWgPeYaU/oAHeIiHeIiH6oF6yAf4AB/gA3yAD/ABPsAH+AAf4AN8gA8siw/suvJQGOzZHzZPHQ1n4iDT4NSx3sd/yqDhriuvDpsn43Wlwcw4aJje++JrGpTb+4SfDDtjXiOvOMB68tNvCaf++3t7GR9Iv9++f/G/hEEclJ54xWtb//h/Dqc/+6G5j1+kvC57xn/qvq54oWkA+NgH/ude2ttK/B33PPK5k3nV13XiL38lbK794/x/z9gP98fMJtpYfV3H43WFeF2zqi95C+j0KoPAJSKfc+jyyAloD9qD/oAHeIiH6oF6yAf4AB/gA3yAD/ABPsAH+AAf4AN8gA/wgRBWVqsVfWl15pl/+Juw8dXP914fdj3g2+OA5k+NDtC1BjN7Ge+IKzHToGHXAFhqRqdufnc4GQc05z3+kAYz93/vb1a/47TX6c9+MKz/5a/Otb/veuDjw75nvGrqNZUv1uPAYTUIPCcebyevdClpVeuxP/438YetJx3M4fr2PuXfh90PfdrWmcV+cPSd/zpsxpXUcxvvioO/qz/03i3bWFrNfeyP/+3M+OEMYNtYzHyZ+ayXsfvft5f/pb6Xv39/Z5rgIA7iAA7gAA7gAA7gAA7gAA7gAA7gAA5clByIgyg742Bdat9nb//vC7Et9664zWxaodkePEyrH49/IP5ZT9vzpsHfrQYOT/3VdeFk/O+8ObHVyswyYncirho984WPz2+cIg76rv7QH209MFdf3IkP/ELcrjduuzyPcaTzuK7Uzo6+84figOYdc8ntsjhYnrZW3s6ramtxBfU8eHSudt++3qqPxsHWeVxXai+XPed/21Zm1aB5HJyexXXFM4DjCuDWQtcQXcnnVrOQh/agf7RmEuEDPuJjM7NOf9Af9Af9oU6AL/JFvsgXhzPb+QE/4Af8gB/klTV4iId4iIf3nIfjqw6HqwvjFsJ95Vtd0/N/v3Mc7NTfvCeuZv2N+d8f7TmwrZWGa7/3nLgyM2Y3p/uXrbIaCTAOZq698an5j+ZQP9JWwStxpfR2XmmA9WjKbQ6+v+fq7V9Xupx5tbcd3zC9zXdmOMffc/8Lfj+k69vuKw20Vmfvzvj33Hbbr69juKL7Arf/+gzgWsqGZ576XEFQHvWe6NqD9qA/4EE58wsP8AAP8AAP8hmAeIiHeIiHeIiH6oF6yAf4AB/gA+fvAzvitsE747bBp7/wiWqb1IWop61teqtVcv81rpJbgOfjB374j8Ng9T4jYzunP/ehuC1vPDezp+vbG1f+brXd7JE3fmc8A7UeZJ3T+MLu89g2+FTcNnhe9XvlMS8Kex79w9samzsetw0+G7fSnkd/uOzz6+BKAAAgAElEQVSZrwq7HvD4bV1X+puO/t735q2DZ/x7bnfFaLnws/9wczj23n8z899z73n8juXa5vV7rv5kXJ19Hq/1OEHjdJyoMWt+rDx6+20/XX7m2q9e8PbfnAE8HtL4SLPvRxOQz+hMIe1D+2gnoH/oH+2ZhPiAD/jQJICP+IiP02/N9A/9Q//QP6YlgA/4gA/4gA/dCeDjUvJx9aV/EUJcsZlWip66OQ5ELED7Hl95mAdvbu433zgovfpjMaux18ZX43ap7/jXkytF5/T86VyDdFV2X4rZzbF/bnegdbg1b8pqDteXtqTe7kDrRH+Y4fWd6zccb0rD33TGz7fO97rSNtDDldMzbP8rT/ypkFZNn89r4oziGVzfea9MjtfQbE8dP8zQL/ed5ySDxNvjcTB/+LpA7b8+A7jZwjyPfNf/8q33ssW57+Wjfegf4xzAh7xFPz7iIz7iIz6OckB9UB/UR37Aj/gRP+JH/IgftTnAD/khP4zHjsatZ3fHM2RPx5WYJ/8qnpNZP4/vs38M4orkAy94azUwnV4Tg5itI7bn6XdlsLw9dnTmi58I6VzWvurLZd+79bme1WrRtbhadGycZZa/765trgAeDrLOafxnuwPT6fc9FgfON8qkgxlf3/kOtKb+cCYO6s+aX/u3eWZs6Q/DQcMZ98/z+R3LtY1MIpnh9a3+5CfPZ1w6DwC3uDsr/p7vCuBpXLun1zd9BfB5xeZvloAEJCABCUhAAhKQgAQkIAEJSEACEpCABCQgAQlIYCkTiCtud115ddh5+VXh5M3vDqF9zm5P/0ITA09xa+Xj7/+FvMK2p9fuhz0t7P0X/77znz5cnTzna6sG8H/oj8/5T504//Sc/x/37G/Y7sB0+qesxa2z59XmzmtFa2xza78dr20Or/O6rng91bbBH4nboc/4dT6/Y7mU4bbZM762rm3it/pHpskjZ9L2+zN+bcWJrn/0OXeEuJvXG88AfuzmoJqKF1/VSHw8w8ZneWgP+gMe4KF6oB7yAT7AB/gAH+ADfIAP8AE+wAf4AB/gA3yAD/ToAzvjWa27rjxUDQ6e/sLHw9k7b+n999j3lP8weQ5wHCg8+o4Xho0jd/RyfedapVnOTp73+M+5VkwnzWhvyzuP69tx8IptDZina0urRU99+rq5+OB2B/LLWGBemXzT7Nvbymq1Q8D4edzTxiRHVybPdrwxnTGdVttu55VW5q9d9z2zz6vm5bYHp9Mkg+u+N3aEoxfcN6wA3k7L8PdIQAISkIAEJCABCUhAAhKQgAQkIAEJSEACEpCABCQggZhAWuG3K27lnV5n4yDcqbil97xWsHb+AHEF9954Vuvuhz5t4utqQC6unO7j+nZc/uCQtjYu24uPX1xfq6bHz73uyrS6tnQu6xxXw59rIL9c57xW/5Z/3rZXAdcTITaPxG3Q5/GK7T61r3Qe8Lle81r9W65jZ9xRIU2AONfrnOcln+t/YIvv4wDwY+Nu9IO4lXQeiR9/L5vV+14+2of+gQ+jHMDHfJiJ+qA+qA/qg/qgPrQ5oD6qj/yAH/FDfsgP+SE/5If8sOEAP+bH8/TjHVc+Mp4x/cS4lfeDq9XIZ+Kq6bTlbZ9+NogrbtPA5sjgdBwoPHXze+J24++KA6zHerm+PQ97ejVo3jU43Qyar839+WfnCvPWIF8a/D3xkV+uV7LOr39VeU3Z/ry6vDT4+96fCJt3fn74e86Ff3GF8paDwPG6TtzwhnDmsx+e+/hnNXAedwzonAARr2s9Xtfpjusq/fWe5mcF8D0YPff/KgEJSEACEpCABCQgAQlIQAISkIAEJCABCUhAAhKQgAQkcI4E4mrNNDCdXn2e4zxylfGa9sTV3GmlctoaOl1X2mp8485be/050+rRtMp8d1plvudANbh6Jl7bqXg+d5/ZpZzSYP6uuDX78BWvLWW2fsNvzHW19PgPVOUV/7vzfldXX6Utn9MW2Sc//ZYwtxXJXa2mbmNlx4DS/udx1vrg8OvjGcCDdAbw6EyB4ed0xoPv5aN9xDbQMXNP/8AHfMRHfMRH9WFyZqf6qD6qj+qj+qg+qo/qY73TnOdL9fM2fsSP+BE/4kf8iB/xo4vIj9LK7o31tTA4dQzfF5Tv9QrgLKNFypv3Mlzte/loH/rHOAfwISeAj/iIj/iIj6McUB/UB/WRH/AjfsSP+BE/4kdtDvBDfsgP+SE/5If8kB/yw3n74eBwPAO4OpOhnok4bS943+eV0PLpPstI+9A+9A98wEd87DrrTX1QH9QH9UF9UB/Uhw4OuP92f+35gucr9QqgiTqJD/iAD/iAD9XZpvg4dh+hPqgP6oP6cJ71obUCuMzG65qJkUbmfZ8TkE/3jDXtQ/vQP/ABH/Gxa0av+qA+qA/qg/qgPqgPkxxQH9VH9VF9VB/VR/VRfRznAD/gB/yAH/ADfnDh/GB4BvBwRs34TBKfR2eWyEMe7Zk22oP2oD00M6/0B/1Bf9AfykxEPMADPMADPMgrV/AQD/EQD/EQD9UD9ZAP8AE+wAf4AB/owQfiCuDH1st7y8yC1mLfkb/0fZ55IJ/uBLQP7UP/wAd8xMeuBNQH9UF9UB/UB/VBfZhMQH1UH9VH9VF9VB/VR/VxPAF+wA/4AT/gB/zgwvlBswK4zETynmckyUEO2oF+gAM4gAM4gAM4gAM4gAM4gAM4gAM4gAM4gAM4gAM4gAM4gAM4sGQcaK0A3mJxq68kIAEJSEACEpCABCQgAQlIQAISkIAEJCABCUhAAhKQgAQkIAEJSGDhE6hXAMfNFeLuAs3KV5/loT3oD2UlPB7gAR7gAR7knUHwEA/xEA/xEA/VA/WQD/ABPsAH+AAf4AN8gA/wAT7ABxbfB6oVwLmztgar01bzrc++l4/2oX8ME8AHfFQfmu6gfvIH/tQUSPVBfVAf1Ic6AfeP7h/dP7p/dP9YgOj5mueLLV12/+j+0f2j+8eSgPtn98/un90/z+H+eWwFcJm54r08tPCeH17IQQ7agX6AAziAAziAAziAAziAAziAAziAAziAAziAAziAAziAAziAA4vPgXwGcJlx4j3PPJGDHLQD/QAHcAAHcAAHcAAHcAAHcAAHcAAHcAAHcAAHcAAHcAAHcAAHcGAJORBXAD9mM+/VXWYspDMMfJaH9pBnsOgPeICHeIiHeKgeqId8gA/wAT7AB/gAH+ADfIAP8AE+wAf4AB/gA3yADyyPDwyOvD6eAZyOJCkzGMoCWJ/zjAZ55AXR2oP2oD/gAR7ioXqgHvIBPsAH+AAf4AN8gA/wAT7AB/gAH+ADfIAP8AE+wAcW3gdaK4DLzAXveQaDHOSgHegHOIADOIADOIADOIADOIADOIADOIADOIADOIADOIADOIADOIADy8WB5gzgauZWvvhm5avP8tAe9IeyEh4P8AAP8AAP8s4geIiHeIiHeIiH6oF6yAf4AB/gA3yAD/ABPsAH+AAf4AML7APNGcDLNXJtpoHfy4wjM45wAAdwAAdwAAdwAAdwAAdwAAdwAAdwAAdwAAdwAAdwAAdwAAdwYJQD9RnA8Q/jf/LS39hIhitbWp99Lx/tQ//AB3xUH+qdMtTHoS/wA37AD/gBP+AH/IAfVDuJ8SN+VD9P4of8kB/yQ37ID/khP+SH/Nj9QeMDPfmxM4Cd9VsVIzMjzJDSDvQDHMABHMABHMABHMABHMABHMABHMABHMABHMABHMABHMABHFh+DsQVwI+px+HL+t+yErh8Hn/3fTkkOc9vls9oDtqH9pFaBH7gAz6qD+qj+tjmAD/gB/yAH/FDfsgP+SE/5If8sOEAP+bH/Jgf82N+zI/58Yz9uDoDuLUtRzWzw+fhNh3y0B70h2ZbeP1Bf9Af9IdyTAQe4AEe4AEetGaEu39y/1Rvc6g+qo/qo/qoPqqPwxVT/IAf8INm50n9QX/QH/SHshMtHsyNByMrgKtle62Vez7LQ3toZmDoD/qD/qA/lJmJeIAHeIAHeJBnKuMhHuIhHuIhHqoH6iEf4AN8gA/wAT7AB/gAH1g8H8hnAJcRd+955F0OctAO9AMcwAEcwAEcwAEcwAEcwAEcwAEcwAEcwAEcwAEcwAEcwAEcwIEl5EDHGcDT9p7359170stFLl179WsX2oV2MXmGg36hX+gX+gUO4AAO4AAO4AAO4AAO4AAO4AAO4AAO4AAO4AAOzJwDh18XVwDHf8q0A7erM4x8L5+4er3rQG7tQ//AB/xUP/BRfRjnQDz7jj/xR/7Mn/mz+4fW8UrZl9QH9dH9o/tH94/uH90/un90/zjKAX7Ej/gRP+JHs/KjLVcAj+/ZPX4Rvh/d01s+oxKrfWgf7TNg9A/9o32Thw/4gA/TZ7rqH/qH/qF/TJsJjg/4gA/4gA/dK0XwER/xER/xER+7VtKpD+qD+qA+XMr1oT4DODaCaqVKnHHTOVPd9/LRPvQPfMDHKdtyqB/qJ3/gT/yxY6Ujf+bP/Jk/82f+zJ87t7Vz/+D+wf2D+wf3D+4fJnZKcf/k/qnf+6cd97u66pdn174cwpE7Jjndg7/svPzBYdcDn1CP4m+GM1/8RDh7562982PXlYfidT0+7Lz8quraznzppnDqMx8MIWbXt//vjHml3KrX+lo4FTOrfs8efr8RD96zP+yKee28/6Fw9rabwpmvxt/x5NEmrxldnzOAu4rNNAnx591wkYtc9KPpxU3/0D/0D/0DB3AAB3AAB3AAB3AAB3AAB3AAB3AAB3DgEuZAGjTcc/Vzw46DV4TNOPC1EQfl1j/9lu7B1jnmtPcxL66uK6ys5kHDNAgcBzTXb3jD9MHWWV/fyoGw74k/HXY/7OnDa2pf27H3/0+jg4ezvp7yv7/FdVXjrde/Ppz+m/f00s/ToO9lz/y1MIjta/x16uZ3hZM3/EYv15UGgffENrYy1sbSNZ789JvDqdgHZnoW9OHXPTqeAZxmJscZFsMziXyWh/agP5QzOPAAD/AAD/CgmSmoP+gP+oP+UGam4wEe4AEe4IHnSe6X3S/zAT7ABy5lH6hWQMaVfRtf/Xwc1FxbiPGVPY95UdgTBw6rgbB4TSdvelc49VfX9Tr+s+fhzwh7n/IfJgbm0vUd/aMfD5spvx7Gp/Y95eVxkPVpk9dVjc7Fa3vHC8PG4dvrnTvmx/vLnvXrzcrfjqtLA9TH3vvjc29vW+ZVX+eJv/ilcOZzH5rr77njXvcNB17w1pFB/PHYhoOtw5W28/k9U39ciQPA016nbn53HJx+w8zyqlcA1/+yw6toPudlyr6vZEY+dQLaR2kP+gc+4KP6oD6oj/ygCBI/4Aft7W7VB/VBfVAf1IecgPqoPqqPzcoWfsAP+AE/uHt+sOPKq+OA3NFqReZC1NeV/WH/M3897IyrWqtXHCxcjysMT302boPbY/1fiatG91z9vImxpjNfuCGceP8v9DK+kVZm7n/BH0wdANuMK4HX3vEDcUXrsble3+4HPjHsiytGt3qlgdbj7/2JuY6PpS2f00rWc73SoOHJOHg4r/GJXVdeEy57zn8512VVfeHIdc8e/p7zuL50XcO+uMUVHn3HD4aNiiHz8fNBbPsHtmj75VLTYP7Gl26eTfsfrgAuI9/e84wOOchBO9APcAAHcAAHcAAHcAAHcAAHcAAHcAAHcAAHcAAHLjAH0oq14cpC7Wt6+9q7GvbHwZ0d9Vmjp+MAa1ph2Pfz+2krNI9e9z29/a6Db3hQOPD9b5s6/HUsrrTd+Ic4yDTn9pYGWYfn2E65umowM65Unufvuu1Bw7f/QF6hPKfctntdG3feEo7FFcrzuq60grtrS+qun3T9I78czwT+wFx+z7B6n7D6oj8598B0/DvSdsvrn3rTXK4r/S57n/QznRMyxi/2zBc+Ho7/2b+byXWNrQAuI9/e84w8OchBO9APcAAHcAAHcAAHcAAHcAAHcAAHcAAHcAAHcAAHLgwHVn/4T+P2vPeJgzc/GFe03pK3cV2A59B7H/Mj8azKF4VqMOL9cTBiAa5rV9yed99T/uPIeEk1yHokbsvb4/Wt/vSnOgec1m+IZ6DenM5AnT8vyu83bSSsGvz6dBz8mnNuB1/6v8eteQ9sOUCX2tyJeK7tPHM7+NOf3tagYTWY+dk4mDmn3LaTV7nwI294zNyua/9zfjuuso0r8bfxas62nX0/2M5K7nLJkyu6Z3t92x3MT6vgE9dm0v6tAK7P7JnTDI55zcjwz/G7znPGlPamvWlvdo7AARzAARzAARzAARzAARzAARzAARzAgXNzoAwerr3l2SGsfXluK/jO1T93P/K51Yq1ea8s3Oq6us6OPfJb/2MYnIrbBff4PP/gz3QPHvaxkrXkUH6/aeNzE2egzim/1Zf+5TkHgE9/9kNxZfcrZ7ICclo7mTaIP57f8EzbBcqrXOPaGx47t36w3cHMdG3zXGm7435Xh/3/6re2MSwdwtm4zfKxP3rp3NrZ/n+1vUHzzSNfDmtv+e6ZXNfg8OsfnQaWhwdZV0n5LI+0rUnZdVx70B60B/0BD7JI4CEe4iEe4iEeqgfqIR/gA3yAD/ABPsAH+MDd9YF4duzOuJ3x5vpa3lZ2wXgyuPxBYbCyGs7edtPC1PsDL3hb3AL6wRV3qi2gP/JLvbe/y+L5vxPbGsczitNZtmk1Xx/Pj3be+6otz9pNZ9me+dKNc+d3Z1Zjw3Xr18eV03+TV07P6/nbdgfnjsbfdOMrt86tP+x/zm9t6zzbdJZturZ55bXvO18et4B+2rYGWoeD5nP4PQcHrwirP7y9LaDTJIj033n1z2lnco+H2F4Bf6F/z4EVwGbmmZl37pl5fc4o8/v4fbQ/nMYBHMABHMABHMABHMABHMABHMABHMABHLhUObDr/teEjfUjcz2Ldcv+Fs8mviyebbvzykN5LCcO/p6Ig5hnPvehua3I7Lq+aWeOzvKM0XNx6VxnE1fb38bt0NOkiHm2750PeHxIZzlv9Zr3itH077+d60rXPBw0n9PK5G2vtE0TIa579lx/z20P5s/5jO5zTcooba+anHHbjTNp//EM4EenPhqXAJeVTXEAvJrBNPrue/nkmRHah/6BD/ioPrQ5oD6qj+ojP+BH/JAf8kN+yA/5YcMBfsyP+TE/5sf8+FLx47B6Rdh5ryvi4M1NCzO+snLoeWHP1dfGc6avqFYjp1XT65+Kqx57HP/Z9dCnh33fOXqWcxk4P/bel4azcYVtH9e3N54vvfthT+8eA04DmW+PK2zX7qjGy+Z5ffu6Vpi3rjKfZfvjI+N487i+dB731Lzq61uPK/RPfeaDcx1fTP1w9fvftuVW49Xq39gP5l2f9j72xfFs9RdPnWdw6uZ3V4P5M/v9rAA2c2yeM2vONSPI99qj9mhGMw7gAA7gAA7gAA7gAA7gAA7gAA7gAA7gAA7gAA5cPBxIK0jTmc47Dt6nGk09e+ctIQ1+bRy+fSYrH7fLjz2PeVFYiQPmYeXAcJAurfw9cf3r+ltxHleYr8RBwz1XP29i4LDaLjgOss57xXTJc+q2xnHAfP2GN8TB3w/08numleb7n/XqOPEhta/RVxlk7YsnK4eurX7PdhtLuwZU1/WpN800r2oL6BRHGfku0ficZ2rJIyegPWgP+gMe4CEeqgfqIR/gA3yAD/ABPsAH+AAf4AN8gA/wAT7AB/jAxeYDu+5/qBoPSgPTaXBuEf790srW3Q98QhjEAeG0gPvU528I6ezfvvtfOpN7z4OeWG2BvhmzStsXn/nix+Ngfjz/un71lV86mzttvZzy2ojbip+OA+ZpJXxf19POY8f9DsUJEFeEjXg9G1+9JQ7iH515XmNnAJftKcrMEp/zdhXyyDM8tAftQX/AAzzEQ/VAPeQDfIAP8AE+wAf4AB/gA3yAD/ABPsAH+AAf4AN8gA8ssg80ZwAPh6LjX2yx8rXsRT1tJN/38tN+ps8E1T/0D/1D/1A/u2dK4yM+4iM+4iM+ds1kVx/UB/VBfVAf1Af1YXKlofqoPqqP6qP6qD6qj+rj+MrmCT84/Lpv3cwj1E1Yowchl7MGfN99QLR8tB/9Bz/wER/LjMf2u/qgPqgP6oP6oD6oD5McUB/VR/VRfVQf1Uf1UX0c5wA/4Af8gB/wA37ADy60HzRnAI9OnJrcE9v37YlV8qm3g56ycFw+8hk9Qxs/8KOZmIkP+IAP7Z1W8BEf8XH6mTf6h/6hf+gfdQITZ3bhAz7gAz7gQ5UAPo6dya0+qA/qg/qgPqgP6mNznGuzAnh8plX5PP5e5ML3zd7e5cyL9kwl+cin3S70r9GZjPqH/qF/5LOC1I8mB36RH97gIz7iIz6qD+ojP+AH7h/dP3q+1KyA4cf8mB/zY37Mj/kxP+bHd8ePhyuAW5Nj/KUEJCABCUhAAhKQgAQkIAEJSEACEpCABCQgAQlIQAISkIAEJCABCSxhAnEAOJ4BHE8G3oz/Gc4k8Vke2oP+UFYm4gEe4AEe4EFemYuHeIiHeIiHeKgeqId8gA/wAT7AB/gAH+ADfIAP8AE+sAQ+UK8ALg81yxB2Opwu7kM4fPk+P/SVT05A+9A/8AEfGx7io/qgPvIDfsCP+CE/5sf8mB/z4+ID7g/cH7g/cH/g/sD9gfsD9wfuD9wfuD/o//5gdAVwmbniPc9gkYMctAP9AAdwAAdwAAdwAAdwAAdwAAdwAAdwAAdwAAdwAAdwAAdwAAdwYIk4MFwBnGdklJkp3uWhPegPOIADOIADOIADOIADOIADOIADOIADOIADOIADOIADOIADOIADOLBsHBgcfu23psN/q8HfzhWv8UwD38tH+9A/8KE+K709wwcf1Qf1kz/wJ/7YNfNTfVAf1Af1QX1QH9SHyRVC6qP6qD6qj+qj+qg+qo/jHOAH/IAfzMwPqi2g807UZQZH2Zfa5zyjQx7ah/6BD3iIh+qBesgH+AAf4AN8gA/wAT7AB/gAH+ADfIAP8AE+wAf4AB/gA8vhA80ZwHGmxSCOtE89+9b38tE+9I8tZmriB36qH9N3CtA/9A/9Q/+YtpMGPuADPuADPnTvtIOP+IiP+IiP+DjBAc+nPZ/2fNrzac+np+4kwJ/583jdbK0Abi129ZcSkIAEJCABCUhAAhKQgAQkIAEJSEACEpCABCQgAQlIQAISkIAEJLB0CdRnAOfrrmbWVXuu+ywP7UF/wAM8VA/UQz7AB/gAH+ADfIAP8AE+wAf4AB/gA3yAD/ABPsAH+AAf4APL5gNWAC/dmL0LloAEJCABCUhAAhKQgAQkIAEJSEACEpCABCQgAQlIQAISkIAEJNCdQLUCOG6dH1f+xhkc3uWgHegHOIADOIADOIADOIADOIADOIADOIADOIADOIADOIADOIADOIADOLC0HLAC2NQACUhAAhKQgAQkIAEJSEACEpCABCQgAQlIQAISkIAEJCABCUhAAhdJAnEF8D/fzFMYygrg8hc+5xXR8tA+9A98wEM8VA/UQz7AB/gAH+ADfIAP8AE+wAf4AB/gA3yAD/ABPsAH+AAfWA4fyCuAI7PKQfbVwLbP8ogMG760B+1Be9AfSgJ4gAd4gAd4kBPAQzzEQzzEQzxUD9RDPsAH+AAf4AN8gA/wAT7ABxbUB6oVwIM4dauZuZMWBPssj2Zzf+1Bf9Af9Idy2AUe4AEe4AEe5MNv8BAP8RAP8RAP1QP1kA/wAT7AB/gAH+ADfIAP8IFF9YHRFcBlpoL3PGNBDnLQDvQDHMABHMABHMABHMABHMABHMABHMABHMABHMABHMABHMABHMCBJeJA6wxgMzXM1DBTY1FnaphJhk/4hE/4ZGa5meVmlvMBPsAH+AAf4AN8gA/wAT7AB/gAH+ADfIAP8AE+sB0fiAPA8Qzg4YnNrUML4jbQ1QrYcsiZz/LQHvQHPMhbA+AhHuIhHuIhHqoH6iEf4AN8gA/wAT7AB/gAH+ADfIAP8AE+wAf4wIL6wMgK4DJzxHueQSIHOWgH+gEO4AAO4AAO4AAO4AAO4AAO4AAO4AAO4AAO4AAO4AAO4AAO4MAycaA+A7i1aXU1Uu3zcDN7eWgP+kOcxVUfbqA/6A/6g/6AB62ZrXxJfVAfm50x9Af9QX/QH1oPg/gCXxiuhFEf1Af1QX1QH4aDBeqj+qg+Novu9Af9QX+YeX/YcgXw+B7S4yPbvh89c0I+ozOAtA/to30mif6hf7RnyOEDPuDD9BmT+of+oX/oH9NmFOMDPuADPuBD98ojfMRHfMRHfMTHrpWZ6oP6oD6oD5dyfcgDwNWrnpFXjv0drvQb/kGekeD7Oq6yUlo+2o/+gx/4qT6oj/ygToA/1Tsl8CN+xI/4ET/iR/yIH/Gj/LjN86O80yA/5If8kB/yQ37ID8/XD3deeagelxuEs1+6aWHG53bc+6qwY/U+1fWcvfPWsHnky4sxfrhyIOy8/MGVf22uHw0bd95ShHQhrm/H5Vfla5qTHzoD2Fm/zjounc27s6/xAA9wAAdwAAdwAAdwAAdwAAdwAAdwAAdwAAdwAAdw4IJzIA0a7rrfobB5ai2cue2msLkWBw37znnP/rDvSS8Lu+5/KAwO3jdsfOWWsP7pN4czn7/+gv/7n8/ZsTvvd3W47Kkvr66pvDaP3B5OfOz14cwXP95fbjGv/f/y1WHnlde0JneFcOqmPwzrN7yhv+uK7WjlcS8JK1c/L4SV1eG1nb3txnD8I78UNg/f3t/vuXc17H3Mi8OeQ983vK7Tn/lAOHHD60NYX5vpdbVWAI/8Xj5IQAISkIAEJCABCUhAAhKQgAQkIAEJSEACEpCABCQgAQksSQJpxejex/5I2Hn/a0Ia/Fr/1JtGV4729O+xNw6y7jl0bfNPP7kWTlz/+pAGwnp7xdWiB1/8vpEBw3It69e/Lg5qvquXSxscvCKspuua8jr2nh/r7Tc98ANvD2kVa9cr5ZVy6+O1Ett8+m/XKw2cr735u/u4rARKI7sAACAASURBVOqfOS2z6rre9v0hnDw6s2sbHQAeX3bs8+g2hvKQR3vbIu1Be9AemuKkP+gP+oP+UBLAAzzAAzzAg5wAHuIhHuIhHuKheqAe8oF77AO7HvCEMIgDdWmb2Y2v3nqP//dGtqW/B79PGmgtKzSr1Y9xMLNv/0srbA98/9snBpOGA4b34N/3nvhtGvhNA8Bdr6NxAGy4Te+cr2/fU18Rdj/s6d2Db3GAeu3tP5BXjs65nl8WV9jueuATpw4KplXKR98eBw7nnFdawbr3ST+z5WBlH79nNWAeB6bbK3/HL7Ia0L/53XPnx0pc+TttYDpd48ig+Qx+TyuAZza27n9YAhKQgAQkIAEJSEACEpCABCQgAQlIQAISkIAEJLD4CZSVo6c++8F+V2WORXXwZf/n8E/6XGE4/gse/ImPxgGnA8M/PvEXr+w9t33f+fKw++HPmGhsZ75wQzj+vp/vrRHuf+4b45bB6SzbydfJuEI5/beP1/hvOH4Nff2m7TY/LZcj/+XJM1052vXPPdfAdPr/6WPldBosT9e21Sudn5wmQsz7tVXbT9cy69XJBoDn/Yv750lAAhKQgAQkIAEJSEACEpCABCQgAQlIQAISkIAEFiiBsoVqXwMl06JoD6As0rWND9L1OZBZsps22NR3blsNtPY5OH2ugda+ftNzXVf6vUdW2s6JI+cazEyX0UdmW60wL9GkVeYps3m/0lbeaYXyVq8jr/vWmV2WAeCZRet/WAISkIAEJCABCUhAAhKQgAQkIAEJSEACEpCABCSw+AmkQYo9cfXoYGW1t3M8u1JKK1r3xe2DN+OWvMf//Bd7O/t0/NrGB8P6GJAbv6ZpA2HpnN20mrWv11YrR/tYMVpyONfgXF9n7Z5rZXK6/lkOGk5rJ9NWmLf//j5WTafV5ak/bvXqa6LBuQbNZz05Y/D11zxqc5D2lh6+NuNfNZ8345k1vpeP9lES0D/wAR+HvUF9UB/5A3/ij3UC/IAf8AN+kBNw/+z5gecnnp94fuL5SV0RPF/1fLm5W/L85OJ8fhK3fy4D5mduu7E1MN3j/WG8pgNxIGzH5Vc15ejk0XDkzc9qbRc8/+vbee+HVNfV3jK7cucjd4S1P3h+PAj1WC/PV7ZaOVpWjPbh9yuPfcmW58a2B/TneX3nHGit2tozY1trfs95Xd+BeAbwSLsfGw1OW6CnQeDY6uZan8+V2fH3/Vy8ro/PrP1bAbzlvABfSkACEpCABCQgAQlIQAISkIAEJCABCUhAAhKQgAQkIIHlSCANbKaV3GnV9Km4+jfEgbm+X2kg7LKnvmK4HW61IjOu6O772vbG1eUpr/YrDUwfiwOGaRC4l1fXQH59IdXAdDrLtqfftCuvklEzyDr/1NLgb9ckg3Qlfa+AL9vrj6cyjzPN4wDwo+KQ96A1U7mMgI++NyP1vs8rHOTTzkH7KDPd9Q/9Ax/wUX1QHxoOqI/qY14Jxg/4AT/gB/yAH/CDwgF+xI/4ET/kx+4P3B9cwvcHK/vrFaKL48c7Ln9I2P2gJ1bjcxtHbg+nPx9XisbB8179Nea0cuj5eZV53J49DUqnleYnrn9t7/ntfvgz47VdO1xxmwbzT974h/Uq+P74tuNe9w37vuNlYdeV11SrzdNg+cmb/jAOAH+w9/HPNAEi/ZbpGjcO315NzEjbP8/aj60Anv9kBP9ECUhAAhKQgAQkIAEJSEACEpCABCQgAQlIQAISkIAEJCABCUhAAjNJoHUGcB6ZH5+J6fPozEx5yKM9U1V70B60h+krGfQP/UP/0D+mzWTEB3zAB3zAB/ffnj94/sIH+AAf4AN8gA/wAT7AB/gAH5idD9QrgEcPPh4/CNln+eTtDspLHvLQHvQHPMgJ4CEe4iEe4iEeqgfqIR/gA3yAD/ABPsAH+AAf4AN8gA/wAT6wWD4wOPyaeAZwPJtsONNiMx0J7LM86pkn2oP+gAf4GDlQzcTCAzzAAzzAAzxUD9RDPsAH+AAf4AN8gA/wAT7AB/gAH+ADfIAPLLwPjK0A7j6guZnB5fuuA+rlo11oF802BfqD/qA/6A84gAM4gAM4gAM4gAM4gAM4gAM4gAM4gAM4gAM4gAM40B8HmjOAzdwyc8vMLTO3zNwyc8vMrYWfuWUltp1K7NRipxo71diZws4cdibhA3yAD/ABPsAH+AAf4AN8gA/wAT7AB7bygbgCOG4B3XlEQZmZMO2IQ9/nmQvy0X5iG5g44kH/0D/wAR/VB/VBfVAfmxOQcn/gB/yAH/ADfsAP+AE/4AfDBPgRP+THtRjwA37AD/gBP+AHdQIX0I+GK4CnzRQof+777pkE8sm5aB/aR9dME/1D/8AHfFQf1Af1YXJlgvqoPqqP6qP6qD6qj+rj+Mo9fsAP+AE/4Af8gB/wA34wurKfH90zPxpdAdzfVtS2grcVvK3g9T8cwAEcwAEcwAEcwAEcwAEcwAEcwAEcwAEcwAEcwAEcwAEcwAEcuIccqFcAl20mykwrn8s2fXmGgTzkkbdt1B70BzzAQzzEQ/VAPeQDfIAP8AE+wAf4AB/gA3yAD/ABPsAH+AAf4AN8YJF9YHD4NfEM4PRqHUnmszy0h+YIDv1Bf9Af9Idy5Dse4AEe4AEetM4lcv8wPNJYfVAf1Af1QX1QH4YJqI/qY37Sml/ag/agPegPeICH6oF62JMPDFcAx4Wu1UpX73LQDvQDHMABHMABHMABHMABHMABHMABHMABHMABHMABHMABHMABHMABHFhODjRnAJuJYiaKmShmovQ0E8XMWDODzYw2M9zMeCunrJyyUoQP8AE+wAf4AB/gA3yAD/ABPsAH+AAf4AN8gA9cGB+IK4Cv2RxUZ5uWEey0Z7fP8tAe8swm/QEP8BAP8RAP1QP1kA/wAT7AB/gAH+ADfIAP8AE+wAf4AB/gA3yAD/CB5fGB5gzg1qSCzplWvh9NYHylpHzk005A+xg940X/0D/0jyYBfMCH9hlQ+IiP+IiPJQH1QX1QH8arIj7gQ04AH/ERH/FxWgL4gA/4gA/40J0APuJjWvTbrAAuMxe85xkMcpCDdqAf4AAO4AAO4AAO4AAO4AAO4AAO4AAO4AAO4AAO4AAO4AAO4AAOLBcHxlYApykzaWpAefksD+1Bf8CDnAAe4iEe4iEe4qF6oB7yAT7AB/gAH+ADfIAP8AE+wAf4AB/gA3yADyy+D+QVwHHQdzP+ZziDw2d5aA/6Q1kJjwd4gAd4gAd5ZxA8xEM8xEM8xEP1QD3kA3yAD/ABPsAH+AAf4AN8gA/wgSXwgWoFcDX4OzxUpR4M9nm44k8+2of+UQ4NwAc8wAM8wIMywxEP8AAP8AAP8oxnPMRDPMRDPMRD9UA95AN8gA/wAT7AB/jAYvnA6Arg1s17KdreWyt+5DN8uKNdaBfDlXD6hX5RTyLCBVzAhUby9Af9QX/QH3AAB3AAB3AAB3AAB3AAB3AAB3AAB3AAB/riQH0GcJqZUF5lporPOQF55Jk72oP2oD/gAR7ioXqgHvIBPsAH+AAf4AN8gA/wAT7AB/gAH+ADfIAP8AE+wAcW3QcGX391PAM47VU9bQVXOtPA9/LRPpqzLdorXvUPfMBHfMRHfOzaCUF9UB/UB/VBfVAf1IdJDqiP6qP6qD6qj+qj+qg+jnOAH/ADfsAP+MFM/CCuAL4mIjaPU5eXz/LQHvQHPMgJ4CEe4iEe4iEeqgfqIR/gA3yAD/ABPsAH+AAf4AN8gA/wAT7AB/jAMvlAcwZwNdOm/HgdK4J9Lx/tox4M1D8mdgzAB3zAB3yoJpPhIz6One2jPqgP6oP6oD6oj/xgykovz1/ywzP+yB/540g/4M/8mT/zZ/WRH/Aj/ty5U8L53z9UK4DNXDFzxcwVM1eWaeaK9qq9aq9mXpt5beY1f+WvfIAP8AE+wAf4AB/gA3yAD/ABPsAH+AAf4AN8YIoP5DOAWyPHIzPN4p/HKup7+Qxn5mofrf6gf+ADPqoP6oP6UK9cUR/Vx6FP8wN+wA/4AT/gB/ygWtHIj/gRPxoeK8WP+BE/4kf8iB/xI344bz92BnCcGmCmmJliZoqZKWammJliZoqph3yAD/ABPsAH+AAf4AN8gA/wAT7AB/gAH+ADfIAP8AE+cDH4wGC4Aris9B2+pzOB04h8PUPL93nmpnzqHLQP/QMf8FF9GK0LJQ98xEd8xEd8xMf2fYP6kNuD+qg+qo/qo/qoPqqPkxxQH9VH9VF9VB/VR/VRfRznwIXxg5EVwGVmi/c8w0UOctAO9AMcwAEcwAEcwAEcwAEcwAEcwAEcwAEcwAEcwAEcwAEcwAEcwIGl4sDXX30ongFc9t5uv4/PVC8jzuMjz+N/7vvRmWvy0b70r2bFBz7gQ3tmKz7iIz7iI78c5QD/Hl0pqn1oH+5PJ1dO8yf+xJ/4k/qoPqqP6qPna56veb42uVOr+qg+qo/j9TGvAC7bccVVr9UMhnqb4+Ee177P22HLR/vQP/ABH6tt4NWH+kwk9VF95Af8iB/yQ37ID/khP+TH7g/qBDxfqx++8yN+xI/4ET/iR0vkR4PV+4Q9j3hmCCurYePOW8Kpv/3AQvx+O+9/TVg59H1hx+VXhc0jt4f1T70pnL3txt75EvYcCPue/LNhZ7quk2vhdLymU/HaFmH8LOW160FPDDvvdd9wJl7X+n/73bBx+PaFeH6ZfscdB6+I13NH2PjqLXPx53gG8LQVwNNmFvvz7hnHcpFL10xs7UK70C4mZ+jrF/qFfqFf4AAO4AAO4AAO4AAO4AAO4AAO4AAO4MBMOLB3Nez4hgfHQaZbw+b6Wh78KosYenoPe/aHvY/70bDnmueHEAcNT3zyd8Lpm9/V+3XtvPJQ2P+8321Wu8S/Ov2Z94fjH/5fe82t67rSRR7/058NZ75wQ2+5pd9x9YV/GAYH7zua2a0fCyf+7Od7u67Uvvc9+efCnjgA3H6lAeq1Nz2z936w90kvy22/fp362z8L63/xypnnNboCeNj5bT9n+7m0Etz2YrYXs72Y7cVsn2L7FNun2F7M9mK2F7O9mO3F3B+6P3R/6P7Y8wHPBzwf8HzA8wHPB/p7PrD7Yc8IZ+PKzLNf+bt6UG4x/HTXA+NKw3tfFa/rlrFBuX6vb/9zfyek1aMpr2Nve0HHc/75X9/eb/vRsPLYl4wMzh1790vC2S/d1Ov1HXxJXO0bV2WOv47+wfNb7W3+/Ft94Turlb8Trzigefg3v6NaodyHn67EQcy93/Gzk9cV/+ToW78vTzqodwCY5/XtiCt+V3/k/Z3XdTKuAj75qd9t5TXf9p8mYxyIg+bjrxNxksHpz35gtu3fCmAzzRZhBlDfM5D88/UD/aD/mYD6oX6oH+qHOIADOIADOIADOIADOIADOIADOIADbQ60V0Ieee2jZr5i7nza34FrfzfsvPKasP6x14aTN76z1xWj5brTdsarcVCzvJpBuX7bVRmUbg+CpUG59bgSuE/uH/zZv97moOF885t2Xeli++wHl/3L18Qtlp/UmVmf/WDaiul0oWe/dGM4+q6X9NbOuiY/pOuaR/sfHI5bQFd7c5dtAOJf+ywP7aGWbf0BD/BRfVAf880VHuIhHuIhHuKheqAe8gE+wAf4AB/gA3yAD8zbB1YOhMu+6xerQadqMDOuBF6U8Yu0onVXXGl7/MOvCJtrX14IPqTrGW5pfPJoOPKbT1yIvPZ/92snBg7TgOGpOHDe5+95r397Qzz798DEgObx9/1cOB23Ne7redi0lckh/qaH42/a1/hN2sZ75XGjK7lLeNWK7nRGcQ++uOubHhXSJIOuV9rS+8Sf/2Jv/TOx67LY/sdfc2n/VgDPd+bG+cwg6nPmi+vULrQ/M25xAAdwAAdwAAdwAAdwAAdwAAdwAAdwAAdwAAdwYLk4kLbp3Th8e7VtdnpfhN8vrUw+cO2bhtstp4HCY+/50d5XdKdB/PEBzc0jd4S1t14bwqljvV1fOsu2a6vlye2M58unaoX5C981MWieJmakbbP7rBdlRf74QOvW23nPJ78DPzi6pXeVVxwwn/UZ3fEM4LgCOO3JPZy5k/YO91keZSW49qA/4AEe4EGeuYaHeIiHeIiHeKgeqId8gA/wAT7AB/gAH+ADfIAP8IG74wNppe3Ob3xIVUiblaL996c9h54f9jzimWGwshrO3PbX1bbUaRC473q3MrbaNq2WXr/+tb2P36Vtz9Oq/HJ2cvotT3z0NdWEgz7rQ2pf+5/9umpb9uoVV0sf//NXxJXc1/c//hmvbc8jnhV2P/hJ4czf3xi3jH9H2IzXN/O8rACezwh/nzMfFmGGj39/7Uw7XK6Zgn4vvxdu4zYO4AAO4AAO4AAO4AAO4AAO4AAO4AAO4AAO9MuBtL3xmb//64VYyd3mwY573TeuYD3S60rpTj7tXQ07Vq8IG1+9tdcVyYvQbwZpADgNhg9nbIytBC7LpX1fz/CUz8jMF+0jJ6B/6B/VjDB8wIfWSmF8xEf1QX3kB/yAH/Ajfji6UpIf8SN+xI/4ET/iR/yIH/Gj9spafsgP+eHs/LAaAB4uMy7bW8Y/yCPn9fL7iXffy0f70D/wodruBh/ztiPqR52D+qg+qo/qo/qoPvIDfjTOAX7AD/gBP+AH/IAf8AN+4PmR52eeHxYOuD9wfzCf+4PB4TgAPDLzqqxg855XsslBDtqBfoADOIADOIADOIADOIADOIADOIADOIADOIADOIADOIADOIADOLAsHKhWAI9tW+rz6DYM8pBH3we+++e3Zsjh1cg2y/iET/iAD8MZtPiIj61t6NUH9UF9UB/Uh3qFhfqoPqqPzY5N+oP+oD/oD2UHNzzAAzzAAzzIOzpexDycOAN4fM91n3MCpRHIQx7ag/6AB/mhOh7iIR7iIR7ioXqgHvIBPsAH+AAf4AN8gA/wAT7AB/gAH+ADfGDxfCCfAVyNcMc9p+N/mm2PfZaH9qA/FHnBAzzAAzzAA77EF/kyH+ADfIAP8AE+wAf4AB/gA3yAD/ABPsAH+AAfWAYfGJ4BbKaWmVpmapmpZaaWmVpmai3eTC31WX1Wn9Vn9Vl9Vp/VZz7AB/gAH+ADfIAP8AE+wAf4AB/gA3zgvHzg679+9eYgHg7UzFgoI/f1e9wE2/fy0T7G+kVZMa9/4AN+qh/DHTTUzzzzjT9UOagP6oP6oD6oD/UOU+qj+sgP+BE/5If82P2B58uer3u+7vm65+sj9wWen+X7Rc/PZvr8rD4DuFmunefR+FyWb8tDe9Af8AAP8vZOeIiHeIiHeIiH6oF6yAf4AB/gA3yAD/ABPsAH+AAf4AN8gA/wgcX3gTgAHFcAG2k308BMi5nOtDCTxUxPMz3N9DTT00xPMz07OMA/+IeV0lZKWyltpXR7BxErIayE8HzK8yl+yA/5IT/kh/yQH05yQH1UH+9GfRyuAC67p5eHk81u6mVX8fzu+/zwUj6j7UL70T/wAR/VB/VBfeQH/Igf5dN43D+0c1Af1Uf1UX1UH9VH9ZEf8CN+yA8bDvBjfsyP+TE/no8fDybOAB6fSeDz6MwCecijPdNCe9AetIfpZ77qH/qH/qF/TFvJhQ/4gA/4gA/dKz3xER/xER/xER+7VsKrD+qD+qA+qA/qg/owuVOK+rhlfay2gE47VTczb/K+1T6XmTjy0B70BzzAgzwzDw/xEA/xEA/xUD1QD/kAH+ADfIAP8AE+wAf4AB/gA3yAD/ABPrDoPtCsAC4j5d7ziLkc5KAd6Ac4gAM4gAM4gAM4gAM4gAM4gAM4gAM4gAM4gAM4gAM4gAM4gANLxoHhCuDh0i5/IQEJSEACEpCABCQgAQlIQAISkIAEJCABCUhAAhKQgAQkIAEJSEACS5lAvQI4HkMfV2tPX/nqe/loH/rHtJXx+IAP+IAP+NC9cwg+4iM+4iM+4uNmx322+qA+qA/qg/qgPqgPkxxQH9VH9VF9VB/VR/XxQtbHvAI4bdU9aA1gV4PBseiWP/K9fLSPpoPoH/iAj+qD+pgT4Af8gB/wgxYP3T+4f3L/WHcI9VF9VB/VR/VxeL/AD/gBP+AHnh94fuL5kfE344/9jL+OrQAuM6285xlXcpCDdqAf4AAO4AAO4AAO4AAO4AAO4AAO4AAO4AAO4AAO4AAO4AAO4AAOLA8HRlcAl5nK3vOMZTnIQTvQD3AAB3AAB3AAB3AAB3AAB3AAB3AAB3AAB3AAB3AAB3AAB3AAB5aIA3EF8CM3857SZeZC2WPb5zyTQR7ah/6BD3iIh+qBesgH+AAf4AN8gA/wAT7AB/gAH+ADfIAP8AE+wAf4AB/gA8vhA9UW0NXu02XmQtmK2ufWIR3y0T7qFeH6R04AH/BheIiP9qA/4GNzKLb+oD/oD/pD61wfvsSX+FLTIfQH/UF/0B88T/E8xfMkz9P4AB/gA3yAD8zVB1orgMvMFe95Bosc5KAd6Ac4gAM4gAM4gAM4gAM4gAM4gAM4gAM4gAM4gAM4gAM4gAM4gAPLxYHmDGAj73MdeR9O9TDzycwnM5/MfMJf/DUT2kxoPsAH+AAf4AN8gA/wAT7AB/gAH+ADfIAP8AE+wAf4AB+4QD5QrQAO+fCG+JZnMPgsD+1Bf8ADPFQP1EM+wAf4AB/gA3yAD/ABPsAH+AAf4AN8gA/wAT7AB/gAH+ADy+cD9RnAaUpBmlpSXqWotT77Xj7aR52A/pGlDx9yAvipfqif/IE/DXmoPqiP/KDxRfdP7p/cP7l/KvcL6qP6qD6qj54feH7i+ZHxB/cH7g/cH7g/mPP9wcgZwOMzecb3dPf96Ewf+Yzuea99aB/tmWD6h/7RPhMCH/ABH6afEaJ/6B/6h/4x7SwtfMAHfMAHfOg+aw8f8REf8REf8bHrLFL1QX1QH9QH9aGpD2MrgMtKNu/NYQNl033vzUpH7UP70B/0BxzAARzAARzAARzAARzAARzAARzAARzAARzAARzAARzAARxYRA7kM4Cr7Qdae5j7LA/toTkTW3/QH/QH/SFu21edeYQHeIAHeIAHeKgeqId8gA/wAT7AB/gAH+ADfIAP8AE+wAf4wIL7QD0AnDaeLiP0ZSNyn1uH1MhH+6jPKtE/cgL4gA/DQ6y0B/0BH5tD0fUH/UF/0B9a51rxJb7El5oOoT/oD/qD/uB5iucpnid5nsYH+AAf4AN8YJ4+kM8Ajg/rNocH0ceVwD7LQ3toZjLqD/qD/qA/lJm9eIAHeIAHeJBn+uMhHuIhHuIhHqoH6iEf4AN8gA/wAT7AB/gAH1hYH2itAG5NVveXEpCABCQgAQlIQAISkIAEJCABCUhAAhKQgAQkIAEJSEACEpCABCSwdAkMvv5r8QzgtPtCfDUz+Vuf0x7WvpeP9qF/DGfy4MOQl/ioPqiP6qP6qD6qj/VMV37AD+r7SX7Ej/gRP+JH/Igf8aPWsSDV82Z+wA/4AT/gB3fLDwarV4TBP7kibB6+I2weif9dIL7uuv+jwub6Wjh7598tVPveee+HhLByIGx85Zbq+i7l8U0rgJduzN4FS0ACEpCABCQgAQlIQAISkIAEJCABCUhAAhKQgAQk0FcCg5XVsOPeV1UDcxtHbu/rMqb+c3ccvO/CXVcamNtzzfPDjnvdN5z+2/eHU3/7ZwuRW/ot03Wl99OfeX84+5U8oNn3K+W1/9o3VdeVXsf/5GXh9Oc/1vdlVdeTrqsaaI2v9Due+PArer+udAH7nvzz1W+ZXhuHbw9H33pt2DwZB4Ev0VczAJzO365n4nRm4Xv5aB/TMaF/6B/6h/4xLQF8wAd8wAd86E4AH/ERH/ERH/GxKwH1QX1QH9QH9UF9WJL6cK+fv7m60jTIdPYf46DhgvBr5ZoXhL1P/rlw8r/9Tlj/5BtzmgtQX/d/z+vDrgc9qbqcUze+M5z46KubX7rH69v/7Oa60uBv+j0nXj1cX/u60vWcve3GcPRdL+6dD3se8ayw77t+ceQ61t749LCxtsVEiDnlV/pkubhhH5jTP39qAe/pn28F8HSl8o0EJCABCUhAAhKQgAQkIAEJSEACEpCABCQgAQlIQAISmEhg9YXvrlYBH3vXj4Qzt/31wiR04No3h533v2Z0AHgBrq49oLn+0deEkze+YwGuKoTLvuuVYfcjnjm8lsOvvnohrmt8ADhtabz21uf1fm2dA8C/EweAF2Al/PgA8CK1sz5+uHgG8D+LZwDnqSnp/+YzGVpTVVqffS8f7UP/wAd8HBYr9WFYL9VH9VF9VB/VR/VRfawT4Af8wPMFz1c8X/J8zfNFz1c9X/Z83fhCM9bTgx/v/MZvrrbprQale/jnT7s/rrY0fvbr4ta8d4Rjf/IzeWveBbi+wd6DYeVRLwj5TNsj4difvqzX36/kl/I6ELdaDmkL6JNHq8zO/P3/tRB8KZMfUlBpO+/jH375QvjPyuN+NKx8249Vv186M3nt954bNk8dvWT93ArgPobd/TMlIAEJSEACEpCABCQgAQlIQAISkIAEJCABCUhAAhKQgAQkMCWBdJZzOjM5nWe7CCts25dZDZjHQfxFOTO5XFsaOB9OgLjEW1azArjMtPCeZ1DIQQ7agX6AAziAAziAAziAAziAAziAAziAAziAAziAAziAAziAAziAAziwZBywAvgSnwHgX18CEpCABCQgAQlIQAISkIAEJCABCUhAAhKQgAQkIAEJSEACErh4EhjcFc8AHmwxcyGdaef76SuC5aN96B/6x7QdA/ABH/ABH/ChPht4bIYkPuIjPuIjPuJj185b6oP6oD6oD+qD+qA+THJAfVQf1Uf1UX1UH+9OfcwrgIcHbccQ01HNrYO3q7Fu39cHa8tH+9A/8KEuNmUiED7iY5pEFdQH9UF9UB/Uh+pmRH3MCfADfsAP+BE/9HzJ8zXPFz1frX2gFkR+xI/4ET/iR/yIH83Vj5wBvGR7djubuHumh1zk4uxuZ5fjmW05aAAAIABJREFUAA7gAA7gAA7gAA7gAA7gAA7gAA7gAA7gAA7gAA7gAA7gwCC0VgCXCSjT4OD7PEFFPt3w1D60D/0DH/ARH7vkUn1QH9QH9UF9UB/Uh0kOqI/qo/qoPqqP6qP6qD6Oc4Af8AN+wA/4AT+4cH4wcQbw+JkCPo+eMSAPebTPXNAetAftoZES/UF/0B/0hyLpeIAHeIAHeJBv2vEQD/EQD/EQD9UD9ZAP8AE+wAf4AB/owwfyFtDpVVa2lnO7fM57ccsjJ6A9aA/6Ax7gIR6qB+ohH+ADfIAP8AE+wAf4AB/gA3yAD/ABPsAH+AAf4AN8YOF9wBnAzgDeYltrZwU4K8BZAc4KwAEcwAEcwAEcwAEcwAEcwAEcwAEcwAEcwAEcwAEcwAEcwIFl4kA8AziuAG4tdA2xD/vcDNzLQ3vQH/SHZicA/UF/0B/0hzoBvsQX+XNrpqv6qD6qj+qj+ph3zsJDPMRDPMRDPFQP1EM+wAf4AB9YDB+ozwCuoTQ8o8jncuB8PqNBHvJI8lbOLNEetAftQX/AA/WRH/AjPsAH+AAf4AN8gA/wAT7AB/gAH+ADfIAP8AE+wAcW0weaM4BbkxI6Z2r5fjSB8Zm98pFPOwHtY3RlmP6hf+gfTQL4gA/tlaP4iI/4iI8lAfVBfVAfxqsiPuBDTgAf8REf8XFaAviAD/iAD/jQnQA+4mParfuuX/tnm+W87mamRj6/uv3n5XMeyfe9fLQP/WOSA/iAj+qD+qg+qo/qo/o4zgF+wA/4AT/gB/yAH/ADfjDKAX7Ej/gRP+JH/Igf8aNZ+9H0FcDT5474RgISkIAEJCABCUhAAhKQgAQkIAEJSEACEpCABCQgAQlIQAISkIAEFjCBuAL4n24Oqv104qta2Rv3rPdZHtqD/oAHeKgeqId8gA/wAT7AB/gAH+ADfIAP8AE+wAf4AB/gA3yAD/ABPsAHls4HrABewFF5lyQBCUhAAhKQgAQkIAEJSEACEpCABCQgAQlIQAISkIAEJCABCUjg7iQwXAG8GQ+fSCt/vctBO9APcAAHcAAHcAAHcAAHcAAHcAAHcAAHcAAHcAAHcAAHcAAHcAAHcGA5OTC2AngzDiLX20FXw8k+y0N7aGZW6A/6g/6gP5QE8AAP8AAP8CAngId4iId4iId4qB6oh3yAD/ABPsAH+AAf4AN8YNF8YHDXq+IZwIPJGQylsVZnAvt+YmW0fHJn1j70D3zAz/EZYPiIj+qD+sgP+AE/4Af8YHSGOD/iR/yIH/EjfsSP+BE/4kftlbT8kB/yQ344az+sVwCXkXnveYReDnLQDvQDHMABHMABHMABHMABHMABHMABHMABHMABHMABHMABHMABHMCB5eNAcwbwlJW+w5lJvu9cCS2feuaW9qF9dOwUoH/oH9XMRnzAB3yY2EkEH/ERH9UH9bF7JRg+4iM+4iM+4mPXSln1QX1QH9QH9UF9UB+2OIvY81fPXzuev7ZWAJd9+stMBp9zAvLIMzu0B+1Bf8ADPMRD9UA95AN8gA/wAT7AB/gAH+ADfIAP8AE+wAf4AB/gA3yADyy6D0yeATw+U8Dn0ZkD8pBHeyaF9qA9aA/Nykb9QX/QH/SHmEDnzHx8wAd8wAd8wMeunWHUB/VBfVAf1Af1QX2Y3DlNfVQf1Uf1UX1UHy9AfYwrgP9pe7pOa6Wnv5SABCQgAQlIQAISkIAEJCABCUhAAhKQgAQkIAEJSEACEpCABCQggWVKoFkBXGYWec8zjOQgB+1AP8ABHMABHMABHMABHMABHMABHMABHMABHMABHMABHMABHMABHFgyDlgBvEzD9a5VAhKQgAQkIAEJSEACEpCABCQgAQlIQAISkIAEJCABCUhAAhKQwBYJ1CuA47H1cSPoOIFh7L2shPW9fLQP/QMfRjmAj3mnBPVBfVAf1Af1QX1oc0B9VB/5AT/ih/yQH/JDfsgP+WHDAX7Mj/kxP+bH/LgfP65WAJfwy0Cxz/nHkEdOQHvQHvQHPMBDPFQP1EM+wAf4AB/gA3yAD/ABPsAH+AAf4AN8gA/wAT7AB/jAcvhAawVwmomSZiR1jUQnqPlePtqH/oEP3TPW8BEf8REf8REfu2b0qg/qg/qgPqgP6oP6MMkB9VF9VB/VR/VRfVQf1cdxDvADfsAPLrQf5DOA46BvaG3jWT6Pvw9ndtR/v+9zbvLTfvSf1sw3fBjhAj7gAz7gA3+qZ8aqD+pDy5vVR/VRfVQf1Uf1sVo5wg/4AT+Y6Af4iI/4qD6oj6PjLu4f3T+6f7x7949xBfC3bI7OLCgzLcbfy4wM3+e85DOag/aRZ+7pH/oHPuCj+qA+tDmgPqqP/IAf8UN+yA/5IT/kh/xwcmdB9VF9VB/VR/VRfVQf1cfxld/84EL6weDrr4pnAKcJBGXGXTXBJodczawoE25838pDPtqH/oEP+Kg+1BO11Uf1cehL/IAf8AN+wA/4AT/wfMHzFc+X6gdpnq95vuj5qufLnq8bXzC+YnzJ+FpewO35aS/PT1srgKeNrPvz7hF3ucila6aidqFdaBfTV3rpH/qH/qF/4AAO4AAO4AAO4AAO4AAO4AAO4AAO4AAO4AAO4MCsOVCfAZwPXWlW/vosD+1Bfygr2fAAD/AAD/Agr2zFQzzEQzzEQzxUD9RDPsAH+AAf4AN8gA/wAT7AB/gAH1gCH2jOADbjwowLMy5mPePC/z7O4AzO4AAO4AAO4AAO4AAO4AAO4AAO4AAO4AAO4AAOXGoc2LH3YNj3tFeGzfW1cPxD/7HaJn5R+sHKt/1Y2PttLw3rn/ztcPKTb1yY69r1oCeFff/DvwubJ4+Go7//3IW5rrDnQNj/PW8IZ7/yd2H9o69emOtalPa0KNcRzwD+lno9S9mEe3zmQn2GUVwhXP5qdGTf93m+j3y0j66ZX/qH/oEP+Kg+qA/qw+TMYPVRfVQf1Uf1UX1UH9VHz588X2uvnOGH/JAf8kN+eLH74a5vuibs/77rqnOBj/zGt8eB4CPNGcE9j6+sPv+6sPP+jwon4sD0yf/nffUZ5vkQ5z75vPfbXxpW4sD0mVs/Fo7915/q2Mm3n+vb/U3/PP6WbwmbR24Ph3/7qcbHem6/0+qHM4Dj8PcizTRZlJkBrkO70C8WZwaa/qg/6o/6Iw7gAA7gAA7gAA7gAA7gAA7gAA7gAA7gwLJzYM81Lwg773W/OMj6p2HjzlsWZuVoWmm785/E6/q/3xfCqaMLc12Dg1eEXd/4zeHMP/6/cbD1joW5rt2PeFb1O575x8+FM5+/fmGua9n7x4W+/tYK4DJTwHue0SEHOWgH+gEO4AAO4AAO4AAO4AAO4AAO4AAO4AAO4AAO4AAO4AAO4AAO4MCScaA6AzgOd5ZtZ6oRZp/lERMYzijTHrQH7UF/KGdy4AEe4AEe4EGe2YqHeIiHeIiHeKgeqId8gA/wAT7AB/gAH+ADfIAPLKgPjKwArjY0b6189Vke2kMzo0N/0B/0B/2hzHTEAzzAAzzAgzzzGQ/xEA/xEA/xUD1QD/kAH+ADfIAP8AE+wAf4wOL5QD4DuMxQaB1oXa0I9nl4wLc8tAf9oTlQXn/QH/QH/SHf3NU7iPAFvqA96A94kGc84yEe4iEe4iEeqgfqIR/gA3yAD/ABPsAH+MAC+IAzgIc/wpLt3e26a5n0uzl7wdkLzl7AARzAARzAARzAARzAARzAARzAARzAARzAARzAARzAARzAgSEH7vpPj9isznqtZiZ1dI60h73v5aN96B/4MMkBfFQf1Ef1UX1UH9VH9XGcA/yAH/ADfsAP+AE/4Af8YJQD/Igf8SN+xI/4ET+aux9ZAWwlrZW004qPP+8uSnKRC27iJg7gAA7gAA7gAA7gAA7gAA7gAA7gAA7gAA7gAA7gAA4sLgfuelVcAZz2pJ+YiZXOsCpn+/lePuMrwbUP/QMf8ll/+IiP+Di6U4j6oD6oD+qD+sgP+BE/4kf8qL3THD/kh/yQH/JDfsgP+SE/5If8sNmJeT5+bAWwGSpmqJihsrgzVPRP/VP/1D9xAAdwAAdwAAdwAAdwAAdwAAdwAAdwAAdwAAdwAAdw4Pw40JwBPD4Ty+fRmVnykEd7ppr2oD1oD83MRf1Bf9Af9IcykxcP8AAP8AAP8sx+PMRDPMRDPMRD9UA95AN8gA/wAT7AB/rzgcFdr/qWuOq4LDeOw+fVy+e8PY88tAf9AQ/wEA/VA/WQD/ABPsAH+AAf4AN8gA/wAT7AB/gAH+ADfIAP8AE+wAeWxwcGwxXA5Qxg76GakSAHOWgH+gEO4AAO4AAO4AAO4AAO4AAO4AAO4AAO4AAO4AAO4AAO4AAO4MCScaA+A3jswOHhCmB/nme2yUEO2oF+gAM4gAM4gAM4gAM4gAM4gAM4gAM4gAM4gAM4gAM4gAM4gAM4sAQcsAK43oN9yUburVD2u1mpbqU+DuAADuAADuAADuAADuAADuAADuAADuAADuAADuAADuAADuDAOAfiGcCPSAP1efl+OfXWZ3loD/oDHpQjLfAAD/AAD/AgH3GDh3iIh3iIh3ioHqiHfIAP8AE+wAf4AB/gA3yAD/CBJfABZwBb+Wvvfnv327sfB3AAB3AAB3AAB3AAB3AAB3AAB3AAB3AAB3AAB3AAB3AAB3DgIuFAPAP4EWlVcFzSUVZ2xAk8PstDe6hnsukPeICP6oP6mFd+4iEe4iEe4iEeqgfqIR/gA3yAD/ABPsAH+AAf4AN8gA/wgaXwgXwGcIZ2s0e4z/LQHvSHsmc+HuABHuABHuQzNPAQD/EQD/EQD9UD9ZAP8AE+wAf4AB/gA3yAD/ABPsAHFt8Hqi2g07EFw5lL+RQHn8tKJ3loD/oDHuBB3hkCD/EQD/EQD/FQPVAP+QAf4AN8gA/wAT7AB/gAH+ADfIAP8AE+sPA+UJ8BXGaseM8zV+QgB+1AP8ABHMABHMABHMABHMABHMABHMABHMABHMABHMABHMABHMABHFg+DgzuimcAp72qm6HqvHe3z2Uqmzy0B/0BD/AgT23FQzzEQzzEQzxUD9RDPsAH+AAf4AN8gA/wAT7AB/gAH+ADfIAPLLoPxBXAD49nAKe9qssMhnSGgc/y0B7yjBb9AQ/wEA/xEA/VA/WQD/ABPsAH+AAf4AN8gA/wAT7AB/gAH+ADfIAP8IHl8YHhGcCtOTt54sLYHu6+H01APnm5+7SXfOSjfegf+NCdAD7iIz7iIz7iY1cC6oP6oD6oD+qD+qA+TCagPqqP6qP6qD6qj+qj+mh88u6NT7ZWAJeZC97zDAY5yEE70A9wAAdwAAdwAAdwAAdwAAdwAAdwAAdwAAdwAAdwAAdwAAdwAAeWiwNTVwBPn1vkGwlIQAISkIAEJCABCUhAAhKQgAQkIAEJSEACEpCABCQgAQlIQAISWMQE8grgeFLxZvzPcAaHz/LQHvSHshIeD/AAD/AAD/LOIHiIh3iIh3iIh+qBesgH+AAf4AN8gA/wAT7AB/gAH+ADS+AD9QrgdJhrPPR3+PJZHtqD/lASwAM8wAM8wIOcAB7iIR7iIR7ioXqgHvIBPsAH+AAf4AN8gA/wAT7AB/jA4vvA6ArgMnPFe57BIgc5aAf6AQ7gAA7gAA7gAA7gAA7gAA7gAA7gAA7gAA7gAA7gAA7gAA7gwBJxYGwFcJm54j3PYJGDHLQD/QAHcAAHcAAHcAAHcAAHcAAHcAAHcAAHcAAHcAAHcAAHcAAHcGB5ODC461cfng7/rQY7O1e8xjMNfC8f7UP/wIf6rPT2DB98VB/UT/7An/hj18xP9UF9UB/UB/VBfVAfJlcIqY/qo/qoPqqP6qP6qD6Oc4Af8AN+MDM/qLaAzjtVl5kLZd9qn/NMBnloH/oHPuAhHqoH6iEf4AN8gA/wAT7AB/gAH+ADfIAP8AE+wAf4AB/gA3yADyyHDzRnAMeZFoM40j717Fvfy0f70D+2mKmJH/ipfkzfKUD/0D/0D/1j2k4a+IAP+IAP+NC90w4+4iM+4iM+4uMEBzyf9nza82nPpz2fnrqTAH/mz+N1s7UCuLXY1V9KQAISkIAEJCABCUhAAhKQgAQkIAEJSEACEpCABCQgAQlIQAISkMDSJVCfAZyvu5pZV+257rM8tAf9AQ/wUD1QD/kAH+ADfIAP8AE+wAf4AB/gA3yAD/ABPsAH+AAf4AN8gA8smw9YAbx0Y/YuWAISkIAEJCABCUhAAhKQgAQkIAEJSEACEpCABCQgAQlIQAISkEB3AtUK4Lh1flz5G/+G+txin+WhPegPeBDbQJrgio/qg/rID/gRHqoH6iEf4AN8gA/wAT7AB/gAH+ADfIAP8AE+wAf4wBL5gBXApgZIQAISkIAEJCABCUhAAhKQgAQkIAEJSEACEpCABCQgAQlIQAISuEgSiCuAH7aZh+zLSrfyFz7nlX/y0D70D3zAQzxUD9RDPsAH+AAf4AN8gA/wAT7AB/gAH+ADfIAP8AE+wAf4AB9YDh/IK4DL9hVlVNvnvJ2FPHIC2oP2oD/gAR7ioXqgHvIBPsAH+AAf4AN8gA/wAT7AB/gAH+ADfIAP8AE+wAeWwgdaK4CbzcsHcSpXM5Ontal5fRim7+WjfUz2i7L5vf6hf+gf+sfwMIxyiLT6maZIx1jwAR/wAR/qw3LwseIif8ztQX1QH9VH9VF9VB/bdVF9VB/5AT/ih/yQH/JDfnjP/XB0BXDrIPtqBazPw4Pt5aE96A+xDeACLqoL+gEO4AAO4AAO4AAO4AAO4AAO4AAO4AAO4AAO4AAO4AAOLDQHRlYAj8+s8Xl0po085NGeeaQ9aA/aw/SVS/qH/qF/6B/TVm7gAz7gAz7gQ/fKLnzER3zER3zEx66Vr+qD+qA+qA/qg/qgPkzujKA+nrs+xgHgeAbw8MTm1iEO1bZsPg8PdZCH9qA/1EAo0oUP+FAf+oKP+IiP+FgloD7km3L1UX3UH/AAD/FQPVAP+QAf4AN8gA/wAT7AB/gAH+jXBzrPAJ62t7Y/795zWy5y6TqrRrvQLrSL6WdV6B/6h/6hf+AADuAADuAADuAADuAADuAADuAADuAADuAADuDAbDhQnwHc2qy9Wrng83DzdnloD/pDc/iv/qA/6A/6QzkMHA/wAA/wAA9aK9/dP7l/qg+/Uh/VR/VRfVQf1cfhzjj8gB/wg2YluP6gP+gP+kNrkJMvzcWXtlwBPL6H9vhMDN+P7rEtn9GZKtqH9tE+o0T/0D/aM7nwAR/wYfrMPv1D/9A/9I9pM+DxAR/wAR/woXuFDD7iIz7iIz7iY9cKQvVBfVAf1IdLuT7kAeCu13Dmcue3ccJKWSnse/l1JKB91DPf9Q/9Q/+YSAAf8KFaGYOP+IiP+DiWgPqgPqgP6iM/6E4AH/ERH/ERH/HR8/vJBNRH9VF9VB/Vxy3rozOAEyRKsfCei4Yc5KAd6Ac4gAM4gAM4gAM4gAM4gAM4gAM4gAM4gAM4gAM4gAM4gAM4sJQcmL4CePrcAd9IQAISkIAEJCABCUhAAhKQgAQkIAEJSEACEpCABCQgAQlIQAISkMACJjA6ABxncqQ90dNx3NVrfBsF38tH+9A/8AEf1Qf1kR+MbrPEj/gRP+JH/Igf8SN+xI/4UXsbSn7ID/khP+SH/JAf8kN+yA979kMrgBdwVN4lSUACEpCABCQgAQlIQAISkIAEJCABCUhAAhKQgAQkIAEJSEACErg7CRgAvjup+f+RgAQkIAEJSEACEpCABCQgAQlIQAISkIAEJCABCUhAAhKQgAQksIAJGABewB/FJUlAAhKQgAQkIAEJSEACEpCABCQgAQlIQAISkIAEJCABCUhAAhK4OwkMvvYrD90cpL3I69dmSGcAtz6nMyt8Lx/to0pA/8AHfFQfhvVSfeQH/Igf8SN+xA/5sftnzw88P2l8gB/zY37Mj/kxP+bH/Jgf82N+vDB+bAXw3Rk29/8jAQlIQAISkIAEJCABCUhAAhKQgAQkIAEJSEACEpCABCQgAQlIYAETiAPAD90McUR+czhTM36sRuhH331fVkLLR/vQP/ABH9scUB/Uh7xTiPqoPqqP6qP6qD42HOAH/IAf8CN+yI/5MT/mx/yYH/PjwgH3B+4P3B/M//5gbAVwKUrThqp9n4uWfLoT0D60D/0DH/ARH7sSUB/UB/VBfVAf1Af1YTIB9VF9VB/VR/VRfVQf1cfxBPgBP+AH/IAf8IML4wetM4BzcRmfieHz6MwMecijPVNFe9AetIfpMxn1D/1D/9A/ps30xQd8wAd8wAf3354/eP7CB/gAH+ADfIAP8AE+wAf4AB+YnQ/UK4C7t6WZtl2PP5dX1zY+2oV2oV1M38ZB/9A/9A/9AwdwAAdwAAdwAAdwAAdwAAdwAAdwAAdwAAdwAAdwYB4cGNz1K/EM4Hh233CmRTwL2Gd5aA/1zBv9AQ/wUX2IHKhmouEBHuABHuABHqoH6iEf4AN8gA/wAT7AB/gAH+ADfIAP8AE+sAQ+0FoBXPaULiPvPucE5JFnImgP2oP+gAd4iIfqgXrIB/gAH+ADfIAP8AE+wAf4AB/gA3yAD/ABPsAH+AAfWHQfaM4ANnPJzCUzl8xcMnPJzKUlmLlkJa6dOuxUYqcSO5XYmcDODHam4AN8gA/wAT7AB/gAH+ADfIAP8AE+wAf4wHQfiCuA4xbQZcv1MmnD5zxwL4+cgPagPegPeICHeKgeqId8gA/wAT7AB/gAH+ADfIAP8AE+wAf4AB/gA3yAD/CBpfCB4QrgPFOiHOHQzBwpMyh8Lx/tQ//IGwXgwygXSx7ah/ahf+ADPuJjnnnLn9s5qI/qo/qoPqqP6qP6yA/4ET/khw0H+DE/5sf8mB/z4/n48egK4DJzw3uzdXc50sJ7M7NJ+9A+9Af9AQdwAAdwAAdwAAdwAAdwAAdwAAdwAAdwAAdwAAdwAAdwAAcWkgP1CuCyze+0lWy+z9sgy6d7Jbj2oX3oH/iAj/jYtVOG+qA+qA/qg/qgPqgPkzspqY/qo/qoPqqP6qP6qD6OrwTmB/yAH/ADfsAPLqwfDO76lXgGcHqVEfqyc7XPecReHjkB7UF70B/wAA/xUD1QD/kAH+ADfIAP8AE+wAf4AB/gA3yAD/ABPsAH+AAf4AML7wPDFcB57/0y8yi9lz2ox/+8fPZ93qtePqPtRvvIeegf+gc+4KP6oD60vUp9VB/5AT/ih/yQH/JDfsgP+aHnj56/ev7s+XvDAX7Mj/kxP+bHs/Tj5gxgM7fM3DJzy8wtM7fM3DJza+FnbtmZok4Ar/AKr/DK/Yv7F/cv7l/4AB/gA3yAD/ABPsAH+AAf4AN8gA90+kBcAfzNm3mmSZlxMz7zZvzPfT86M0c+2o/+gx/4OcqB8ZWO8pFPm5Pax+hKWP1D/9A/JlcG82t+za/5tfqoPqqP6qPnj54/tlcG8kN+yA/5IT/kh/zwfP2wOgN4Mx52O6gOeW29WjNnfC8f7UP/wAd87Fp5qj6oD+qD+qA+qA/qw+TOBOqj+qg+qo/qo/qoPqqPVQKerw5XJvIjfsSP+BE/4kf8aL5+tMUK4Gkzq/x594wrucilayaadqFdaBeTMxT1C/1Cv9AvcAAHcAAHcAAHcAAHcAAHcAAHcAAHcAAHcAAHcGBWHKhWAOepWGVKWnsmyvifl89lnN73o7nJJ+ehfeQE9A/9o81VfMAHfFQf1Ef1kR/wI37ID/mh5w+ev3j+5PlbwwF+zI/5MT/mx/yYH/NjfjwrP84rgOOgXbUNRzkL2Gd5aA/6Ax7ks9HxEA/xEA/xEA/VA/WQD/ABPsAH+AAf4AN8gA/wAT7AB/gAH+ADfGCJfCCuAP7m2GTT+HJzKIXP8tAe9IdySAse4AEe4AEeJBKW+Zjag/agPegPeMAP+SE/5AN8gA/wAT7AB/gAH+ADfIAP8IHF9oHRFcBl5Np7ntEmBzloB/oBDuAADuAADuAADuAADuAADuAADuAADuAADuAADuAADuAADuDAEnGgWgHcOrR15C/HT6wc//t8P3qipXxGE9A+tI/2iaf6h/7RTgAf8AEfptnX5Ilo+Imf+Dl5grj7l+4E1Ff1VX1VX/ERH7sSUB/UB/VBfVAf1Af1YTIB9VF9vOjr49d+OZ4BnPaunzZzIe1p7nv5aB/dM1v0D3zAR3zER3zsmvmnPqgP6oP6oD6oD+rDJAfUR/VRfVQf1Uf1UX1UH8c5wA/4AT/gB/xgJn7QOgN4+sz68ZkQPo/OjJCHPNozRbQH7UF7UE9KAniAB3iAB3iQE8BDPMRDPMRDPFQP1EM+wAf4AB/gA3yAD/ABPjA/H2jOAK5m2jQHFucVwa3PvpeP9lE/vCwr5vWPDOuYBz7gAz7gQ+EBf+BP/LHhgfqoPqqP6qP62JrJ7v7J/ZP7R/fPnh94fuL5s+fvxh+GPuD5iecnnp94fjLj8ZWRFcDTRt7Ln/u+e2RePjkX7UP76JrJqX/oH/iAj+qD+qA+TM70Vx/VR/VRfVQf1Uf1UX0cXwnHD/gBP+AH/IAf8AN+wA9GV8rzo3vgR/kM4Ka4xoUKrZn68c99lof2MRzc1h/wAS/Vi6F0qI/qo/qoPlYzNfkyP+JH/Igf8SP1QD3kA3yAD/ABPsAH+AAf4AN8YLF8wBnAziRzJlv98NYZFM6gcAaFMyicQTG/Myj0N/1Nf9PfnAHnDDj+zb/5AB/gA3yAD/ABPsAH+AAf4AN8gA/MxgcGwxXA1Rll6SyOeoTaZ3loD/oDHuQVjniIh3iIh3iIh+qBesgH+AAf4AN8gA/wAT7AB/gAH+ADfIAP8AE+sCQ+0HkG8Pie2j6P7rEtD3m0z2TRHrQH7aG1zVHZDtX7yNnoOIETOIETOIADOIADOIADOIADOIADOIADOIADOIADOIADc+PA1375IfEM4LTyt6wA9i4P7UF/wAEcwAEcwAEcwAEcwAEcwAEcwAEcwAGTGSHJAAAgAElEQVQcwAEcwAEcwAEcwAEcwIFl5EBeAVwGf8uKrfrz8AwG3+ftTeSTV7RpH1V70D/qM0rwAR/wUX1QH9VHfsCP+CE/5MfuD+oEPF+oH47xI37Ej/gRP+JH/Igf8aMqAX7ID42v9TO+GM8AtgJ4GUfuzTgx40S7NfMMB3AAB3AAB3AAB3AAB3AAB3AAB3AAB3AAB3AAB3AAB3AAB3BgnAOjK4BtA51X8slBDtqBfoADOIADOIADOIADOIADOIADOIADOIADOIADOIADOIADOIADOLCMHLAC2MwQg94G/U16wAEcwAEcwAEcwAEcwAEcwAEcwAEcwAEcwAEcwAEcwAEcwAEcuDg4MLgrbgFdnW1bZjCkPdl9lof2kGe06A94gId4iId4qB6oh3yAD/ABPsAH+AAf4AN8gA/wAT7AB/gAH+ADfIAPLJMPWAF8cYzkm5HhdzQzy8wsHMABHMABHMABHMABHMABHMABHMABHMABHMABHMABHMABHMCBeAZwXAEcl/w2Kx3jCmCf5TGcyaI96A/4gI9lZwg8wAM8wAM8yDvl4CEe4iEe4iEeqgfqIR/gA3yAD/ABPsAH+AAf4AML7AN5BXDdSKceZO37qhHLZ8pB39qH9qF/4MO0GVX4gA/4gA/40D3zGh/xER/xER/xsWtlivqgPqgP6oP6oD6oD5McUB/VR/VRfVQfz7c+DtIAcFzIMFzxmv66+lwPCg8/1ytCfS8f7UP/wIcsnfhY81B9qM6+UB/VR/VRfVQf1Ud+wI/4IT/0fMXzpbIi0v2B+wP3B+4P3B+4P3B/4P7A/YH7gz7vD6oB4GYF8PhMmvJ5/L2MtPs+z7yRz2gO2keeiaF/6B/4gI/qg/rQ5oD6qD7yA37ED/khP+SH/JAf8sPJnQjVR/VRfVQf1Uf1UX1UH41Pjq70v+d+NLgrDgCPrFyqV3INz3AYX9nl+2qll3zqMy60j9GVf/qH/oEP+DjGgfGZfuqH+tH2CO1jdCao/qF/6B8dK+f4Jb/kl/ySX45wgD/xp/ZKGv7IH/kjf5zYeYE/82f+zJ/5c+bA1375qs1BbA7Nge1xZYLP8kiNo1rBqj3oD/iAj3iAh+qBesgH+AAf4AN8gA/wAT7AB/gAH+ADfIAP8AE+wAf4AB9YFh+YfgbwlJWdU/cs9/d3rgSV15Q93rUX7aU5AmLyDHLtQ/vQPoYJTJvJqr6oL+2VD9qD9qA9TF/5oH/oH/qH/sGn8gpBPMRDPMRDPMRD9UA95AN8gA9cOj7QWgFcZm54zzM45CAH7UA/wAEcwAEcwAEcwAEcwAEcwAEcwAEcwAEcwAEcwAEcwAEcwAEcWC4OTD0D2EwQM0HMBLl0ZoLo7/q7/q6/mwluJriZ4GaC8wE+wAf4AB/gA3yAD/ABPsAH+AAf4AN8gA/wgYvEB772S/EM4Hh4wdSR+3QGrO/lM21FtPahf+ADPuBD3Deio47iIz7iIz7iIz6qD5McUB/VR/VRfVQf1Uf1UX0c5wA/4Af8gB/wA37ADy64H9RnADcHd+dxbZ/LQd7y0B70BzzAgzS4WV7ag/agPegPeMAP+SE/5AN8gA/wAT7AB/gAH+ADfIAP8AE+wAf4wCL7QHMGsJlWZlqZaWWmlZlWZlqZaXXBZ1ptqq/qq/qqvqqv6qv6qr5a6TTKAX7Ej/gRP+JH/Igf8SN+xI/aHOCH/JAfXnA/HK4Abk43KLv8e8+7/ctBDtqBfoADOIADOIADOIADOIADOIADOIADOIADOIADOIADOIADOIADOLAcHBhMnAE8PtPC59GZF/KQR3smivagPWgPzcwk/UF/0B/0hzKDGw/wAA/wAA/yig48xEM8xEM8xEP1QD3kA3yAD/ABPsAHevCBagvotEt3PrOg2bXeZ3loD/pDOcUBD/AAD/AAD3ICeIiHeIiHeIiH6oF6yAf4AB/gA3yAD/ABPsAH+AAf4AOL7gPNCuAyE8l7npEkBzloB/oBDuAADuAADuAADuAADuAADuAADuAADuAADuAADuAADuAADuDAknFguAK4jFR7l4AEJCABCUhAAhKQgAQkIAEJSEACEpCABCQgAQlIQAISkIAEJCCB5UygXgEcj+2Oq7Wbla8+y0N70B/KSng8wAM8wAM8yDuD4CEe4iEe4iEeqgfqIR/gA3yAD/ABPsAH+AAf4AN8gA8svg/kFcBpq+74UHP48lke2oP+UBLAAzzAAzzAg5wAHuIhHuIhHuKheqAe8gE+wAf4AB/gA3yAD/ABPsAH+MAS+MDYCuAyc8V7nsEiBzloB/oBDuAADuAADuAADuAADuAADuAADuAADuAADuAADuAADuAADuDA8nBgdAVwmbniPc9gkYMctAP9AAdwAAdwAAdwAAdwAAdwAAdwAAdwAAdwAAdwAAdwAAdwAAdwYIk4EFcAP7g+tKDMXChLX33OMxnkkZdCaw/ag/6AB3iIh+qBesgH+AAf4AN8gA/wAT7AB/gAH+ADfIAP8AE+wAf4AB9YdB+otoCutqouMxfKvtU+55kM8sgJaA/ag/6AB3iIh+qBesgH+AAf4AN8gA/wAT7AB/gAH+ADfIAP8AE+wAf4AB9YeB+oVgAP4lSFNFLtXQ7agX6AAziAAziAAziAAziAAziAAziAAziAAziAAziAAziAAziAAziAA8vLgeYMYDO3zNwyc8vMLTO3zNwyc2vhZ27ZmaJOAK/wCq/wyv2L+xf3L+5f+AAf4AN8gA/wAT7AB/gAH+ADfIAPdPpA6wzgZiZDPsPA5zKzQR7ag/6AB3iQZzrhIR7iIR7iIR6qB+ohH+ADfIAP8AE+wAf4AB/gA3yAD/ABPsAHFtsH6jOA0xSJNFWmvMpFtz77Xj7aR52A/pElHx9yAvipfqif/IE/DXmoPqiP/KDxRfdP7p/cP7l/KvcL6qP6qD6qj54feH7i+ZHxB/cH7g/cH7g/mPP9wcgZwOMzt8b39vb96Mwu+Yzufa59aB/tmX/6h/7RPiMEH/ABH6afGaN/6B/6h/4x7UwlfMAHfMAHfOg+cw0f8REf8REf8bHrbFr1QX1QH9QH9aGpD60VwOObZJfN86dtou/7ZuVf1ybz8pFPWRmqfTTTu8b7Bb50H9KBH/iBH9MPMdI/9A/9Q//gD/yBX/Nrzy9yAu6vRr1IfVAf1Af1QX1QH9RHfsCP+FH7udGl7Yf5DOD6pmG4Z7vP1bYk8qj3sNcetAf9AQ/itnXVmQ54gAd4gAd4gIfqgXrIB/gAH+ADfIAP8AE+wAf4AB/gA3yAD/CBhfaBegC4PTNmfKaUz6Mzp+QhD/1l+soj/UP/0D/0j2kz6/ABH/ABH/Che2UWPuIjPuIjPuJj18pV9UF9UB/UB/VBfVAfJnc2UB/VR/Vxu/VxZAXw9O0Bpi2b9+fdy+nlIpeubQa0C+1Cu1BncAAHcAAHcAAHcAAHcAAHcAAHcAAHcAAHcAAHcAAHcAAHZsuB1grgZi6Fv5KABCQgAQlIQAISkIAEJCABCUhAAhKQgAQkIAEJSEACEpCABCQggeVLYPC1V8YzgNNEg/gaxP9sxv+UV/U57eHte/loH/oHPuCj+qA+1gnwA37ED/mx+wP3T+4f3T97fuD5iedHnp95ftjyAc9PPT/2/Nzzc8/PPT/3/Nzz8wV7fm4F8PIN2rtiCUhAAhKQgAQkIAEJSEACEpCABCQgAQlIQAISkIAEJCABCUhAAp0JNAPAZavpaUH5fjiTrTMi+cinnumnfXQkoH/oH/rHdA3RP/QP/UP/4N/dCeAjPuIjPuIjPnYloD6oD+qD+qA+qA/qw2QC6qP6qD6qj2MJWAFsZoAEJCABCUhAAhKQgAQkIAEJSEACEpCABCQgAQlIQAISkIAEJCCBiySBeAbwg+IZwK2pAdWZFT4Pf195aA/6Q4M7/UF/0B/0h5IAHuABHuABHuQE8BAP8RAP8RAP1QP1kA/wAT7AB/gAH+ADfGDBfMAK4ItkJN+/hgQkIAEJSEACEpCABCQgAQlIQAISkIAEJCABCUhAAhKQgAQkIIFmBXAZmfaeZ6zJQQ7agX6AAziAAziAAziAAziAAziAAziAAziAAziAAziAAziAAziAAziwZBwYWwE8flK4z6Mnh8tDHu2T1LUH7UF7aOZR6Q/6g/6gP5QE8AAP8AAP8CAngId4iId4iId4qB6oh3yAD/ABPsAH+EA/PjD4/+IZwIMtZi5sxhFt309fESwf7UP/0D+m7RiAD/iAD/iAD/FhR4dn4iM+4iM+4iM+qg+THFAf1Uf1UX1UH9VH9VF9HOcAP+AH/IAf3F0/yCuAhwcT1zOSph5U7PtqxpJ88sPc4cSVWs7KDHf5yEf70D/woZ7Yho+5XvAH/sCf+GPhYV0g3H/UvoiP+IiP+IiPni94vuL5Ej/KG2e4f3b/7PmB5yfuj9wfuT+6kPdHzgBesj27nU3cPRNQLnJxdrezy3EAB3AAB3AAB3AAB3AAB3AAB3AAB3AAB3AAB3AAB3AAB3BgEForgMsCnQIHn/OCJXlkWGoP2oP+gAd4iIfqgXrIB/gAH+ADfIAP8AE+wAf4AB/gA3yAD/ABPsAH+AAfWHQfmDgDeHxPeZ9H95iXhzzae+5rD9qD9tDMKNQf9Af9QX8oM2zxAA/wAA/wIM+4x0M8xEM8xEM8VA/UQz7AB/gAH+ADfKAPH8hbQKdXWeFZDt7wOW+5L4+cgPagPegPeICHeKgeqId8gA/wAT7AB/gAH+ADfIAP8AE+wAf4AB/gA3yAD/CBhfeB4RnAZiKZiWQmkplIZiKZidTHTCT1R/1Rf9Qf9Uf9UX+sjOEDfIAP8AE+wAf4AB/gA3yAD/ABPsAH+MCF84F4BnBcAWykfuFH6q1ErhMws8jMIrzCKzONzTQ209hMYz7AB/gAH+ADfIAP8AE+wAf4AB/gA3yAD/ABPsAH+MBUH6jPAI7fp5CaCSb15zLS7Hv5aB/6R8RCnoCEDxUv8THPzFUf1Af1QX1QH9RHfsCP+GH2AX7ID/mx+wP3R/8/e3ceL8tZ33e++tzt3CvdVcIgkGQkZ+ZlJDGxwZMxSElYHYQgDmaxiTFMwCwe7wuIffPGYsAGHBswdgzELLKdsTFLwmLHQcKZscAJkuCPiYSRjIiQdDfdfTnzPFX1dFdXV51z7jlVfU5fvVsvvVp9W7efqm89z+f3rXp+v+dxf+T+yP2R+yP3R+6P3B+5P3J/tD7uD0d7AI/miJszh3w/rkA9s4Q+9KkqoH+MZx4ZH8aH8dGemW18GB/Gh/GRFOAf+Idq5rL4ID6ID+KD+OD5VFSAP+AP+IO6KxIfxAfxQXwQH/kD/mAZ/mBYATzaY2E8Uy1l7Pg+7cFAn2omn/5RZHQZH8ZHsUcJPuDDKNMXH/FRfBAf+QP+gD/gj/hD/pg/5o9H9wX8MX/MH/PH/DF/zB/zx/wxfzw9f9xeAdyeW+UbClCAAhSgAAUoQAEKUIACFKAABShAAQpQgAIUoAAFKEABClCAAhRYhwqECuDvWhjk68mEV6pkTOvLpD2MfE8f/cP4wIei0hsfAw2KzaBHeogf4meZyW58GB/4gI/ig/g49Ev8AX/AH7h/cP/k/rFcn5I/4A/4g/J5En/EH/FH/BF/xB9Nzx+1VACX65i2zlj7vlhkvu1FH/roH8YHPjQrgI/4iI/4iI/42KSA+CA+iA/ig/ggPogPkwqIj+Kj+Cg+io/io/goPtYV4A/4g+X5g2EF8EKo2Igz797poB8YBziAAziAAziAAziAAziAAziAAziAAziAAziAAziAAziAAziAAzgwmxyoVQCnzIH6e8ow8H2RWUCfcR30j0IB48P4wAd8FB/EhyoHxEfxkT/gj/hD/pA/5A/5Q/6QPxxxgD/mj/lj/pg/5o/5Y/6YP56WPx7c84awB3Dci6NWAZw6Yb4mu+/po3+MVcgbHwWk8QEfxQfxk38YzwAUH8QH8ZE/4I/4I/6IP+KP+KNqpRR/yB/yh/whf8gf8of8IX/IH66FPwwVwN8VnVg+mdOcgZSy83xPn6YMLf3D+MEP/BQfxAfxYZID4qP4KD6Kj+Kj+Cg+io91DvAH/AF/wB/wB/wBf8Af8AfjHOCP+CP+qC9/NNoDuKXSd5iZ4PvGSmj6lJkb+of+0bBSgPFhfOSZTfiAD/gwsZIIPuIjPooP4mNzJQg+4iM+4iM+4mNTpZz4ID6ID+KD+CA+iA+L7EXs+avnrw3PXysVwPVMi/S5/p4yVHzfrAB9igwe/UP/aFLA+DA+8AEfxQfxQXyYVEB8FB/FR/FRfBQfxUfx0fO3cQX4I/6IP+KP+CP+iD/ij/ij1fijyT2A65kCPo9nDtCDHtVMCv1Bf9AfRpWNxoPxYDwYD0GBxsx8fMAHfMAHfMDHppVhxAfxQXwQH8QH8UF8mFw5TXwUH8VH8VF8FB87iI8NFcCjFdjbcmzSTgW+b1aAPsWK5fqH/tGkgPFhfOADPooP4oP4MKmA+Cg+io/io/goPoqP4mNdAf6AP+AP+AP+gD/gD/gD/mBcAf5o+f5oVAGcZxaFyd+gXr6Wus/00B+MBzzAQ/FAPOQH+AF+gB/gB/gBfoAf4Af4AX6AH+AH+AF+gB/gB/gBfoAf4Admyg80VgAvUrzpKwpQgAIUoAAFKEABClCAAhSgAAUoQAEKUIACFKAABShAAQpQgAIUWKcKlBXAqfLXe1EBTQc66AfGAQ7gAA7gAA7gAA7gAA7gAA7gAA7gAA7gAA7gAA7gAA7gAA7gwOxxIK8AToM3TVL7XAxmehQK6A/6g/GAB3iIh+KBeMgP8AP8AD/AD/AD/AA/wA/wA/wAP8AP8AP8AD/AD/AD/MBs+IFQAXzpwmjP37j3b8pkiHsCp72Aq+++LzId6KN/GB+T4wAf8AEfxQfxUXwUH8XHOgf4A/6AP+AP+AP+gD/gD/gDz189Xx5xgD/mj/lj/pg/5o/798fFHsBh0jerLHucPtffh5kd5f/v+0I3+uk/xk8l8w0fxriAD/iAD/jAP5WZseKD+FDxzeKj+Cg+io/io/iYV47wB/wBfzAxDvARH/FRfBAfx+dd3D+6f3T/uLL7x4YK4LbMA3/enJFAF7o0ZWroF/qFftGeyWd8GB/Gh/GBAziAAziAAziAAziAAziAAziAAziAAziAAziAA31xYHDvG8IewCGFInayPJMiT7DxmR76g/GAB3goHoiH/AA/wA/wA/wAP8AP8AP8AD/AD/AD/AA/wA/wA/wAP8AP8AP8wKz5ARXArXv5yjyReSLzpK/ME7+LL/iCLziAAziAAziAAziAAziAAziAAziAAziAAziAAziAAzjQDwfKPYCLTVdSJlMuduVzFjef8D19yspw/cP4wIcRL/FRfBAf+Qf+qWJS+cfKSjr4iI/4iI/4OHyYJz6ID8OV5sRH8VF8FB/FR/GxnOziD/gD/qBcmZc/4o968kf3vOHSBRkWMixkWPSTYUFXuuIrvuIADuAADuAADuAADuAADuAADuAADuAADuAADuAADuAADkyTA2EP4EvL+t6whnu5iHmeb5DvCVxsClzkH/iePpX+oH8YH/iAj+KD+Mgf8Ef8If/s/mHkB/hj/pg/5o/5Y/6YP+aP+WP+mD/mj5MfcH/g/sD9gfuDNb4/sAewPYDzyX6ZJzJP9APjAAdwAAdwAAdwAAdwAAdwAAdwAAdwAAdwAAdwAAdwAAdwAAdmnwOVCuBU6eu9qHimAx30A+MAB3AAB3AAB3AAB3AAB3AAB3AAB3AAB3AAB3AAB3AAB3AAB3BgxjiQ7wFcWZYgz+zwuVi2KFXG0oMe+oPxgAfFSgF4iId4iId4iIfigXjID/AD/AA/wA/wA/wAP8AP8AP8AD/AD/AD/MC69gMqgFX6lnv0zFjmguvmuqnUt1IBDuAADuAADuAADuAADuAADuAADuAADuAADuAADuAADuAADkxyYKwC2CAxSAwSwRIHcAAHcAAHcAAHcAAHcAAHcAAHcAAHcAAHcAAHcAAHcAAHcAAHZpYDKoB13pntvPYcsOeAPQdU7uMADuAADuAADuAADuAADuAADuAADuAADuAADuAADuAADuBAjQP3vP6ShXyv22EmR9zjsfI5ruHte/roH2Wmj/GBD/g4jBfig/jIH/AH/AF/kCdT8kf8EX/EH5UPm/hD/pA/5A/5Q/6QP+SP3R+YXzG/NPID/DF/vIb+eBCXgA5xubWMPX7ne/q0ZU7oH8YHPuADPjRnWOIjPuIjPuIjPjZloIsP4oP4ID6ID+KD+DDJAfFRfBQfxUfxUXwUH8XHOgf4g9X5gzABHCqAY0bGMBMhZfDX3n1fZirQp6hw0D/GdDA+jI88kwcf8AEfxQfxUXyscIA/4A/4A/6IPywrYMRH8VF8HPpk/oA/4A/4A/6AP/B83fyC+ZVxDvBHvfgjewDbA9gewDayt5E9DuAADuAADuAADuAADuAADuAADuAADuAADuAADuAADuAADuDA2cKB0R7AZUZufabd5/GZd3rQo5qpqT/oD/rDKGPPeDAejAfjIWWw4gEe4AEe4EGR0Y6HeIiHeIiHeCgeiIf8AD/AD/AD/AA/sAZ+oNwDOC3HlFbU9rlYnokehQL6g/5gPOABHuKheCAe8gP8AD/AD/AD/AA/wA/wA/wAP8AP8AP8AD/AD/AD/AA/MAt+YDCsAE6ZSN6LjCQ60EE/MA5wAAdwAAdwAAdwAAdwAAdwAAdwAAdwAAdwAAdwAAdwAAdwAAdmjAPlHsApY2P0npWrfBeZDL6v60CfQaUyWP/QP8Y5YXwYH6NMSHzAB3yo+ih8xEd8nIwLiZPGh/FhfBgfnj94/uL5k/sn90/un9w/eT7v/qDggPsj90fuj9wfrfr+SAVw6EQyN2RuzFjmhgp14xa3rNSAAziAAziAAziAAziAAziAAziAAziAAziAAziAAziAAzjQxIGwB/AleUJJ/mXa9dZneugPxgMepC1d8AAP8AAP8KDY4gkP8RAP8RAP8VA8EA/5AX6AH+AH+AF+gB/gB/gBfoAfmAE/YA9glZ8qoFWAqwDHARzAARzAARzAARzAARzAARzAARzAARzAARzAARzAARzAARw4SzgwrAAut/wNgzsk8IyWmE9LzQ/ffU8f/WO4BYPxUWzFgA+lDviIj/iIj8lP1d/xAR/wAR/wYdw3uv9MKyvgIz7iIz7iY/W5gvggPhQrD4mP4qP4KD6Kj+LjJAfEhzOLj2UFcPGXRmtE+0wP/cF4SHsn4AEe4AEe4EGxlwoe4iEe4iEe4qF4IB7yA/wAP8AP8AP8AD/AD/AD/AA/wA+sfz+QTwDHbQuGM+fFLg4+p0wzeugPxgMe4EGxMgQe4iEe4iEe4qF4IB7yA/wAP8AP8AP8AD/AD/AD/AA/wA/wA/wAP7Du/UCtAjhlrngvMljoQAf9wDjAARzAARzAARzAARzAARzAARzAARzAARzAARzAARzAARzAARyYHQ6M9gAelnaVa6v7XJZC0yNfa15/0B/ypQGMB+MBD/AwpXrjAR7gAR7gQVH6gYd4iId4iId4KB6Ih/wAP8AP8AP8AD/AD/AD68sPhArghy4Ua3WnzIW4h4HP9NAfikwW4wEP8BAP8RAPxQPxkB/gB/gBfoAf4Af4AX6AH+AH+AF+gB/gB/gBfoAf4Admxw8M9wCu5CgViRq1Ndx9P64AfYoy97YXfeijfxgf+NCsAD7iIz7iIz7iY5MC4oP4ID6ID+KD+CA+TCogPoqP4qP4KD6Kj+Kj+Gh+cmXzk5UK4JS54L3IYKADHfQD4wAHcAAHcAAHcAAHcAAHcAAHcAAHcAAHcAAHcAAHcAAHcAAHcGC2ONBaAdyeW+QbClCAAhSgAAUoQAEKUIACFKAABShAAQpQgAIUoAAFKEABClCAAhRYjwoUFcBhZ+aF8M8wg8NneugPxkOqhMcDPMADPMCDYmUQPMRDPMRDPMRD8UA85Af4AX6AH+AH+AF+gB/gB/gBfoAfmAE/UFYAx81cw6a/w5fP9NAfjIekAB7gAR7gAR4UCuAhHuIhHuIhHooH4iE/wA/wA/wAP8AP8AP8AD/AD/AD/MD69wPjFcApc8V7kcFCBzroB8YBDuAADuAADuAADuAADuAADuAADuAADuAADuAADuAADuAADuDADHGgVgGcMle8FxksdKCDfmAc4AAO4AAO4AAO4AAO4AAO4AAO4AAO4AAO4AAO4AAO4AAO4AAOzA4HBve87qFx8998sjNVvKZBnH8Oexr4nj76h/GBD8Ve6fhY4aH4ID7yD/wT/8g/l5mv4qP4OLxf4A/4A/6AP+AP+AP+wPMDz088PyqLq8wvmF8xv2R+zfzi2s0v5ktAVzb/rfxnymRo/naU6eF7+jUpoP8UmTDGh/FhfEwqgA/4gI/ig/goPoqP4mNdAf6AP+AP+AP+gD/gD/gD/mBcAf6IP+KP+CP+iD9auT8a7QHckKk9tgeu7ycyuelTVES2ZXLRhz76h/GBD82ZnviIj/iIj/iIj02Z8OKD+CA+iA/ig/ggPkxWSomP4qP4KD6Kj+Kj+Cg+1iuJ+YOl/cEiFcCLFC/6igIUoAAFKEABClCAAhSgAAUoQAEKUIACFKAABShAAQpQgAIUoAAF1p0C5R7AxXGNMml8pof+YDykzDI8wAM8wAM8KDJN8RAP8RAP8RAPxQPxkB/gB/gBfoAf4Af4AX6AH+AH+AF+YP37ARXA625O3gFRgAIUoAAFKEABClCAAhSgAAUoQAEKUIACFKAABShAAQpQgAIUWJkCeQXwIFS0xMKWPHOnXErcZ3roD8YDHhRbf+MhHuIhHuIhHooH4iE/wA/wA/wAP8AP8AP8AD/AD/AD/AA/wA/wA/zArPgBFcArmzj3tyhAAQpQgAIUoAAFKEABClCAAhSgAAUoQAEKUIACFKAABShAAQqsOwVCBfB3Ll0+FywAACAASURBVBQlbilzI/2Hz0UmBz30D+MDH/AQD8UD8ZAf4Af4AX6AH+AH+AF+gB/gB/gBfoAf4Af4AX6AH+AH+AF+YDb8QFEBnJZ/TvPTPhfLYdOjUEB/0B+MBzzAQzwUD8RDfoAf4Af4AX6AH+AH+AF+gB/gB/gBfoAf4Af4AX6AH+AHZsIPVCqAR5v/DkIq1yiTp7IpcLm4ue/po39Mjou0WazxYXwYH8bHcPPotCmI+JlvDoKP+IiP+IiP+RJDo02zxAfxQXzkDzx/8fypIS54vlDES/cP7h/cP7h/cP/g/sH9k/vHOgf4g+X7g/EK4Mpyx2lD+/H30fIGvq9UxqaMF/qVD7OCNjEDZKhL+qz/pOUx6KN/GB91TuADPhTL5+AjPuIjPrr/qHJAfBQfxUf+gD/iD/lD/pA/5A/5wxEH+GP+mD/mj/nj5frjsQrg+sy5z+Mz6fSgRzXzUH/QH/SH9pUjjA/jw/gwPtoqV/ABH/ABH/ChubINH/ERH/ERH/GxqfJZfBAfxAfxQXwQH8SHyZVBxMel42OYAA57AI92bB5NnadlK9NUss/Fcm30KFLO9Af9wXjAAzzEQ/FAPOQH+AF+gB/gB/gBfoAf4Af4AX6AH+AH+AF+gB/gB/gBfmDd+YHGPYDb1tb3581r7tOFLk17EegX+oV+0b5XjfFhfBgfxgcO4AAO4AAO4AAO4AAO4AAO4AAO4AAO4AAO4AAO9MOBcg/gWNlavoaZGj7nCtCjzFzRH/QH4wEPSjMiXhQKiA/iQ57ZKD4aD3iAh+JjsVISHuIhHuIhHuKheCAe8gP8AD/AD/AD/AA/sF78gArg+LAiPcT3XjzMpwMd9APjAAdwAAdwAAdwAAdwAAdwAAdwAAdwAAdwAAdwAAdwAAdwAAdmkgPFBHDTKyRqxKX7W1++p4/+YXy0KYAP+IAP+IAPzQrgIz7iIz7iIz66/55UQHwUH8VH8VF8FB/FR/GxrgB/wB/wB/wBf7Aqf6ACWObCTGYuqFRWqa1S3d4QOIADOIADOIADOIADOIADOIADOIADOIADOIADOIADOIADODDJgfYK4EWKf31FAQpQgAIUoAAFKEABClCAAhSgAAUoQAEKUIACFKAABShAAQpQgALrT4HB3WEJ6LiaQv4Ka7kvhIpYn+mhPxgPeICH4oF4yA/wA/wAP8AP8AP8AD/AD/AD/AA/wA/wA/wAP8AP8AP8AD/AD8yeH1ABvP4m5R0RBShAAQpQgAIUoAAFKEABClCAAhSgAAUoQAEKUIACFKAABShAgRUpYAJ4RbL5SxSgAAUoQAEKUIACFKAABShAAQpQgAIUoAAFKEABClCAAhSgAAXWnwImgNffNXFEFKAABShAAQpQgAIUoAAFKEABClCAAhSgAAUoQAEKUIACFKAABVakwODu1168MAh7/2bZQvg3rGEd/hmMdgEu9gT2PX30D+MDH/BRfBAf+YOh2eKP+EP+2P2D+yf3j+6fPT/w/MTzI8/PhruCen7o+annx56fe37u+bnn556fe36+zp6flxXAxc17+8v39NE/jI82BfABH/ABH/ChWQF8xEd8xEd8xMcmBcQH8UF8EB/EB/FBfJhUQHwUH8VH8VF8FB/Fxy7jY5gAvjhE15C525qpVmZ2+74lk40++o/xgx9tlXD4gA/4gA/40Fwpi4/4iI/4iI/42LSSgPggPogP4oP4ID6ID5MrzYiP4qP4KD6Kj+LjmcfHWgVwPdMqfa6/pzlo3xeZWfQZ10H/KBQwPowPfMBH8UF8qHJAfBQf+QP+iD/kD/lD/pA/5A/5wxEH+GP+mD/mj/lj/pg/5o/547788eQewPVKX5/HK3/pQY/qnh76g/6gPwyTHSYy8YwP48P4MD7SHkh4gAd4gAd4EPpAQ+UGPuIjPuIjPuKj+DC5MqX4KD6Kj+Kj+Cg+io+rjo/lEtAx2yplWqTsO5+LzAt6FAroD/qD8YAHeIiH4oF4yA/wA/wAP8AP8AP8AD/AD/AD/AA/wA/wA/wAP8AP8AP8wHr3A8MK4FS55b1YS50OdNAPjAMcwAEcwAEcwAEcwAEcwAEcwAEcwAEcwAEcwAEcwAEcwAEcwIFZ40ClArhS7Oo/KUABClCAAhSgAAUoQAEKUIACFKAABShAAQpQgAIUoAAFKEABClBg5hQY7QEc9lYIpa+jNaV9pof+YDykPVfwAA/wAA/woNiDCQ/xEA/xEA/xUDwQD/kBfoAf4Af4AX6AH+AH+AF+gB/gB9a5HygqgONS3XHJ9vTymR76g/GAB4UCeIiHeIiHeIiH4oF4yA/wA/wAP8AP8AP8AD/AD/AD/AA/wA/wA/wAPzBDfqC2B3BK3EmVwD4XiTz0KNY21x/0B+MBD/AQD8UD8ZAf4Af4AX6AH+AH+AF+gB/gB/gBfoAf4Af4AX6AH+AH+IH17AfGK4DTzLX3IqONDnTQD4wDHMABHMABHMABHMABHMABHMABHMABHMABHMABHMABHMABHMCBGeJAWQE8XLI/bW3nvdgSmQ500A+MAxzAARzAARzAARzAARzAARzAARzAARzAARzAARzAARzAARzAgZnhwOCe14Y9gOMrZS6kdex9LjIZ6FEooD/oD8YDHuAhHooH4iE/wA/wA/wAP8AP8AP8AD/AD/AD/AA/wA/wA/wAP8AP8APr3g9UKoDjmv1x74ZU+eozPfQH4wEPipUA8BAP8RAP8RAPxQPxkB/gB/gBfoAf4Af4AX6AH+AH+AF+gB/gB/gBfmA2/MBoD2CZWzK3ZG7J3JK5JXNL5ta6z9yyMkWpAF7hFV7hlfsX9y/uX9y/8AP8AD/AD/AD/AA/wA/wA/wAP8AP8AONfiBUAF+0UGRupRlr7/TQH4wHHMABHMABHMABHMABHMABHMABHMABHMABHMABHMABHMABHMABHJhFDuR7AC+EzW4H+Sav6ZXWgS4++54++ofxgQ/4mCJC2C9gmFkoPogP4oP4ID6ID+JDccckPvIHsRu4f/b8gD/mj/lj/pg/5o/5Y/7Y/YH7I/eH7g/Xw/2hCmCVz+XezzI4ZjGDQ+aRfqvfykDEARzAARzAARzAARzAARzAARzAARzAARzAARzAARzAARyociCvAC5KucLgGFYCF5/Tn/uePvqH8YEPKZMdH8UH8ZE/GOcAPuJjUekjPogP4oP4ID5UOSA+io/iI3/AH/GH/CF/yB/yh/zhiAP8MX88bX9cVACnyd+0F7DPxWQ4PYq9ofUH/cF4wAM8xEPxQDzkB/gBfoAf4Af4AX6AH+AH+AF+gB/gB/gBfoAf4Af4AX5gJvxAqAC+KCA75mGkTISUl+Nz2uSyK33mv//52cLRA9nRv7tuTfSe2/WQbG7nQ7ITf/9f16T9qOem7/6BfBuME1/7TFkpM93+tvGh359teNBlefun991e7tGl/xv/eNc17/xesQlgV/GDnvTUn4wnPOHX+DV+jR/gB/gBfoAf4Af4AX6AH+AH+AF+gB/gB5brB8YrgCvLQKdydO+VCthV6DP3oIdlu37i09nxr/2n7L4Pv3C43PY09T33aW/PtnzPM7L9v3N1dvJbN48ylVZxXmd6/Hve8PfZya//Tbb/D561Ju1vfezPZVsf8/PZkb96R3bkL39zTa7DsKJ6irqf6XXy/3cz7ulIR+N9tHy+8WA8GA/GAw7gAA7gAA7gAA7gAA7gAA7gAA7gAA7gAA5MhwN5BXBeplTZucznfvTY+tifz45/9T9mp751y5rove3q1+UVyEf+8h1r0v5g14XZtqDBydv+JjsWqqDTDgjT7G9z8zuy+Ue9IDv25euyU/vuyOvep9m+9uitv/XD17XgifFsPBvPxjP/PNrRy3gwHowH44EfK3a4w0M8xEM8xEM8FA/EQ36AH+AH+IF14Qfufk3YAzhEpVQ2PjHzHtf09z19ArEaM3P0D+MDH/ABH/CxaUUD8UF8EB/EB/FBfBAfJlccEh/FR/FRfBQfxUfxUXyMe2dW+wF/wB/wB/wBf8Af9OAPKnsAy8yRmSMzR2aOzJx1kZmjckDlRKmA/ihzXOY4f8qf8qf8KX/KD/AD/AA/wA/wA/wAP8AP8AP8AD/AD/ADZ+oHyj2AQxANUWSy0ncUXH1PH/2jXilvfCTziQ/4gA/4ML6SCD7iY3FzLj6ID+KD+CA+VFdSEh/FR/GRP+CP+EP+kD/kD/lD/nBUAc8f88f8cZ/+eKwCuC2TaNgJ8zL0yUwL35edlD76h/ExUbmJD/iQBzF8xEd8xMdaZbv4ID6ID+Ijf+D+2vMFz1fqlSz8AX/AH/AH/AF/wB/wB/zBeKUrf8Qfrdgf3f2aC8MewIPhw/mFfM8Bn0eZF/TQH4wH4yFlIuEBHuABHuBBkZmIh3iIh3iIh3goHoiH/AA/wA/wA/wAP8AP8AP8AD/AD6xXP2AP4EUq06ypbk31M11T3f9vTxZ7stiTxZ4s9mThH/gHfoAf4Af4AX6AH+AH+AF+gB/gB/gBfoAf4Af4AX6AH1hLPzAYVgCnSg7vRQU0HeigHxgHOIADOIADOIADOIADOIADOIADOIADOIADOIADOIADOIADOIADM8aBxj2A62uK+zy+xjg96FFdc11/0B/0h1Eml/FgPBgPxgMO4AAO4AAO4AAO4AAO4AAO4AAO4AAO4AAO4AAOrDEHVACXa9TP2My9CmXXTaW6Sn0cwAEcwAEcwAEcwAEcwAEcwAEcwAEcwAEcwAEcwAEcwAEcwIE6B4oK4DT5GRYkr25cP1yj3vfF8gb00T/intHleDA+yj0c8AEf8FF8EB/FR/GRP+CPcj/AH/KH+R5f/DF/zB/zx/wxf8wf88f8MX/s/sD9UamA+4Nycp4/mro/sgewyl9r91u739r9OIADOIADOIADOIADOIADOIADOIADOIADOIADOIADOIADOIADZwkHxiuAz5KTstyB5Q4sd2C5AxzAARzAARzAARzAARzAARzAARzAARzAARzAARzAARzAARzAgfslB+wBDH7gB373S/jJ5JLJJelJRicO4AAO4AAO4AAO4AAO4AAO4AAO4AAO4AAO4AAO4MBZyIF8Cei4FHmaBEwLs/tcTArSo1BAf9AfjAc8wEM8FA/EQ36AH+AH+AF+gB/gB/gBfoAf4Af4AX6AH+AH+AF+gB/gB9a/H7AHsMwOmR1nYWaHil6V/Sr7VfbjAA7gAA7gAA7gAA7gAA7gAA7gAA7gAA7gAA7gAA7gwP2TA2EP4AvzifpBSNuJ89VhLixUvvpMD/3BeMADPBQPxEN+gB/gB/gBfoAf4Af4AX6AH+AH+AF+gB/gB/gBfoAf4Af4AX5g5vxAsQdwGcSHlZA+50GdHuXa//qD/mA84EHKlMMDPMADPMCDInMWD/EQD/EQD/FQPBAP+QF+gB/gB/gBfoAf4Af4AX5gffqB0R7AZQXwaA+HotMOP/s+r5CmT9rjQv8wPvABH0seiA/ig/jIH5QKpJs+fMTHfE8w8UF8EB/EB/EhV0B89PzA8wPPD/hj/pg/dn/g/qioIDa/Yn6FP57e/UG5B3DKUPBeZCrQgQ76gXGAAziAAziAAziAAziAAziAAziAAziAAziAAziAAziAAziAAzgwexwY3BOWgB7LvCgz9Ydr2tcz931f7JVc06Geyef7ck8A/Wc8s8n4MX7wAz/FjzEOiJ/jmfD8A/9Q9ZnGh/FRrRTBB3zAh4bKIfdX7q/cX7m/cn/l/qrCAf6Zf+afJ+ctJiqP+Sf+iX+6//inu1/zkIVBON3RBtZhzXqf6REhkFdC6w/GAz7gIx7goXggHvID/AA/wA/wA/wAP8AP8AP8AD/AD/AD/AA/wA/wA/wAPzArfqB9D+CWys16JpXP45lV9KBHNdNMf9Af9If2Sg3jw/gwPoyPtkxkfMAHfMAHfKjtkeb+vHFlJfFCvBAvxAvxQrxoWtlSfBAfxAfxQXwQH8SHwIFRBXDK3PBeZHDQgQ76gXGAAziAAziAAziAAziAAziAAziAAziAAziAAziAAziAAziAAzgwWxyY2AM4ZUi1ZUr5flyBeiYJfehTVUD/GM80Mj6MD+NjpAA+4EM1ExEf8REf8dH9V3OlCj7iIz7iIz7iY1Mln/ggPogP4oP4ID6ID5OV3uKj+DgWH+9+ddgDOGxe0DpzH/eA9T192iqi9Q/jAx/wAR/CuhENcRQf8REf8REf8VF8mOSA+Cg+io/io/goPoqP4mOdA/wBf8Af8Af8AX/AH3TuD8o9gEcbdxezwz6njbzpoT8YD3iAB3FyM730B/1BfzAe8IA/5A/5Q36AH+AH+AF+gB/gB/gBfoAf4Af4AX6AH+AH1rMfGO0BLNNKppVMK5lWMq1kWsm06jzTakF8FV/FV/FVfBVfxVfxVaXTOAf4I/6IP+KP+CP+iD/ij/gj/qjKAf6QP+QPO/eHwwrg0WrhaVdC78XuhHSgg35gHOAADuAADuAADuAADuAADuAADuAADuAADuAADuAADuAADuAADswGBwYTewDXMy18Hs+8oAc9qpko+oP+oD+MMpOMB+PBeDAeUgY3HuABHuABHhQVHXiIh3iIh3iIh+KBeMgP8AP8AD/AD/ADa+AH8iWgi3XK04x1Wrf97Pm84UGXZdse+wv5iR3+y7dnp751y9TPd/N3Pymbf9TzQ9s3h2N4R7Zw9GC+1/Lo1b/e51z9uixqcezvrsuOffmPp97+YH573v7pfXeEf/9h6u3na7HP78jmv/8F2fGv/af8WkxT/2lfb+1Nd3zRm954cvb5h7PdHzm/s9v/ur6u79l8f6d/69/6d//PD9zfuL9xf+P+RrwVb8Vb8ZYf4Af4gdn2A6MK4JSJdBa+7/jR92ebvvtf5Ffq9N7bs33vePQo82wK57th90XZrl/44nCsHAkTwIc//7Yi82kK7cd2tj7258O/xSR4fO192/dnC/v/YWrtx/Pc9rhfzI8jvg7+0QuyE2ESdlrnn9o552lvz7Z87zPXpB+k6z3/iGdlWx/z89mhT70hO/7VT0+1H1R1iBPx0+6H077e2gtJD1PkDL3prb9NL64bb8ab8Wa84QAO4AAO4AAO4AAO4AAO4AAO4AAO4AAOtHGgUgFcKYY8y/5z9y/8TTa368LhWd3z2tF/T+NUNz30UdmO5183bOrYl6/L7vsPxUTotF7nPu0d+cRneh34/WdmJ74+mpSexnHMP+rHs3Oufn3e1NEv/l6YAC3+e5qval+Ydj9I5xk1iFrsffv359XQa/E6741Fu2ulwVqcszYpQAEKUIACFKAABShAAQpQgAIUoAAFKEABClCAAhSgwP1BgbwCOK3+PMoUCMX9obo9fZ7177c84plZnACNr0OffH127G9+b+rnt/3Z7882P+xfhKWfD2QHfv8Z2ck7b5mqvhseeFm28wV/nC+BfDJM/O5//zOn2n5c7Xpu684w8fmCXIOjX/pYlh07mFcAT7N/bQvLYA/md+aVt6kCeZrtF5kY4ZR3XjiswF6L9rMtO7KNF1yRnbjthqnqn87/bOLLWlw/+p098Un/CYG54jciH/Vv/fts8Z/Gt/GNbyOe4bv4Jr6L7+J7UZnCH/AH/AF/cLY+f8c3fMM3fMO3VIm8fu7/igrguJR5XNI+vc7Cz4OtO/LJz7zico3OL1Yhr2X78fLmx7A3aHCWX2/nd3aPZ9fX9T2b45X+rX/r36UCa+TX6E//XAH9z/2C+6Wz+vkAv8VviffivXjP7/B7Z/98gHgv3ov34v39Pd6XewCnGWnvRWYyHeigHxgHOIADOIADOIADOIADOIADOIADOIADOIADOIADOIADOIADOIADs8eB8QrglOnufbgsT1q+wnslM1D/0D9iRYR+oB/oB8YBDuAADuAADuAADuAADuAADuAADuAADuAADuAADuAADqw7DoQK4AcXm5IOK1/Tf6SMBp/po38YH3hQZDjhIR7iIR7iIR6KB+IhP8AP8AP8AD/AD/AD/AA/wA/wA/wAP8AP8AP8wPr2A/kS0Pk62ClDIy2M7nORsUGPQgH9QX8wHvAAD/FQPBAP+QF+gB/gB/gBfoAf4Af4AX6AH+AH+AF+gB/gB/gBfoAfWPd+IK8AHoRUjThTX39Pm+H6nj76h/GBD+McwMdis3TxQXwQH8QH8UF8qHJAfBQf+QP+iD/kD/lD/pA/5A/5wxEH+GP+mD/mj/lj/nit/PFoD+B8rnpUrlxMXfucljOhh/5gPOABHhTLG+EhHuIhHuIhHooH4iE/wA/wA/wAP8AP8AP8AD/AD/AD/AA/wA/wA+vXD1T2AG7PTKpnKvk8nrlED3pUM7n0B/1BfxBPUmYfHuABHuABHhSZvniIh3iIh3iIh+KBeMgP8AP8AD/AD/AD/AA/wA9Mzw+UewDHkq60aHv5nu/gXZm59n1REZ10oI/+YXyMKkHxAR/wUXwQH5tXTsFHfMRHfMRHfGxaWUt8EB/EB/FBfBAfxIcySdDz52ElNX/AH/AH/AF/wB906A/GKoDbZt7Tn/u+eWaePoUu+of+0ZTJaXwYH/iAj+KD+CA+TGb6i4/io/goPoqP4qP4KD7WK+H4A/6AP+AP+AP+gD/gD/iD8Up5/mjl/qhSAZyyrWqVwMPMI98XCtBnrBJa/ygz04wP4wMf8FF8EB8aVlRJ4YF/GM/k5h/4h9FSQ/w1PuBDtdIDH/ERH4fuyf2F+wv3F+4vJjng+Zvnb56/iY/io/goPi43PhYVwOVN5jCzwOf8ppMeZaaF/qA/GA94EJa9z/fowAM8wAM8wAM8FA/EQ36AH+AH+AF+gB/gB/gBfoAf4Af4AX6AH+AH1rUfKCeAKwmW/pMCFKAABShAAQpQgAIUoAAFKEABClCAAhSgAAUoQAEKUIACFKAABWZSgbEK4PblA9rK6v15c7k9XejStAyBfqFf6BfiDA7gAA7gAA7gAA7gAA7gAA7gAA7gAA7gAA7gAA7gAA7gQL8cUAE8k/P2DpoCFKAABShAAQpQgAIUoAAFKEABClCAAhSgAAUoQAEKUIACFKDApAKDu18V9gCOiQb5K2UcpE/lno++p4/+YXzgQ+gDMSMHH4toIT7keyKLj+Kj+Cg+io/iI3/AH/GHZTTkD/lD/tj9geeLnq96vuz5uvkFzw89P/X82PPz9fL8XAWwtAAKUIACFKAABShAAQpQgAIUoAAFKEABClCAAhSgAAUoQAEKUIACZ4kCowngvJJpWMo0eXq+p4/+0T7sjQ/jw/gwPtoUwAd8wAd8wIdmBfARH/ERH/ERH5sUEB/EB/FBfBAfxAfxwfxMXQH+gD/gD87YH6gAPktm8p0GBShAAQpQgAIUoAAFKEABClCAAhSgAAUoQAEKUIACFKAABShAgbAH8AVhD+BK5W89k8Ln8cwKetDDeBmR03gwHowH4yEpgAd4gAd4gAeFAniIh3iIh3iIh+KBeMgP8AP8AD/AD/AD/AA/sMZ+QAWwJAAKUIACFKAABShAAQpQgAIUoAAFKEABClCAAhSgAAUoQAEKUIACZ4kCowrgNBPtvchQowMd9APjAAdwAAdwAAdwAAdwAAdwAAdwAAdwAAdwAAdwAAdwAAdwAAdwYMY4UKsAXgjz2nE56Pp7mu72PX30D+MDH8Y5gI+FAuKD+CA+iA/ig/hQ5YD4KD7yB/wRf8gf8of8IX/IH/KHIw7wx/wxf8wf88f88XT98eDbYQ/gQSVzYSHMYPs8qgCmh/5gPBgPaUUAPMADPMADPAg3K8E34iEe4iEe4iEeigfiIT/AD/AD/AA/wA/wA/wAP8AP8APr1w+ECuALForCrcrM83Bj4vhFKuzy/TBDhT6V/qJ/GD/4gZ/ig/hQZjCKj+Lj0E/yB/wBf8Af8Af8AX+QVzjwR/wRf1QaQ/6QP+QP+UP+kD/kD/lD/nia9wfDPYDrmRr1PXB9P57JQZ8iw60t048+9NE/jA98aM4Exkd8xEd8xEd8bKqUEB/EB/FBfBAfxAfxYbKSTnwUH8VH8VF8FB/FR/HR/OTK5icrFcCVTLw8Q7VtS8cUdHzfvOUlfYqgrH/oH01bihsfxgc+4KP4ID6ID5McEB/FR/FRfBQfxUfxUXysc4A/4A/4A/6AP+AP+AP+gD8Y5wB/dCb+6H6zB/DczofkFaun9t6+Znscb7jgitD+N7Ls2MHWytm+18yfe+Bl2en/ecuatd/3+fl9ew7Yc2D97jlgfBqfxqfxaY8we4TZI8weYfwAP8AP8AP8AD/AD/AD/AA/wA/wA/wAP8AP9O8HiiWg4ytVbBa7/nb2eTC/I9v2uF/MNlxweXbi1huyI3/59k5/Px1u2/HH9rf/6O9nmy55dP6/nrrzpuzAv39+dnr/HcWS+x2fb9PvbbrkUfkxDOZ35l8fveF92aFPvW5q7cc2z7nmDdn8o16Yt79wdH9235/+fHb8lk9P5fxTf9r22F/MtnzvswoNvvzR7Mjny77QYX9b6nrO7bowP4bjX/uPoS/cPNXzn1Z/63L8LqWn70sFeuInfelrPAcFjK+p+gV6R6M0HX9ofBvfxpvxhjd4y+/z+/wAP8AP8AP8AD/AD/AD/AA/0JcfqO0BXAbdUClbZGKt/vPO5/9JtjFMgKZXMfn5+s5+vyj/bj/ec3/oN4eTjukYTtx2Q7b//c/o5PyWan+wZUe2+5f+63DyNx3DwT/5uez4332s3Pe9O72bjmfLI344O/eH3lGJpsUk8N63/R/ZwpEDi+q31Pkt9/utj/2FPBGg+rrvT38uO/aloEGH/W2x49l86aOyHaE/pte020/jKV6Pzd/9A9mpUIl9+HNvm9r5V8fzIFTEL6QkiCnpX29/buvOYhJ+Ddrvim/L7f/a6yae0HvxeEcf+uBpv36KvvQVz8XzLu6PxWvxWjwRT8QT8UQ8Wf3zZvFUPBVPxVPxVDwVT5eOp6M9gNOsWIeVNrHacvcv/T9jvbWFkwAAIABJREFUk37xwz2vfvDozzpsrylTYs+rvxYmX3e0H0PP7W+qTTqmAzn+1U9nB0Mlcl8z+9XMoaZJ8Pj9gfc/PTvx9S9OpdJl5wvGEwFi+ydv+2K2//efPpX2Y3vnPn08GSBWg+/7tz8wtfbjMcztDmPiF4sxMe3zT+MjJSWcuvOWqepfHZ8xGWBr+PfQJ1+XV8RX+6vMxwqueubTNPjjerqexnepgPE81XiLb+VNQA/+vslv05ve4r14L96L9+JDUIDf4/esJOP5Dv9dKICHeIiHeIiH64KH5R7A5UOL0dLzZWXqcKvYFX0ebN2R7XnV1yp3w1l2et8dofL0n6zo92LwCIXJlcrdpT/v+snPZBsedPnYMcQP+ST0Cn7vTNvf+NBHZXHys/5Ky0Cf6e+t5P8/t7L8c/U4DoTJ1+O3fvGM9FxJ+zETo14JHo/j2Jc/lsVK6FGmxtLXc6Xtx4dS1WWwY/txEj4uBz6t9lN/O/9Xvplfhjj5eSRMfk67/VgJfc6T35if/6FQgTzt9mN7m8K42Pb4X8oOX/++7MTXwlLkeSV/v9ff79N3NfzQf/Qf/efM/Be96LUW/oKf4KfEa/Fa/BF/xJ9+nu/hK77iK77iK76633K/xQ/Mnh8Y7QFcn6GsZ+qs8Pv5R78wTDa9Yfi3Y9VrnHiayARa4e9PzKzWMgvq7cevj3z+bdnhvwxL71YzUXpqP/5sU/Xrvt9+4vgetD22HyfAd/3UZ8ZaOPWtm7N9735iq3xdX5+4D/KO2kR4bD8eR+Oro/5X/e1YCb7zx/8kTwiIiQgHPvRvptp+OpaoxYYLrhivfO3x+k9L37F2erh+fr+iAH2nxm/jp0EB/U//m5J/Mv6MvwkF8Ad/8Gdq92/GX00B/MEf/MGfNgXwAR/wAR/wYWrP9z0f9nx4qID4u6z4O6wALtZMjyV4QcK8Eq/4nDK8VvP9xgsuzyfdTn79huz03js6//38sBc5/vlHPCvsA/zDeaXjsVs+nR394vs6Pb+l2p8LldBbH/uL2aYHX5GdPrI/OxwmoE+G5Ye70nep9uP3cw+8LDsnVFzOzYd9V/fdnt33idcEMQ52cn2X0368PhvDpOeWhz0pv/5HbvxovgdtF/1rue331b+1v/j4ow99VhM/9B/9R//pz58ZX8aX8WV88cf93P/iK77iK77iK7728XxVfBFfxBfxRXwRX8SX7ucvz+b42l4B3J674xsKUIACFKAABShAAQpQgAIUoAAFKEABClCAAhSgAAUoQAEKUIACFFiHCoQK4ActDNJ6v3nFb8ik8TlcqmKzYXroD8ZDuZ6C8YAH4oP4yB/wB/wRf8gP8AP8AD/AD/AD/AA/wA/wA/wAP8AP8AP8AD/AD6x7P1BWAJfrPg9nqH0uNilOL3rQQ38wHvCgUAAP8RAP8RAP8VA8EA/5AX6AH+AH+AF+gB/gB/gBfoAf4Af4AX6AH1jPfmBYAbwQHurHSkfvdNAPjAMcwAEcwAEcwAEcwAEcwAEcwAEcwAEcwAEcwAEcwAEcwAEcwAEcmE0O1CqAU+aW9yKDiw500A+MAxzAARzAARzAARzAARzAARzAARzAARzAARzAARzAARzAARzAgdnhwODbrwx7AMe1utsqgOOeDr6nj/7RXCFvfOADPuIjPuJj0woq4oP4ID6ID+KD+CA+THJAfBQfxUfxUXwUH8VH8bHOAf6AP+AP+AP+oBd/ECqAHxQQG/M2UuZCWrd99Nn39NE/jI8iswcfCgXwMfUH8UF8EB/EB/FBfOQP+CP+iD/kj90fuD8o/ID7I/dH7o/cH7k/cn/k/sj9kfsj90fr5f5otAewTBuZNjJtZNrItOkl02YBX/EVX/EVX/FVpYNKB5UO4xzgj/gj/og/4o/4I/6IP+KP+KMqB/hD/pA/5A/5w079YV4BXCnr858UoAAFKEABClCAAhSgAAUoQAEKUIACFKAABShAAQpQgAIUoAAFKDCjCkzuAZxn2oyWrZmoXPM9ffSP4bJOxkdtj3B8wAd8wIdgiOKyZ/iIj4Nq5q74ID6ID+KD+CA+8gf8Ub2yiz/gD/gD/oA/4A/4A/6APxiv/OaP+KMO/VFlD+DRFHaxZ4nPSQF66A/GAx7gQaEAHuIhHuIhHuKheCAe8gP8AD/AD/AD/AA/wA/wA/wAP8AP8AP8AD+wvv1AWQEcDjJE7bzy1zsd9APjAAdwAAdwAAdwAAdwAAdwAAdwAAdwAAdwAAdwAAdwAAdwAAdwAAdmkgP2AJ7RtbsdNgUoQAEKUIACFKAABShAAQpQgAIUoAAFKEABClCAAhSgAAUoQIG6AqEC+IEL+R5trTP45R52vm+Z4aeP/mP84EfbCgr4gA/4gA/40LzCDD7iIz7iIz7iY9MKZOKD+CA+iA/ig/ggPkxyQHwUH8VH8VF8FB/PPD4WewCXk7tpdtjnYjDRo1BAf9AfjAc8wEM8FA/EQ36AH+AH+AF+gB/gB/gBfoAf4Af4AX6AH+AH+AF+gB/gB2bDD1QqgOuZROlz/T1lGvi+yDyiz7gO+keRiWJ8GB/4gI/ig/hQ5YD4KD7yB/wRf8gf8of8IX/IH/KHIw7wx/wxf8wf88f8MX/MH/PHffrjsQrgYeZGqAjOFtnYO/M9ffSP1mXTjQ/8wM+m5SjKzDjxQ/wQP8SPlm1FxE/xU/wUP9uWdcMHfMAHfMCH5mUf8REf8REf8REfm5bFFR/EB/FBfMjjw2gP4LaMG3/enIlDF7o0ZSjpF/qFftGewWp8GB/Gh/GBAziAAziAAziAAziAAziAAziAAziAAziAAziAA31zYHD3K8MewCElJHa2PDMk7vnqMz30B+MBD/BQPBAP+QF+gB/gB/gBfoAf4Af4AX6AH+AH+AF+gB/gB/gBfoAf4Af4gZnzAyqAW/dqlYEiA0UGSt8ZKH4fZ3AGZ3AAB3AAB3AAB3AAB3AAB3AAB3AAB3AAB3AAB3AAB3CgWw6UewCHHw3/pMrfXGSf6VFmdukPxgMe4KP4UAm+4qP4KD7mmc/8AX/AH/AH/AF/IB6Ih/wAP8AP8AP8AD/AD/AD/AA/wA+sUz9gD+BuZ9RlKNBTppJMJRzAARzAARzAARzAARzAARzAARzAARzAARzAARzAARzAARzAgbXiQNgD+IGh3jcbVfzmezqEz/ma7sWi3r6nzzCDQ/8wPvABH8UH8ZE/4I/4Q/7Y/YP7p7QihvsD9wfuD9wfuD9wf+D+wP2B+wP3B+4P3B+4PyhWzHN/5P5oHd0f2QPYHsCjZRzTco7ei2Ut6UAH/cA4wAEcwAEcwAEcwAEcwAEcwAEcwAEcwAEcwAEcwAEcwAEcmDEOVCqAU6Wv96LimQ500A+MAxzAARzAARzAARzAARzAARzAARzAARzAARzAARzAARzAARzAgRnjQL4HcKUsvdiwe7QMdBefN15weTbYsiM7vf8fslN7v9H57y91vBt2XZRtvuxJ+XIsx2+7ITt9583DMvQuzm+p9uP3mx72pGzjBVfk53/yti9mp/bdPsqY6VjvpuPJ5ndkWy67OpvbdWF24tYbshNf/+JU20/Lig92XphlR/dnp48eWJP2p3W90/lqr3ueLGe80b9Yxl//0/+Ml279DD3pKb6IL+Irf8Ff8Vf8AD/AD/AD/AA/wA/wA/wAP8AP8AOz4Ad6rQCOk447fvQPsk2XXplPvsbXsS99JLvvE68Nk4AHyr0R+p0xP/eaX87mH/3CYfvxP45c/97s8CdfO5X24+Tz9uf8QT75m14LYQL0UNDg6Jc+OpVK482P+OHs3GvemA3mdw6P4dSdN2X7P/RvsoUwET2NzJ3Nlzw6O/fpv5nN7b44P4bY/oE/+dnRZPwUKq5jf9wa+sKmcCynw3kf+tzbpnb+1cyYuZAQMRcSIk5+6+apjQOZOf1yhr70nQZH9TP9TD+TaYsDOIADOIADOIADOIADOIADOIADOIADOIADOLAsDoxVAHc8Cbfrx/802xgm2+qvoze8L0wCv6b3yc8toep2+3P+3UT78Q8Of/43siOf+43eJz93BA3ihGP9FSeB9//eD2UnQzVyn4N1ECagd//0Z8cmf9OxnLj1+mz/+5/ea/uxE8ZJ8F0NxxA1uPet//tUJkHj5G/sjxtqE/F73/WEqU4Cx/64OfTL+Irnvy/0gWFFesfjr61fzQUtYlLE6b23Z0e//LHer3+f/XtZkJuSrs5T0NUfmW8cwAEcwAEcwAEcwAEcwAEcwAEcwAEcwAEcwAEcwIH1wIHeKoBjxWec/Gx73fOqB63Z5Gs8ptNhKeZ7f+Of9Dr5FSdf97z0/23VYBqT0Oc8/peyrY/7pdZj2BsmYPPlqHucJNsajmFbyzEcCRPxh8JEfJ/tR9jGyt9zQjV4/XX8q5/ODnzo/+y9/Xh+sRJ7+9N/a+wQptEP68Fm1099LkyEX54fx7SSMerXN1bmb3nEs/L2p3H9m/rXtnAMUf8j4Rj67n9+n+lj+pg+HMABHMABHMABHMABHMABHMABHMABHMABHMABHMCBqXHg26/4joV8reowGVQ0Gtfwr3yOewKv4Pu45+2OlurbOPGUV7+G/XjzPRNW8PvD413k78fJ17kwCbvoJHSP7S81CZ5PPn7web2df7ye2578xmzrlS9q1WD/+56WnQz7AXd9/avXZ8eP/eGw6rV+IIfD5G+cBO6z/di/4mRfnASuv06EPngg9MW+24+/3zYZP54M0c34W2x8nP+r/3MowzTPP/Flw66Ls92VxIhpn3/iW+LDWrWf69Ejf/w+ffWv/vyF8WV8GV/GV1/3L/iCL/iCL/jS/fOp5Tw/wl/8xV/8xV/8ncbz4S7nX8S3cj7L89Ve55fEx9mOj4O4BHScDWqbcU4zRWf6/cZQYRgrDZeqAF7p76fjWezvty2/HP/OqbD08t53P354eGd6fstpfzkVwHECtA/90/FtW6T6NrYbl2CO++H2cf55x4qT0Iscw6GwFPhiFZhd9Y+VVgB31X5bBXDqh33qX+9f1XERtY/XYJrtx34RK4A3X/akfGnye375f516+/F8872YQ/txEnza578cfqTx0ycfuuzfTZlrfr9QQP9qzuzUP/QP4wMf8BEf+YdJDoiP4qP4KD6Kj+Kj+Cg+1jnAH/AH/AF/wB/wByvxB2ECOFQAx4rfYaZEqkCsva/g+x3Paa78LJb9fWtZaVy2s4LfLyr52v/+lodd3boHcJz0isvPLvb3l/r95Xy//Tl/EKpfrx5ONKf/WDh6INv3rseH5Ze/UejQw/nH383mt4dlqG8ME207Jo6hWP44VCD32H7UN06y7X7p304cQ5x43vuux4V1iA/2dv7V67v7pz8/XPo4ihGvQWx/Yd8dU2k/ZhKeG5aA3hKWgo6veP77g/6n77xlau2n67EpTL5mRw5kx776qd6vf9/9y+/3x4+++ej3+4t/y4lP9Kc/fuJnX/4TX/AFX/AFX1KlQHfPV/i7xZ//0Ic+/Af/wX/wH/wH/1FU8vNfY75okfkz/uns90/DPYD7yCTKwqTj9me8c2z537Y9R/tov23Z3Vj1eDhMAFdnzPtqfy5qEJbC3hT2RK5O/t73xz8TJt8+PawM66v9VOm4MxxDdTnsuPz2/rD3bRYmQadRaRj3nI1Vn0mH2P7BcA1Oh0rsabSf9I2VwJsuvTJUgN+UHb7+vVM7/+r1jZXhG3dflB2vVJ72ef2nqa9MJJlIK8lE0v9lsspklckqfogf4odKF5Uu4xzgj/gj/og/4o/4I/6IP+KP+KNpzF9YqbDoZ/w3/31W+u/RHsAtmWL1ytQVfJ7bujOvvIzL3Z4+sr9ck7y/9sYyPcLxbth9cd5+PI4T3/xKdvpboeKyLfNhBedXb6/p88ZLHpVtvOCK7NTe2/O9j08fDTo0Vd721H6sBN50wcOH1+H4bddPtf1p66296Y2v5fR/18P1mCbv9Df9TX9ryPzuyV8Yb8ab8Wa8TVRa4M3U73f58UUy9/VH/bFaCaQ/6A/6w9Sfh7pfcL/gfsH9gvuFWmU2P8KPTNGPlHsAp7L4YY1quTyzz4UC9CmWA9Af9AfjAQ/wEA/FA/GQH+AH+AF+gB/gB/gBfoAf4Af4AX6AH+AH+AF+gB/gB/iB9ewHBsMK4JR54L3IQKADHfQD4wAHcAAHcAAHcAAHcAAHcAAHcAAHcAAHcAAHcAAHcAAHcAAHcGDGOFDuATxaTT5t/Jx2WfC5WE6KHsVuAPqD/mA84AEe4qF4IB7yA/wAP8AP8AP8AD/AD/AD/AA/wA/wA/wAP8AP8AP8AD+wjv2ACuByDfYZm7lXoey6qVRXqY8DOIADOIADOIADOIADOIADOIADOIADOIADOIADOIADOIADOFDnQNgD+DvyCfq8c6RdXn2mh/5gPOBB2sIBD/AAD/AAD4otXfAQD/EQD/EQD8UD8ZAf4Af4AX6AH+AH+AF+gB/gB/iBGfAD9gBW+Wvtfmv3W7sfB3AAB3AAB3AAB3AAB3AAB3AAB3AAB3AAB3AAB3AAB3AAB3DgLOHAsAI4bO5aZu6Et9GS1Wkrh+F76Pu+p89Ev9B/jJ+iMgwf8HO4Zbr4UcZVfMRHfBQfxEf+gD/gD5IfqL/jAz7gAz7gQ3G/gI/jOogP4oP4ID6ID+KD+MgfrNYflRXARVAdrRHuMz30B+MhrZmPB3iAB3iAB8UeGniIh3iIh3iIh+KBeMgP8AP8AD/AD/AD/AA/wA/wA/wAP7D+/UA+ARy3LRhmlhW7OPicKhnpoT8YD3iAB8XKD3iIh3iIh3iIh+KBeMgP8AP8AD/AD/AD/AA/wA/wA/wAP8AP8AP8wLr3A7UK4JS54r3IYKEDHfQD4wAHcAAHcAAHcAAHcAAHcAAHcAAHcAAHcAAHcAAHcAAHcAAHcGB2ODDaA3hY2lWure5zWQpNj3ytef1Bf8iXBjAejAc8wMOU6o0HeIAHeIAHRekHHuIhHuIhHuKheCAe8gP8AD/AD/AD/AA/wA+sLz8QKoAfsFCs1Z0yF+IeBj7TQ38oMlmMBzzAQzzEQzwUD8RDfoAf4Af4AX6AH+AH+AF+gB/gB/gBfoAf4Af4AX6AH5gdPzDcA7iSo9Rc6Vj/H+qZ7r4fV4A+IRpO9KrRH9CHPvpH+wAxPowP48P4aFMAH/ABH/ABH5oVwEd8xEd8xEd8bFJAfBAfxAfxQXwQH8SHSQXEx/tFfKxUAKfMBe9FBgMd6KAfGAc4gAM4gAM4gAM4gAM4gAM4gAM4gAM4gAM4gAM4gAM4gAM4gAOzxYFaBXBMiYpT/20v39NH/zA+8KFZAXzER3zER3zExyYFxAfxQXwQH8QH8UF8mFRAfBQfxUfxUXwUH8VH8bGuAH/AH/AHXfqDogI4TPouhH9SBkfRySoz2b6nj/5hfJSV8fiAj+KD+DjM+OQP+AP+gD/gD/KVg/gj/og/4o/4o7Iihj/kD/lD/pA/5A/5Y/cH5pfMr5lfHPqBtZx/LSuARw8t0sML72kRdO/FYuh0oIN+YBzgAA7gAA7gAA7gAA7gAA7gAA7gAA7gAA7gAA7gAA7gAA7gwHrnwHgFcMrU9F5kbNKBDvqBcYADOIADOIADOIADOIADOIADOIADOIADOIADOIADOIADOIADODBDHKhUAKeVpVPmhs+FAvQoMln0B/3BeMADPMRD8UA85Af4AX6AH+AH+AF+gB/gB/gBfoAf4Af4AX6AH+AH+AF+YL37gcG3X/6AuFlPsSZ5OXM93MMqfo5r9vuePvqH8YEPeYYbPlbihfggPvIH/AF/wB/wB/wBf8Qfpj3ePD/w/MT9gfsD9wfuD9wfuD9wf+D+wP2B+wP3ByM/sMb+OF8CulLe6T8pQAEKUIACFKAABShAAQpQgAIUoAAFKEABClCAAhSgAAUoQAEKUGBGFRjtAdwwEz22B67vJzI56RMqxFNmn/6hf9QyfY0P4wMfypU18BEf8XGU+VjfK8f4MD6MD+OjbQ8tfMAHfMAHfGjeYw8f8REf8REf8bFpD1LxQXwQH8SHWnxQATyjM/cOmwIUoAAFKEABClCAAhSgAAUoQAEKUIACFKAABShAAQpQgAIUoEBdgXIP4OKP84q9PFOku8+DXRdmGy+4PPx7RXZ63+3ZsZs/lS0cO9Bbe/Xjz7ZszzZffnW2+ZJH52d48ptfyY5++aPZwtEDvZxvk36bLn10Nv+IH87mdl+cLRzZn5247frs6Jc+mmVHD3aud9v12xTOf9MlV2Ybdl+YnbzzpuzYLZ/OFvbdMbX24wXfsOvibG7XQ/L+dfLOm6d6/n31767Hi9/rlj/0pGeX8Ux/0p/0p+78ofFkPBlPxhN/3s/9N77iK77iK77iax/Pd8UX8UV8EV/EF/FFfOl+/rTv+NprBfCWR/xIdu5TfjkbzO8cTjwvHN2fHfzjn8mO3/Kp3qfjN4RJ553P+Xf5xGv1FY9h3/uelp0KE6F9v7Y/451Z1KH+ipOwBz74vHxSvO9X2zHE63DsSx/pu/lw/Xdk2x7/0mzrlS8ea+vwZ9+SHf78b/TefmogXoetV76oSEbY+43s6I0fmWr76TjiZHwWSvFP7b1jKtd/agJriAIUoAAFKEABClCAAhSgAAUoQAEKUIACFKAABShAAQpQYM0VyCuA49LgsfA3z+RpeF/J93GSa+cL/+/GE4wTsHvf+bhi8ismUPXQfvzd3T/z+SxOAje94gTg3nc9LlTkhkrgntqPlcc7nvOHrRf5xK3XZ/vDRHRf7cfrGSde479tr/w6fOumzq9/tR+d+5RfyebDxGvT6/Dn3podCf923f+q7Ud9t7boEK/Bgd97Wu/tx/Pb8OArsu1Pf2e2Mbyn16G/eHV29Ib3TqX9NL5jv9zysCdlp0MV/NEbP9r79e+zf/fJj6SX4+8+PtTHZ9/j3+93G99dv5Ge+IAP+IIvXd4/4Su+8p/F8wjxVXwVX8VX8bW757P8BX/BX/AX/BV/yV/ff/11bxXAe152Y1ju96LWicdYAXzgQ8/rbQY8Vnqec82vLPr7hz7x6uzI9e/t7RiW0iA2vP99/yosCX1DL8cQ9Y/HsNir7+sQJ+B3//TnFz2Ge9/yyF4rYZfSYVqV0DEhoqj+HX/12QfqbTWNi771b7r4cWzGpeFjJfyhT7yml/7vRylAAQpQgAIUoAAFKEABClCAAhSgAAUoQAEKUIACFKDA/VGBUAF8/kJKsR2EVIBizelYEpsyI0YpuMv9frB1Z3bea/+/RfWMe+He+8v/S6W9eBjdtB+PP04wxcmuxV4nw8Trvvf+4DAFpMv2B1t2ZOe9bnEN4rHFCtj4bywB7bL9eP22hErP7YtUICdt7n7ld/TSfuxG848OE/GhAnixV0wEOH7zJzs//yKzZSHbetWLF00GiMtgH7zup3trP/bHubAX9p6XfalRhpiEcOgvXtVr+6l/7QqT8fWq+Gm2H6/H5sufPFYZn0/A3/jhqZx/lW/n//pd+Z7g+979+N76/6i95vG9u0zQuPfNj5j6+afx0TX/Vxs//P3VxV/60W81/k3/0X/0n5Xf/xg/xo/xY/zw18X9t/uLYom5rp/v6F/6l/GFL/iKr+KL+MpfdDd/eH+5fysqgJNJT9NTaRno4ecyyC7z+6UqLuPPLITlZ+954z8qfrHj9uPF2/7M5r13qzNwsfI2Vl/20f7c7qWrb4cTwGEv3DyIL1Pf4fItS1yfzZctvgT1cAL4FQ/opf34+8upxD74xz8d9iL+aOfnn35wqWWwJ6qgV9n/m67Phgc/vLUSOp+ADpOgXV//0e+Nxm9TVfo024/HFPdijvtSp1dcBvtIWAZ7Gudf8Cb8G4Zbqsi+u8f+vxTfzv+1u/J9uKd1/avn39Q/fD/qH/QpFeghPufLTy0Rv3xP/6X46fvIqzPz58v1j8af8Wd8GV/4gq99PJ8QX8QX8UV8EV/EF/Gl++f/4qv4Kr6Kr4vF17EK4OFmO2lR8FW8xwrgwfyOylPe8f+cmHytZIp2cRxbl1F5miofu2hvKHLlPM573f9YVIOoyHD5347PPx7P3O6Ll1wC+lRYgjfuhdx0/F3osthe0KlHxPZPhUrMLtprOo/FJl/jMeRLgX/hPb21n85rz7VfalwWPVXA9nX+1d9tmgxPFdjTaD/PVAsrBOz4sQ/ky2HH/rcvJGHEFQGm1b52yk3PV8H3vnjhdyub3rk+vcUl/Uw/EwfEARzAARzAARzAARzAARzAARzAARzAARzAgbOdA+MVwJXln4sN4tsgEL5b4vutVy2+B28+8Xnr9S2TPkv//lLtD7buyJfcbZuEjhXIe9/5mLD37B0N57n69uPxLVV52j752k378frFibZYCdz2ap786679CNG2vW/jMeXVtx98bq0fdNv+YjrkE5BhGfCFYwcr/aD79qMOGx50ebbrRX821ifT8tPjwaaf9tN4jv1yS+gTp8MYOHL9e/Llt6fZ/rACaRV8WWr8+351/KYf/VYT//Uf/Uf/Wbl/Nn6MH+PH+Gl+CNXv/QF/Tl/xR/wRf8Qf8adpEkR8EB/EB/FBfBAfZjs+LLIH8GTnHl9jfOnvtz/zXflyr/VXW8Xlmf5+vfPV/37ca3T7M97VOAk8XHa4dY+apc9vqfbj97sb9lyNesQJ6Fj5WK187fr8Y/uDLdvzScf6vq/xGOqTj320X6/4rPaF+uRrX+0nHc55wrXZfGVf6Dj5fPC6nxpO/vbZftqjIQvXY/77nh365M48AaKaBDGN9qt7xiyn/1aDvOOr7jHQDR/o27aHD32Nz3FzhT/4I361Z2YbH8aH8WF8tFUu4AM+4AM+4ENzZRM+4iM+4iM+4mPT5Lb4ID6cbfEhTACHPYBHOx6P5ufS8pNFqs+oQjD9H8v8ftOlV2bzj/yRfDnik2GZ36M3fiRf9nUI2VX+flmK3Hp8sd1znvDSvP34Or33G/kxxCXAC29mAAAgAElEQVSo80Hec/vx97eF9mPFZZyEjRO/x2/5ZHbos2/Nj2Ua7Q/mi0nHzZc9OdcgLrcbKz/zyccpnH/qP3HJ39gf4utk6AN55ekU2y+ud5YfQ2w/X3Z4DdrPD2KZ48fxrY4/9KPfauKX/qP/6D8r93/Gj/Fj/Bg/I79b3kDyv1O7/zT+jD/jr3yofYbPr/gX/gU/8RM/8TM9P/b81vNrz+8TD/iDWfYHve0BfLavne387BFgjwB7BOAADuAADuAADuAADuAADuAADuAADuAADuAADuAADuAADuAADqw3Doz2AB5mRhYFv8PXMFM7ZW77nj76h/FRr+TAhyIzEB/xER/xER/HM6XFB/FBfOQP+CP+iD/ij/gj/qhaScYf8of8IX/IH/KH/CF/yB9Owx8O7nr5+QtxbfO2mem45rXv6aN/NGcwGR/4gI/4iI/42JThKT6ID+KD+CA+iA/iwyQHxEfxUXwUH8VH8VF8FB/rHOAP+AP+gD/gD/rxB8US0E2veiVb/f/x/XilNH3GFdA/9I9mshT9RP/QP/SPxtBrfOADPtYywfkr/qqqAP/AP/AP/EObAviAD/iAD/jQrAA+4iM+4iM+4qP5v0kF7ifxsbYHcPnQrbUi2Pf58gz0aakY1z/0D+MDH9oy1vABH/ABH/ChOaMVH/ERH/ERH/GxKeNffBAfxAfxQXwQH8SHSQ6Ij+Kj+Cg+io/LjY/tFcDtuTG+oQAFKEABClCAAhSgAAUoQAEKUIACFKAABShAAQpQgAIUoAAFKECBdahAsQdwOrA0ce5zoQA9ikQC/UF/MB7wAA/xUDwQD/kBfoAf4Af4AX6AH+AH+AF+gB/gB/gBfoAf4Af4AX6AH5gJP6ACeB3OyjskClCAAhSgAAUoQAEKUIACFKAABShAAQpQgAIUoAAFKEABClCAAitRoDIBnG9uO/yNhbCY/KDyOWz66nv66B+lAsYHPuDjKF6ID+Ij/8A/JYMgPoqP4qP4OLopFR/FR/FRfCwU4A/4A/6AP+APRhGBP+AP+AP+gD/iD6flj1UAr2Ta3N+hAAUoQAEKUIACFKAABShAAQpQgAIUoAAFKEABClCAAhSgAAUosA4VGNx17XkLg0HMvCkytEczz+XnsAms7+mjfxgf+ICP4kPK3Bcfcx7wB/wR/8g/u39w/+T+0f3zcOUw/og/4g/5Y88PPT/1/NTzU89PPT/1/NTzU89Pi5VP1sf9UVkBPL48V305T5/pU12eRH/QH/SH9uWbjA/jw/gwPkYJf8aD8WA8GA9JATzAAzzAAzwoFMBDPMRDPMRDPBQPxEN+gB/gB6bhBwZ3vTxUAC9SyZMyFtoyGX1fZDTQpznTU//QP4wPfMBHfGzKhBcfxAfxQXwQH8QH8WGyUkp8FB/FR/FRfBQfxUfxsV5JzB/wB/wBf8Af8Acr8Qe1CuCUeeG9yMCgAx30A+MAB3AAB3AAB3AAB3AAB3AAB3AAB3AAB3AAB3AAB3AAB3AAB3BgdjgwuQdwfU8/n8f3+KMHPap7HuoP+oP+0L6ngfFhfBgfxkfbnif4gA/4gA/4UOwhjYd4iId4iId4KB6Ih/wAP8AP8AP8AD/Qgx8IFcDnxenqXNxi5j69fKaH/mA84AE+ig/iIz/AD/AD/AA/wA/wA/wAP8AP8AP8AD/AD/AD/AA/wA/wA/wAPzBLfmBYAZwyj70Xa4nTgQ76gXGAAziAAziAAziAAziAAziAAziAAziAAziAAziAAziAAziAAzgwaxyoVABXin/9JwUoQAEKUIACFKAABShAAQpQgAIUoAAFKEABClCAAhSgAAUoQAEKzJwCZQVwWLwgVO9XMxjKPygrYX1PH/3D+KjsUVYMCHzI92jBR3zER3zEx+EeluKD+Mgf8Ef8EX/IH3u+4vmS52uVlfU8X/T8xPMjz8+K+0XPzzw/8/zM8zPPz6b9/KyoAI5Lt8cl/NPLZ3roD8YDHhQK4CEe4iEe4iEeigfiIT/AD/AD/AA/wA/wA/wAP8AP8AP8AD/AD/AD/MAM+YFaBXA9Eyd9rr/XM5d8Xxa81DJ96Teui/41numlf+gfeaFYSojGj7FKAePD+DA+8AEf+csqB9x/jFdOGB/Gh/ExWUnEP/KP/CP/KD6Kj+Kj+Oj5s+fP1Upj/pA/vH/7w/EK4DRz7b3IaKMDHfQD4wAHcAAHcAAHcAAHcAAHcAAHcAAHcAAHcAAHcAAHcAAHcAAHcGCGOBAqgPcsFGuPp5nwuCZ/d58Huy7M5i97cpbN78yyo/uzo7d8MlvYd0dv7aU1tNP5ZFu2Z1sf+exsw4Mfns2FYzh+6xey41/9VHbq3tvLyrtuz7fefvw8/33PzrY87MnZYOuOfImE4zd/Mjty40ey7NiBco+w7vRuaj9ezy2P+JFs4wVXZBsffEV24tbrs2M3Bw2+ddPU2o/XI7a98UGXZwtHD2Qn7gxt77t9qu0XGXD9X+8ux4/jdb30p/752Ff8M36NX+PX+MWXfu4v8BVf8RVf8RVf3d97vsEP8AP8AD/AD/AD/AA/wA8s7gcG37427AEcXylzIRW+Vj6v5Pu5MNm57fEvy7Ze9ZLK5sLFfx76zJuzI59/a5EpkF4dtx8Hf5z0PPcpvxomXsPkc+116OOvzI5c/95e2x9s2ZHteO4Hsk2XXjXR/sKR/dmBDz43n4xdib7x/Jaj34Yw6bszHMPc7osnjuHYjR/O7vv4q/IJ2a6vf/X45nZflG1/5rsmdDgRJuMPfOC5vbef9I39cf6RP5JrEfU/HpIRpnH+1esbtdh82dXZXOiTp+79RjiGT03t/FN/yRNUltl/+hyfy+m/2i8V6IGP9O83/tCXvviFX336O/1L/9K/oqEd3Q/xt/y9+5vlPR8QP8QP8UP8ED/5B88Hi1jAP/KP/CP/eH94flupAE4zxd28n/OUX8m2Xjk5+ZtuOA5/9i3Z4c+9pVKR2U27acZ/Q6g03f2z/3li0rP6B3EC9tjNnygrnrttPx7Hzud+MEz2hernllechLz3nf+8rIjuvv04ybj7Z/6qcfI3HdKR6383O/QXr+7tOsQK7D3hOjRNQMdjOL33G9nedz4mOx20KDL3utch/u6uoEOsgK6/8mvwlu/tvf14Xuc+9dfCmHjx2CHE898f+uHJb36l1/Ov6lpUpF+dTzwfCUkAJ2+7oTfd+7qefrefcUJXuvbJYf1L/9K/+vM5xpfxZXwZXziAAziAAziAAziAAziAAziAAziAA1UOjPYATtNSi1QG1jMF2z5vDssdx8rXxV5x4i2f+AvLALfNtC+3vaa/v/tn/yqL1a9LHUOc/Fs4EipgOzz/eDxx4ncpDWKTsQo1VsF23X78vXOe+qsTE45Neux/7w82ViKvRv/UzvZnvTuvxF7sdeT692SHQiVyF+1VMxnT78XK321PeFnrIcQluWMyQF/tx/6wJVQeb3/muxuPIU7+7nvnY3ttPzUc+2Q9KSFqH69Bn+df7d+xMj5ej7gk+Om9t4+qsOP/1AF/+uBJH+NzWnrTozLs9K9e4q3xUSqgf+lfLSvb4L34zt+EPmB89HK/hy/4gi/4gq/u99yPuR/jB/gBfoAf4Af4gTY/0EsF8I5n/faSk37xgGIFcFwOuuvMlA17Ls72vOzLjZNt9T/c995/2UsF5LnPeFdYbvjZyzqGu19xfi8VmOe9/O+yuV0XLXkMfV2HeF3Pe92t2WC+2Pu47RWrYO958/d23g9Svzr/9bcteQz3vPl7eqvEXqwCOWmy/wM/lp0Ie1P3maGz5fJrsh0/1pyY0ff5V8+rXhkflwLfF5IQuubAYr8X9ybfESbkT4W+F5eCn2YFdjquyKm4UkGswO67Ar7PfjXN6+Y8ZLDpbzJZcQAHcAAHcAAHcAAHcAAHcAAHcAAHcAAHcAAHcGBpDuR7AC+EFIFBnipSvPLP+Q7alc9n8P3OF/1Z2O/1yiUnHo/d+JHs4HU/VbR3Br+/1PFtvPTR2a4X/fmS7cf/IVY/Hg7LIHfZfjy+XS/+82zTJUtrEI9h72/98+zUnTd3pn/S5/xfv3tZGsR9iGMVcFfXP7W/4UFXhGW4/2pZx3D3y8/vvP3Yf+Pk83mvv3XJY6hWQS/Vv1by/QPedM+ix5AviR7+7WL8tR1frLptq4Tu+/yr4+v8N032y76u/1DPGl82f9dV2c4X/lmud1/9fyl+Rj5EVq5V+0sdn+9XFv9Wwoeu489q4rfjX53/oR/9jL+V3z8YP8aP8WP88J/8Z9v9Gz7gAz7gAz6Uz+s7fH7Of/Pf4qv4Kr6e/fG1lwrg5U5+xmVn7/v4Kzuv/KtO7iw189dX5WWcXFrOJHg8vnvecGkvFYBLTTombY596SPZgY/9ZOfXIQaR5U5Cf/vl5/XSfswEWo4OfVWCp0ykpSqh7wuJCEdveE+vFcDnPPHaLC6H3fTKkxC+dXOv7aeMnHpletyL+O7XX9Lb9W/KBIoVwHt+9q/zBIG+OLRUBlLcoztOyJ+49YZe9yJf6jh8v3SmlIxCGYXGiXGCAziAAziAAziAAziAAziAAziAAziAAziAAzgwSxzIK4CLUt8weIeVuMXn9Odn+v3WK1+c7z+71OtAWPb2+C2fGrbTVfvxeM9fouIyHdu9YenhuARxl+cf29/2hDDZtsi+s6n9uAfqvWH54a7bj7+33ErstAdsl/qn/rPn2rAM9e7Fl6FO+yD30X48jqZ9b6t9M05A3vP6Szvr//VxEz9vf2ZYFj3sA9z2iv0wLkdcVAKubvy1/f1sfnt23sv/28Ry2KfuvClUoT+m1/Ov9u/Nl12dbQ/LxMfJ16j9wZB8EDnQ1/U/U371pb/zSys99NO/6UvfPvmpf+lf+ld//sT4Mr6ML+OL/+aPV/P8Sf/Rf/SflT+/NX6MH+PH+Fnp/A9+4Ad+zAY/igrgNPkbKjbzDIZVfp6b3xmW/v3Pi0785cuevu8HO2mv6XgXW+52ovJ1lefb1H7bZFt9AjCvQE6TXx3pn45nOZXQcQI6Vn+ePrp/VIHZoR4bL1l6Oe64/PDxsA/sMHOiw/Zjf954wcMXXYr6wAeemx275RO9tZ8/1GqZfI39YbgMecfXv0nPeD12hMnoNCkfx2FMxOjr+rfxZLD7wmzjnu/MTt7799nC3juGy853wZ/V8svfL5OBptAfXe/Vx1v9VX9Ny3YZT8YTHuABHlQy0Tu+nzC+jC/jy/jq63kFvuALvuALvnQzH4GneIqneIqnkzwNFcB7whRZnK9PM9Ypf2N1n+OkW1wKOlb51V9x0jEuuVtU3nbTXtPxx/1nN1xwRWPRZax63Peep+YViH2cfzyeWOm447kfbK36PHbjh8s9kLvXP+kRK7G3XvmSxmOI537gA88Jk6/Xd379q9djsWMY34O52HS6j+ux5bJrQtXpu8f6Yzz/w595c2UP6P7aj3rMhUnPc0Jl+JZHPjs/z9gHD4X2j93yyV71b9Jzw+6Lc6XjWOxD76554vdWx2P60a8gaz981b/0L/3L+MIXfOUn+7ufM76ML+PL+OK3+W1+m9/mB/gBfoAf4Af4gZX4gfEK4Moy0Gk5ttW8x0mmWIm75fJr8om3ONkUKy0Pf+YtRcVhx+3Vfy9WIm+96iX5v2kiOk76Hb/5k9nBj78iy44eHC47u5rzXOw8Nl766HzSr7ofcDyGI1/43ezwZ9/Se/vxvOLk57YnvixUwo4mw+Oyy4fCdTh551d6vw5Rn6jD1kf+62zDg6/IFo7sz5c7PnbjR4rK3577Qfr92B82X/7kLPbL2H6sfk3LLvd1/f1upSJrStd5Wv1JO6NtA/Rz/dx4MB5wAAdwAAdwAAdwAAdwAAdwAAdwAAdwAAdwAAdwYP1wIK8ATuWhaeXys/FzPgG8dWdYbvb2YTXsNM83Lrk7FyYeY55CnHgcZW6NinOncTxxEjhWnq5V+/H8z8b+Rc/Rzg+ub6HANMaz8YQnxpvxhjd4K94UOw/hIR7iIR7iIR6KB+IhP8AP8AP8AD/AD/AD/AA/UPEDd70s7AEcRkVaRqDI0Kh8jnsC+54+oU+MMjf0j+F4MT7wAR/xER/Fh+EKB+Kj+Fj6Jf6AP+AP+AP+gD/gD8oVz/gj/og/yp+n8Yf8IX/IH/KH/CF/yB9Oef61sgewzACZATIFZQrKFJQpKFNQpiA/wA/wA/wAP8AP8AP8AD/AD/AD/AA/wA/wA/wAP8AP8AP8AD8wy36g3AM4XMRwFqNK39FFTSfne/roHw3jIs/cMn7wAR/wAR+GfiFxER/FB/GRv3Z/4f5qWOni/nIiThofxofxMdw2x/gonyvwz/wz/8w/8wf8AX/AH9Sfq/EH/MEq/MFYBXDrw9u2TufPK8tlL/Lwn050ioNUP9AP9APjAAdwAAdwAAdwAAdwAAdwAAdwAAdwAAdwAAdwAAdwAAdwoG8O3PWy3WEP4LAXxTCTIO756zM9UmWr/mA84AEe4EFR6Y+HeIiHeIiHeCgeiIf8AD/AD/AD/AA/wA/wA/wAP8AP8AP8AD+w/v3AonsA1ysWixXf2ysZfU8f/cP4aKt0xgd8wAd8wIfa8n5l8h0+4iM+4iM+4mP+8KRWASA+iA/ig/ggPogP4oP4yB+Mc4A/4o/4I/6IPzoDfzSsAE6VTd6LCmg60EE/MA5wAAdwAAdwAAdwAAdwAAdwAAdwAAdwAAdwAAdwAAdwAAdwAAdmjAP2AO57jW2/by1/a/lbyx8HcAAHcAAHcAAHcAAHcAAHcAAHcAAHcAAHcAAHcAAHcAAHcGBaHFABXO7ZMGMz9yqUXTeV6ir1cQAHcAAHcAAHcAAHcAAHcAAHcAAHcAAHcAAHcAAHcAAHcAAH6hwY3HXtnoVQt12U76fMg8rnfFV539NH/zA+8KHITMLHIQ/FB/GRP+Cf+Ef+2f1DufcOf8AflPdL/BF/xB/xR/wRf8Qf8UeeH3l+5vnhyA/wx/wxf7x2/nigAlhmiMwQmSEyxHAAB3AAB3AAB3AAB3AAB3AAB3AAB3AAB3AAB3AAB3AAB3AAB84ODhR7AFv+2AbmNjC3gTkO4AAO4AAO4AAO4AAO4AAO4AAO4AAO4AAO4AAO4AAO4AAO4AAOzD4HVACfHTP5JvFdR5lZMrNwAAdwAAdwAAdwAAdwAAdwAAdwAAdwAAdwAAdwAAdwAAdwAAfyJaDjOuypM+RrsvtMjzLDR38wHvAAH8WHwizgIR7iIR7iIR6KB+IhP8AP8AP8AD/AD/AD/AA/wA/wA/wAP8APzIIfsAewMvbZL2O3HIXlKIxj4xgHcAAHcAAHcAAHcAAHcAAHcAAHcAAHcAAHcAAHcAAHcAAHcg6EPYB35xPVg5C2EvO3wp+FzjEsdBp+9j199A/jAx/wUXwQH0eZzsV44A/4A/6AP+AP+AP+gD/gD1IlFH/EH/LH7g/cH7g/cH/g/sD9gfsD9wfuD9bJ/UGxB3B5kzLMjPA5v2mhR5kpoj/oD8YDHqQ9E/AAD/AAD/Cg2EsJD/EQD/EQD/FQPBAP+QF+gB/gB/gBfoAf4Af4AX5gffqB0R7AZQVwfWZ++Nn3eYU0fcYzF/SPUg/jw/jAB3wsFZjIdMUHfMAHfMCHXAF8rFUCiA/ig/ggPogP4oP4yB/UV2LkD/gD/oA/4A/4A/6AP+jIH5R7AKcMBe9FpgId6KAfGAc4gAM4gAM4gAM4gAM4gAM4gAM4gAM4gAM4gAM4gAM4gAM4gAOzx4FhBXBbJWcl6ajIvKhlovl+XAH6FHudtL3oQx/9w/jAh2YF8BEf8REf8REfmxQQH8QH8UF8EB/EB/FhUgHxUXwUH8VH8VF8FB/FR/OTi89PhgngXQuDMK0bg2Yxgx/WrO/wc7ZlR7bpgiuyDQ9+eHbqzq9kJ755U5YdPdBbe/Xjj+1vufzJ2dzui/PJ69NH9mfHb/lkdmrv7b2cb5N+Wy6/Jtt82ZOzDXsuzt3Z8Zs/kR258cNZdizo0LHebb+3KWgQr0N+ncO/x24OGnzrpqm1H9vd+OArskG4HrH9k/tuzxbiv1M6/776t+Pvlhf0pGeX8Ud/0p/0p/78nfFlfBlfxhd/3c/9M77iK77iK77iax/PZ8UX8UV8EV/EF/FFfOl+/nO9x9f2PYBrlb71zLqlPs/N78i2PfHabOtVPzE2Bb0QJmAPf+F3siOffcv4ng6rbK/peOavekl2zhOuzQZbd06kQhwJx3Dfx181/POlzmcl3w92X5TtfO6HwsTnwyfajzrc9/FXZkfjRHA5KTu2x3BHemy69Mpsx7N+O58Ar79O/I8vZPs/8JxsIUzIr+T8lnu8G8PE87lP/bVs03ddNXYIsf2owck7b+q1/dho7I9bHvnskAxwTX4cse2TISHh0Gfe3Pv5V6/vIBxH1CNPRgi6x3Pv8/onwfu8vo5/cmUEeo9nItODHsuNF3iCJ3iBF3gxssvGg/FgPBgP7ucKBfAQD/EQD/EQD8UD8ZAf4Af4gTP3A5UK4JQJ1c37rp/763yiq+119G//KLvvup8Kk8DdtFf/nTj5vC1M/i72OhaO4cB1P1lWPHd7HFmY6Dvv5f+tcfK5ekwHP/aT2bEwCdyHDpsvvSrb+eKPL6rByW9+Jdv/nqeGycj9vegQK4/jJHjbK06E7wvtx8nYIhOt2+sQf29ufmeuQ9tEfN/tp/PaFpIhYp+sJiTEieiDoQ+e2vuN3s6/ruv8I/91SAi4aFQJHiah+9C9r+vpd/sZJ3SlKw50H3+MK+PKuDKucAAHcAAHcAAHcAAHcAAHcAAHcAAHcAAH1oIDE3sAj0/UpQWDW6fvylzM8e/PWcbka/wbcfIzVcA2t7Cy9mPV664lJj5Te7EC9nhYDrnL9uNvbQ9Vt/Oh4nSpV5wAvedN/zivQp18rez80+/ECeg40bfUK16DeC26bj9Wuy5nEvx0mPy89zf/WYMGqzv/IidmkE9Abw4T0W2vvtuP7W4N1eixCrrpNY32Y7vxekQt6pXY9Wr40TF2o3/9nONxxLGxOVRiHw8T4LH/9dH/0/Vv7//9nF/f+vn9pIDrV+R+tr3oQx/9w/jAh2YF8BEf8REf8REfmxQQH8QH8UF8EB/EB/Gh6/kBz2f5C/5ibf3F4K6Xhj2Aw+LfrRkIcY/WM/z+AW/eu8hD6dFXceLrnl//x2f8+2Mz5Q3Ht+NZ/zZf7nc5rzj5eyAug9xWebqC898QllveEyZfl/s6/Nk3h6WI39RcAbqC9qM+8fzjJPRyX9++dnen7Uc9Y8XrOS2TnvXjaq2EXuH5p+u5Key9vPN57RXI6Tjy5bi/8LuT/WCV7cc14OPez7t/9q8XrQY/Eto+FI5hoh920H4av+c+9dfzieimV0yEOBHGQp/tx34ZK+Njcka1GjtWoccq7GJv8FomUIfnX+VGPI6tkRGhOvzYlz7cXoHdU/vD8/T7nfN/qfjg+0q81//0vzP0d8aP8SN+lT4FP/ETPzu9fxZfxBfxRXzJOSC+iq/iq/ja4fN5/oK/4C/4C/4iKHDXy3aHNISUiTB6TxvDF5NFy/9+4wUPz3aH5Z+X+4rVr3EieLSKfbGa+0rbj7+z3MrXdIxx8rPL9mO16WLLHte1OXHr9cUEWEXn1Zx//J3FJvuark1s/8StXxjqsNr249+Pyy7HauzlvOJE/P4P/Gin7cdeu9xq9OIaPKXz9uO5L6c/xEnQvb/1z3ppP/Wr89/w9bwKuOnV5/lX+3VcfropMSFOwMdK5DQOu+h/oz0BJvlVHR95IsqbvqfT8bfc44/9M1ZBR/27HP/LbT+uELA9JGkcC+Pv6I1/NDX9l3t8Zxp/ptV/HH+8iUiv5fsD12f1/ma1/sjfX52/pB/98B//xT/xnz89s+dD/B//xz/xT/wT/8Q/8U/8E/90JvOL/GO3/nG0B3BHmXYbz2D55dj18/1Xw+RHl5l+y61ATvi9+9o9nbZ/zhNfvuT+w9VJuHzy7Xef0mmm35lMvubX4XfDdbgtXIcOM612vfgvlj0BHDWIexF32X40mTuWWP45XYeT37wp2xcmYLtuP/7ecvtD3g871L+e6faAt7RX5velfz3Tqm1v7sOfeXMWK+H7PP/qSgb18XH3ax+aZccaKpDT9eiIj9XzS3t058kPf/ijnY7/5VZSz5dLky+5F3kP5y8TUyamTEyZmDIxVbp06f8b99IRv9bEX+A7vuM7vuP7ma+k5/7I/ZH4KX6Kn+Kn+Cl+nulKvPwD/7CUf6hUAKepsGKGuV4RO5qwXPz7ubD8cazAXe7r7tc9NOz/ub/yv6+u/XjcsQJ54wVXLOsQ4t6jd7/uOztt/0z2II4Nj6pf46fVn3+8fsuddEwnvjfswXvyzq901v5y9t6tXqBiH+L/q9P2z0SHegXySvt/0/VbTn+oV+B22X4xnrMwLv97657Qfek/Oo/iam+69KrG/bmL/cBHFah9nH9xBMX4qlYij7Tvbvwt5/hjv4j7IB/52z8qV0GYbvt5JnZYAjsuxx0r0AsOd8Of5Zz/eJzpJv44ftdvNf5F/9F/9J+V+3/jx/gxfowf/q/OAf62ev+lf+gf7v+qcQIf8GH6z3/qz+f4d/6df+ff+bP7hz+b3AO4nim/gs/nv/HvW5earU76NVa+rqC9scyI8PfP/Zfte53WZ4WP/u2Hs/uu+8lR5WEH7c9t3ZntecV/X5YG8XjS5FdjptcKj+dMKrHTJHiX7cfMg7blfuvXIH4e7kG7wvNty3QY7LooO+8VSyckDCsgO24/Zm7F/rD75/5L6+RrPP/hHsQ9tJ/Gx2J7MscEgFN33jRZCd/D8ez44fE9utPke9f9b6nfi8vVxwnQscr3Hs63ziefF8nMov94pRY96FHdA0t/0B/0h079ungsHrdmSuMt3uIt3ratBIUP+IAP+IAPxbaNeIiHeIiHeDgTPMyXgG6akFvNn22+/Jpl7YE72nd2NV+HBBAAACAASURBVK1N/t1YhbwnTLi17Xda/Rujytduj2G5Fbin994e9h/937ptvPy15S7BHJfePfSZN/VyDHHic6lq7JNh4nHvb/7TXtqPP7rUfsjjFaD9HEZb5WtsbRrtp7Oq98s4+X8gVF4fv/kT/Zx4y6/GyddNofr1RNj/tqg896IABShAAQpQgAIUoAAFKEABClCAAhSgAAUoQAEKUIACFOhCgVEFcMrc6ej93Gf+djb/fc9uPcaJisuO2k0ZSJsue3K283kfWlSjvPI2LL+aVwB03H78vV0vWXwP3Dj5Fvf+Hau87PA4Nuy5OK88XWwifFgB3WG7VT03hKW4dz7v37dWv8a9d/e/5ynZ6SP7e7sO8Xja+mOcfD0Q9l/tu/3YH+JSu7E6PS79G1/x+h/5L79T7H3bk/5NvxsrkjfE6tewysGJfwiTr3Hv2ym239d487v9cIyudMWHcg8anOw1Tutn+pl4I97gAA7gAA7gAA7gAA7gAA7gAA7gAA7gQHcc6KUCOM26xkrgWHFYrQCNE26x2vTErV/oYgJ70d+IVYbVCbf0P8eq24Mff8VUqh7bqk+jDvf9+St6r36MS9xGDeYfOT4Zn08+fuF3eqv8rV6YeAzb/ulPZFuv+onhZHS8BnHP18NhAnR8D+j+ukXsD1uuuCbfhzbueXo89MFpV772d3Z+mQIUoAAFKEABClCAAhSgAAUoQAEKUIACFKAABShAAQpQgAJhp+e7XhqWgC73Ox7NrIfqxLAwdPrcxfdx8m1U6dr974clxyuVKeO/PxcqYTfsujiveIyVnqfCkrNdn99i7Q9CxeWWMBkeK3JPH96fT37HCcgu9V2s/Xj9Blt2Zpse8vDyvLPseFh6d5rtL3V8vm/vv12MP/rSt0++61/6l/6VMvOm62/Eh2DlF/F/9KGP/iE+iU/iU1FBIj5P8/mH+Cv+ir/ir/gr/oq//Af/xX/yn93Or67UXxUVwHEX4DgJnF4+00N/MB7woFAAD/EQD/EQD/FQPBAP+QF+gB/gB/gBfoAf4Af4AX6AH+AH+AF+gB/gB2bID5R7AKeMBO9FZgId6KAfGAc4gAM4gAM4gAM4gAM4gAM4gAM4gAM4gAM4gAM4gAM4gAM4gAOzx4HxCuA0c+29yGijAx30A+MAB3AAB3AAB3AAB3AAB3AAB3AAB3AAB3AAB3AAB3AAB3AAB3BghjgQKoB3lovSpwyGVALrc5HRQI+iJFp/0B+MBzzAQzwUD8RDfoAf4Af4AX6AH+AH+AF+gB/gB/gBfoAf4Af4AX6AH+AH1rsfyJeAzhduT5kLaR17n4tMBnoUCugP+oPxgAd4iIfigXjID/AD/AA/wA/wA/wAP8AP8AP8AD/AD/AD/AA/wA/wA/zAuvcDeQXwIKQqjGaqY0Gwz/QYbYasPxgPxoPxkDZHxwM8wAM8wIN8iRh+2f2C+6fKJmD8AX/AH/AH/AF/wB/xh/wAP8AP8AP8AD/AD6wvPzDaAzifqx4t31FMXfuclvOgh/5gPOABHhTL++AhHuIhHuIhHooH4iE/wA/wA/wAP8AP8AP8AD/AD/AD/AA/wA/wA+vXD1T2AF5fM9MyBVwPmYMyB2UOyhyUOShzkB/gB/gBfoAf4Af4AX6AH+AH+AF+gB/gB/gBfoAf4Af4AX6AHzgzP1BMAOevtGh7+V7sYD1aw9r3RUV00oE++ofxgQ9DBfATH8UH8ZF/GmV+84+Tm8DoH/rH6CZN/0gK8E/8E//EP4mP4qP4mCY1+QP+wPN58xPmZ9wfuD9wf9D1/cFYBXBbJtXQjJSTnvVMC9+Xk+X0adwTT//QP/JkEuPD+GjYMxMf8AEf8FF8aM7kx0d8xEd8xEd8bKp0Eh/EB/FBfBAfxAfxYbISVnwUH8VH8VF8nIyPlQrgeqZVpbhv7D9TJobvmxWgT2WT0AaJ6EOfamVYvYvoH/qH/tEWXUeZoOKv+NukAH7iJ37ip/ggPogPkwqIj+Kj+Cg+io/io/goPnr+OK4Af8Qf8Uf3F39UTgAXg35Y2Vsuc+xzuaY6PfQP4wMfQgVzvsfA/9/enQdJc5V3vs9+1373RRK+ICM5EB7PGEnciEHM2NZy/xgWG8QSMcYgwBszc9k8AwZhCwM3gt2AwTEWiPGCsQGB8USwCGwW/3G12HONuH8giZk7MxJhwUgGJL37vvU9T2ZlVXZ1VVdW18nW+4pPEkSr3uquk/nLc77PL+s5zzl4gAd4gAd4gIfigXjID/AD/AA/wA/wA/wAP8AP8AP8AD/AD/AD/AA/cBb7gREVwONz396hAAUoQAEKUIACFKAABShAAQpQgAIUoAAFKEABClCAAhSgAAUoQIGzV4FFFcCD0xxeBsDrxcsC0IMezWUS9Af9QX8QP2oF8AAP8AAP8KBSAA/xEA/xEA/xUDwQD/kBfoAf4Af4AX6AH+AH+IFHyw+oAD57k/POjAIUoAAFKEABClCAAhSgAAUoQAEKUIACFKAABShAAQpQgAIUoMBUCsz98I070ua/o/9mLr1R7nnp/ZEC0Uf/MD7wAR/Fj1EKiA/ig/ggPogP4oP4sFQB8VF8FB/FR/FRfBQfxcdhBfgD/oA/4A/4A/6AP+jGH6gAnipf7pcpQAEKUIACFKAABShAAQpQgAIUoAAFKEABClCAAhSgAAUoQAEKnL0KDBLAZaVvs9Q39mhovPY+ffSPxkg2PvABH/sDQnwQH8QH8WEABP6Rfx6MB/FBfBAfxAfxoaeA50fPj54fPT/WOPD9q++fff/eeGDw/Oj50fNjrYDnZ8/PHTw/qwA+e5PzzowCFKAABShAAQpQgAIUoAAFKEABClCAAhSgAAUoQAEKUIACFKDAVAqkPYC3pz2AY+ZRNSM11tyfa7xO/9DLvK/8/TW7Ly7W7vrx4tSD3y7OHN2X/fOXO/+5jduL9ZdcWax7wmWlMKf33F+c+K9/XSwc21deb47rm6TfhkufW2x40s+V53B6z3eLU/94d3HsmzencziwKu3H+a1P7a9/0pWlBgvH9hfHv/3l4sze761a+132r0n6e7/b8U1f+hrfK4+Pxo/xY/wYP135b3zBF3zBF3zp5vsNfMVXfMVXfMXXLr4/F1/EF/FFfBFfxJfc8aVXATy0HFEvGTxIJa/s/S3P+O1i/mkvKdbsurj/UWf23l8c/tp7imP/72cameqVff6k84v2N135ymJu084lWfE4hyN/87u9f++m/Uj47viVTy66/vpEFlIi/MjtN/XOoZv2o60NT3lOse157x55Difvu73Y/2cvGyTD+yrlPZ+5+e1F3IuNlz6nfx7RD47eeXNx9I6Pdt5+HTzjfmz46V8o1u6+qErEP3h3mgzwV/3JD5P6U8735+Z3lon46sirt8+j56Ll1fSvarJPR3wz3ow3/cv4wpe+u8Vb8Ua85Tc833i+83zr+Ysf4Af4AX6AH+AH+AF+gB84S/zAoAK4rvTN8DMSrjtfeUuqeL28EfQX/+exOz9VHPzL1wwqUDO0W86U6n3Othd9JCWfrxvbfrxx6sG7ir0fuqqqcM7c/rrHX5o0+NLI5HPzpLrUYf6Klxahw3JHJKL3/adri1MP3PWo6HAmVWTv//OXddZ+3Nfoj5GIX39JutdDx2q0X/evqATf8ozf6o+L0P74PV8uDt3y5iL+u4t+OKpfhx7rHv+Usr2T992xau2u1vVpJz/PcvPR5/VW1sgcd+hKV/zDPxzAARzAARzAARzAARzAARzAARzAARzAARzAgeDAUAVwXckz289IfNbLDS+XfDx6x03FoS/e0JgRMlu7dSVWVJtuTv9vc1TnEL87WGZiUNG1svOJitfzbrhrYvK3Pr/9f3ZdceLbzUrUlbXbPO/1T7qqTEC3OcpE+O9fnf0+tNUh2t/30WsblcCzX3/zfk7qj5F83ZOuP6qSc/aD5v3Y8owbxvbJaHfPh67u7PqXO4+49gOffXX2/jdJx5gcEkno02kZ8pPfSUnojONv1vHr7/OOP3rS0/jO5y+MJ+PJeDKecAAHcAAHcAAHcAAHcAAHcAAHcAAHcAAH2nBg7gdpD+Byz99eJVJ/jekVvl6X9prd9covt8k7lr/z8LsvKxb2DfainbX9+PsL3vHdYm5+R+tzeOQ9lxdRCRoZ8Rztb33m+GTfqJOKBOAj707V0pnaj/u541c+VS7/3PY4+BevSstyfzrL9df9adsv3TSxCrs+vyNff29xOP0/h/7N/hxLgG993nsnyhB7Mh9MidDc7cfnrb/w8mLX625f9hxO3POlshK6i/ZrPbY+/71pSfRXjTyP/R9PkxDScthdtl/OPEt7cu/81U8tqsYulyL/+EuLheMHOm+/vr7YG3z+iutKTkS/zzn+c/K06/vh83t73q8w3tGPfsZ7Pv9oPBlPxpPxlOt5FE/wBE/wBE+qihc8xEM8xEM8xEPxQDzkB360/UCqAN6+UC1JXmfM60LQlb3e9qL2Sb/IREX17dG0F26u9qPyeOcUCeg4hzr5WWXMZ7v++PPzbrg77XV70cSkY/MX9v7+VeWS1Dnaj8u44P31/rLtTuPEt7+c9gPuLZmdqT+c//b7WyfiyyR4SsTnuv66P0VfaFONXk5GeNtF1b68ma6/7k9tx0RX7cf1rJuQhI5K4If/r4uz6z98PyMZPyoJPajEn338Tbp/cxt3FDtf9aVFS3GXy6BnHH9teLbhKb+QqqAvS9XXXy5O/eM9vQvv/von6eP9fPEwN898nvFhfBqfbeJLLj+rv+lv+tvKnofFa/EaP/ETP/GTH8vz/Sqe4ime4ime4qnnq9mer/p7AA/PBBheI7zt+5OW2x1OR0by99AtNyyZmbjS9qdZ/rk+l6g+PfS196SYMn5t+LbXH+c9bfI1zqOuwBy3Nvs07U9K9o1KCccyvPs++tyxeyFP0365tniqsDw/VWJPczz0pp3Z2q91vOB9aW/dlkdcf1SjjtojYdrrb97HXa+/IyUbL5t4Fl21H9ez8Z+/pNieKrKXO5qV8Csdf5P6b1RCj9IiKnAfee9Ts9//UTMdYy/mqJBvHnUF+KTzz/n+zlcNJifkHP/T9N/51C9ir/QjicNRAZ7z+prnMcv4GTVTsav+6fpH743h/i2eKaj/Le4n+of+kcs/TxO/xlUyGJ/GJ/8xvtLJ+DA+jA/jQ/wcXQmIj/iIj/iIj/jo+8elldLi42MjPjYqgOtM8mw/m0mNiRmv9Atl5d8X0h68mZbs3jLl8stxjtXyw+9ps2R2q/O84H3TVd/GORz8bFqC+c6bW31+NQNu/H2KqsJIOk5zlAngm9KS0Znuw9ymHcX5b58yAXx9WrY7U/v150yTjN/30edU+9Fm3kJg1+vaJoC7aT+uJ5Y7jkrkZRPAaTn2M/vSPct8/c3PG5cMP7P3u2kZ9JQkz3z/R33ehp9+TrHjV9NYaxxlAjgtg74a7dd6bL02VUNfVS3JnXP8T3P/6n5RMjBNglnN65/mPJ3XbHGZfvQz3pb3TfShD07iJA7gAA7gAA7gAA7gAA7gAA7gAA7gwGONA2P2AK4H+7g10se/v+1FH2m972skPsoloO/46NAexCtvf8NP/8KS5M6kRGjs/XrszlQR2N8jZeXtRyXM7pYVn83z2vuhK8tlYKtKmtnaj7+fNgldLQGd9mHN1H7AMiqA2+7FXCYA0xLQOdsPIaepSH/4bRcXZ9JSyDn0r5epieuJytuospx0xPWfTpWwuduPypx1j7902UkBsfR1XH9u/Ycrw7Zc+55icy/p2dRj8UoAs/f/pv7De96sSZMTYmnwZiVy7vG3XPv1/Z3btDMtT/5zKen+veLUA2n590z8WUn/iYr9wR7M3eq/kvNbPBPT+bXpX+P3eKEf/cLMT+/vuo4PPj+P/9O/9W/jG99G7/El/uMjPuIjPuLjqD0QxQfxQXwQH8QH8UF8GM4fPJa+v66WgI6jsaT8LK/XXzLdHrxR9RfJv1ztx7lPk3iM3y/Poa58rLNSM+gxbRVylfxM1Y+9Jd1n0b8+/ahw3PCUVNHb8uhXIGa4/vr82+59G7/fr0DM2H7oGRWWse/spKNfAZq5/fi4SDROqsguE/AfbySJZ+h/4/pPs+J0WI/Y//nEPV8e/HMH7cf9iAkBO37t5kX7MkfVdVz7wtFG5XxH7fdvb0oCR1J+TUrCHr/nS2nyxd1Zx19OnuXggfPpPdR2ML7dn3z+oQ+gjse/8WA85PRb+pP+pD81XCV+85MZn2fxFV/xFV89H/QUEF/FV/G18+8r8QZvfL/n+73H6vPH0B7AS7eAXDwTqt37uxp7Wy6XeBss/1zPNGn3+c2teked39YploEerjxMBZuLtiBbyfVHheF5b767dfVrVCAfTRXIo7YgXkn78TnrnnRlsStVObY5Tj14d7EnVSDnbD90bKtDmQD/4JVFcXz/ki04V3r99X2Mv5+0LHlUv0b7C2kSQI77P6p/bn7GbxexP/Woo6y+fVeaANDR9TcrSzc/44ZF5xFtH/riDdn7X1P/Zvv1v0f/3HjJVcWJtOfyye/8bb/yuCv968oynz873ybx1/uDOJaDX6PGz6Tx5f2qn9M/zHtef2V8G9/4gi/4Kr6Ir+Irf8Ffeb6uVm7x/YLvFzwfeT7yfOT5yPOR56Oz/flosAdwxsqouY1pidWUBG4usTqc+Fqy52bG9kP0bS2W3Y3E597fT4nHDmZSRSV0VOFOWgK5y8rTqHAMHZY7IgEYe/+GFl3MdFl34WXlcrvjdIjkb1R/dtV+zNyI/jhcdVprshrt1/0rKrK3Pf+9xZpdF/VvSdz/2AM77kMX+o+auRJ6xH2Jo7/ncebxZ+acmXOr1Z+74Lf+q//qv2Z+PlZnfuIbvuEbvuFb70sqzz+r9vzJrze+kVHJ2cn3b/wNf8Pf8Df8DX/Db/Ab/MBoP5D2AN62UK1xXQWLxTNX4nW9Bvh070eSafPVr66WWW0kvCLhdvjr70l77t7ca29lnz843/F/H0sxxxLAo5KPVeVvSryt8PratB9Jth2/cvOi628MxXLZ40Nfe3eaOZhf//r8Yk/kbc//3ZHnUC69+5lXpsrX72W//019YpndWIZ546XP6d+L6AeR/Dx824dT5euBTtuv9Y2k/PpUdboh/Tx53x3FyQfvKpf/7VL/Uf0rKqOjT8ay4132v2o8dze+fD599S/ja7X5OZhZafwZf8af8dedfza+jC/jy/jK/f1Im+8PPF/xd+KP+CP+iD/iz3T5B/G11gs/8RM/8XM0Pwd7ADczk/HfwzMTZ3g/KoHnUtLr9J7vVvv9Zv784VNrfn4k2iLxuHb3xeU/n95zf0r6fblYSMvtLpoZMsP1Ldd+vBeVnxsvfW46h4vKfU5j2dvjac/XM0mPsUdG/aONSH5uSMnPOM4c3bfq7dfXGfejrHbNfH1LdPT5q9a/J/V/749QQP/UP5srT3QYf4w/4098HFIAf/EXf1ft+QN/8GeRAviLv/iLv+MUwAd8wAd8wIfRCuAjPuIjPs7Ix34FcD3TcLCHRTVzZPDv9et6jwfv00f/MD6GOYAP1R4w+IiP+IiP+LiYA+KD+CA+8gf8EX/EH/FH/BF/1OQAf8gf8of8IX/IH/KH/CF/2KU/HF8BPD637h0KUIACFKAABShAAQpQgAIUoAAFKEABClCAAhSgAAUoQAEKUIACFDgLFagqgOv1eOuK3/R6If2vn3n2frp1qd6ePlVlo/5hfOADPjZ4iI/ig/jYm7EqPoqP4qP4KD72nxf4A/6AP+APfH/g+xPfH/l+1ffLvl+XXxj4Af6YP+aP+ePV9se9CuBYTDwWla8Pr+mhPxgPeFApgId4iId4iId4KB6Ih/wAP8AP8AP8AD/AD/AD/AA/wA/wA/wAP8AP8APnjh/oVwCXM7LqyhU/qwoWOtBBPzAOcAAHcAAHcAAHcAAHcAAHcAAHcAAHcAAHcAAHcAAHcAAHcAAHziEODFUA15lrP6sZbXSgg35gHOAADuAADuAADuAADuAADuAADuAADuAADuAADuAADuAADuAADpw7HJj7wRvSHsCxV9W4mQux56v36aN/jJ7ZYnzgAz7iIz7i46iZf+KD+CA+iA/ig/ggPizlgPgoPoqP4qP4KD6Kj+LjMAf4A/6AP+AP+INO/EGqAN6WEBvzNuqZC/U69oPX3qeP/mF8VDN78KFSAB/r/iA+iA/ig/ggPoiP/AF/xB/xh/yx5wPPB5Uf8Hzk+cjzkecjz0eejzwfeT7yfOT56Gx5PhrsAWymjZk2ZtqYaWOmTSczbRbwFV/xFV/xFV9VOqh0UOmwmAP8EX/EH/FH/BF/xB/xR/wRf9TkAH/IH/KH/CF/mNUflhXAjbI+/0kBClCAAhSgAAUoQAEKUIACFKAABShAAQpQgAIUoAAFKEABClCAAueoAr09gAfL1FSVal7Xy/bQQ38wHvAAD6plvPAQD/EQD/EQD8UD8ZAf4Af4AX6AH+AH+AF+gB/gB/gBfoAf4Af4gbPfDzT2AB6ksKvB63WtAD30B+MBD/CgUgAP8RAP8RAP8VA8EA/5AX6AH+AH+AF+gB/gB/gBfoAf4Af4AX6AHzi7/cCgAjhF7XLmjp900A+MAxzAARzAARzAARzAARzAARzAARzAARzAARzAARzAARzAARzAARw4JzmwaA9gM7fM3DJzy8wtM7fM3DJz6+yeueX+uD/8Gr/Gr/Fr/Bq/xg/wA/wAP8AP8AP8AD/AD/AD/AA/wA/wA8v6gR+8YevCXCr9HVT+xh4GXtOjrgjXH4wHPMADPKhWyMBDPMRDPMRDPBQPxEN+gB/gB/gBfoAf4Af4AX6AH+AH+AF+gB84+/1AtQdwr3y7nyn2uiznpkdvJp3+oD8YD3jQU0C8qMyd+CA+lDOtxUfjAQ/wUHwsFcBD/oA/4g/5Y/5YPBAP+QF+gB/gB/gBfoAfOLv8QNoDuK4Armcu+VnNYKIDHfQD4wAHcAAHcAAHcAAHcAAHcAAHcAAHcAAHcAAHcAAHcAAHcAAHcODc4sCiCuD+TK3e4vGDMv66nL03k8n75eLy9FncL/Qf46Oc6YcP+ICP4kOvMnY4TuJDYqTxYXwYH2XlOD54vmr2A/FBfBAffb/g+xXfr/AH/BF/yB/yh43KQd+v+v7E90e+P8rx/dGPQgXw+gsvL4qN28svm84c3V+c/sd7VrXCd+3ui4t1j7+0WJfO48zRfcWp7/xtcfKBu3p7La/ejIENT76qWDiTes3xA49K+2YImSFkhtDqjXfjzXgz3ow3HMABHMABHMABHMABHMABHMABHMABHMABHMABHPjR5MDcD9+Q9gBOU64DAuXM67KAL8/rdY+/rJh/2nVl4nNu045iISVfT6XE5+HbP1Is7Pte9vaGz3/DU55TbHvee4s1KQHbPM7sub84/LX3FMe+eXPW6x1uf83Oi4rtL76pWH/JVYvajxdxDge/+NvFiXu+nE3vUfdvza6Lii3P/O1i/oqXLdHg6J2fKo7eflNx5ti+Tu5/83wi+Tz/z68rIhkex6kH7yqOp2s/ed8dnV7/cH8OPdbsemKZBD/1wN2d3v/c48nn5eUTPemZM97pT/qT/pTPPxpPxpPxZDzleh7FEzzBEzzBkzzf7+EpnuIpnuIpnnaRPxJfxBfxpdv40tkewFtS4nXzVa9ekvis/+HgF95UHLvjo51V4m77pZtS8vmlY9uPN07c86Vi/2deWSYDc8+AWPekK4udv3pzSnzvXPYcjt35yeLgZ1+dvf24no2XPrfYnnRY7hwiEbvvpueUlcldzASKyuudv/bpkUnwEOb4PbcUB//i1Z21X9/XUZMBIgkfSfAjf/PeTvQfpefGMgl+UbE2JaJPPXh3cSz1wZgMkbv/+bwfzRk97rv73gXH9Sv9Sr8yUxgHcAAHcAAHcAAHcAAHcAAHcAAHcAAHcAAHzi0O9PYATied/lfP5Clv4gyv2yRfI/l36Au/VRy946Yq+TVDe8N/Pyn53MzIRgL2wF+8Kmv7czufWJz3m387Mflbn0dUIx9J/8+lf+ix/gmXF7vSObQ5yiTwR1ISuFcJnOt+FPPbi12v/qtiXTqX5Y5of+8Hr8x6/c3+tPkZN6Qq6BvGnkIkoQ98/KWdtV/fj22pGnyUFuVkiNvTZIhe5X0u/Ud9XlRib7ryVWlywLWpIn9fSsB/qTgUfW9vSkKvQvt9k5BxvHepl/PtmRr3y/jAh8EkKePBeDAejIe0chL/kff5jZ70zPl9gP6kP+lP+b7fM56MJ+PJePJ9YSPZ4/sA3wf4PsD3Aefa9wG59wCOytddr/qrNnnH8nceftdTslZARvL1/N/5duv24xf3ffQXihP33p6tAnb7iz86sfq4eYKRiHvkgz+XVYddr//blGy8rLUOZRL66ykRGMn4uhPP+HMaHbpoP64jKn93/OqnJ+pwJC1LfjgtyZ3z+msd16Qq8N2vv2PJUuTNk9r/8ZcUJ76dlgPPqP/wfdyUlgGPyRnDR/S/vTf9wqrtjR2V6ZGQj2R4JP/j3kciOle/m+ZzokK9ixUAuryP01yf88jHM7qb4Wg8GU84gAM4gAM4gAM4gAM4gAM4gAM4gAM4gAM4gAPnCgfSHsBbU8qpGFTApv8uX5d7AlebAk/z/s6UbNuQEjxtj6Mp8XYwVQL3Z5TN2P625/9usWmZpadHnVcknw58/LpqBsuM7a+Z31Gc/87/1fby+7936Au/XRy5/cMztx/nvzYlfnf/5t9NdQ6xHPLD7740S/vRXyLpef470j7PLY9IQj701idma7/uv+elyQCx72+bo5yMsPe7M/X/Uf1nS+qTyy2HXo6xdP0Pv+vSoji2P3v7cT/W7ro49Yk7xlal577/4/gROmxNegwfOft/G341OXHyvtuLA595VXF67/3Z+9+0/JyVP/5+tvhFP/q14cdK/ZH+pX/pXyt/zQENcgAAIABJREFUvjB+jB/jx/gRf1f2/Qx+4id+4id+4udKvt8XP8QP8UP8ED8eG/Ej+x7AF7z/QJtcW/93yuV/P5SW/81U+Tht5Wt9Ij9847YsFYjTVkDX7Z+8746yEjmHDluf9eYilj2e9tj7oZ8rTj5wVxYd2lbeNs8xdyX2+gvTMtipErrtcTAtBX40LQmeewZPJOPbVGNHFXBXlbCTlsEOjXLrP0rHmBQwlyZJDB9lAvxtF2Xp/5Pu36hK6HISyJ+lSSCZONTmcyIJHf3idJp8cTBNAHk0KpGjAnrTFS8tTqb9qE99545Vvf5J98n7ZtK1GUf6iX6in5h5jQM4gAM4gAM4gAM4gAM4gAM4gAM4gAM4gANLOdCoAK4rfWf7+bgPHGybb+v/Xpl8rStvZ/y5kvbjRB5K51BVOs92/eMqHCeJEgngvTf9/Mztx/lvfuabl93zdty5xDLAp1I1ZA4dtqZz2LzMvrujzqHcEzpVhOdoP3RYd8lVUy1HXu3F/O5s7dfXcUHLMdFV+3Eeu17118X6S65cthvm1n/4PhYp8XvBMtXxez74s8XplIjMdf/Hfc6oiuwlFegzcqANR7an1RJiOew4QvtYhrzN3+XUp+ZV7EF+KPX91W5fe7PFG/rRLycP9Cf9SX+a/TnAODKOjCPjCAdwAAdwAAdwAAdwAAdwAAdw4KzhQLkHcJ3s6G9gPFjmoJw5McX701YAn0lL7j4SS+9G8jVD++e9+Z7WS/42s2GLKoCnuN5hfVZS+RrnsagCeIb243xWknxdVAE6Y/vRX2IZ7lFL/S6XgexXoGZoP/rThidfVex8Zfv9qA+lPYCP3LZ4Ge5p+/+o3489qdssQ92vQM50/c3x1GYZ6n4Fcgft1+N7OT48dP32qgK1w/bj80dN0sg5/tqefyR/Y3/qYOCej/z8YA/wjq+/eX6xZ/rmtDf0kVT5vrDve6uif1t9csSD1ehPrmflfsH96Z53+qf+mctfG6/GK57gCZ7k+b4CT/EUT/EUT/HU9x29CrVV/P5L/BV/xV/x90c1/i6pAK4TdOMy1JPeb7vcbf05x775qbT/5iv7SZ9Jnz/p/Uio1FV1y5Y7Nt48laoO96bqw2rH4+pY6fXHkq7T7r8b7dV7Ic/afvx9nVhqe/3xewtp79mH3vLjM19//QHrkw67ptyHOPbgjWTYLPoP6xcVp6OWHB6lTVSgRl/I2X70o2al53L3pKv2o19P6hNx/x/5vZ/Nrv/wOIpJAaP2Q87Z/yfdv+gP573h7/pJ+bj2/X/6kuJEqn7PMf4mte/9lfPV/ZktPtGPfviDPyv1t/iBH/iBH/gxupIFH/ERH/ERH/FxVKWf+CA+iA/ig/ggPpwV8WFRBXAkAtP/ZylPnnb54ZzLDsd5b+hV1S2XaBt+72BKQB9NiehZrrupW9uKz+Z55Fz+dk0kuN7y7daJzziPSMSHDrPe/+bft1l2uNag3IM17YGbs/24n237Y1kBmpbgzt1+fN7aXRcVu1PCcblEdCz/ezgtA9xF+3W/3pkmR8T4GHV0vfxzfV2xDPSOF3900XmcSPd+f+p7RUrEdnn9zfEd5xEV4nFPTqbE7+k08SDX+Pc5s8eR1eoH2pkt3tOPfniHdziAAziAAziAAziAAziAAziAAziAAziAAzhwdnIg+x7AMdij8jMqYScdXSX9drbY77Q+t6j4jORrTkhNm4TuQodNT3tpsS0l2tocUQG5J1V/5k6CrY0q4Ff/9cREdFft19CZ1B/L6td3purj9DNnP2hCb7n7EX1wX1oCuMv26+valipwY3nu+ohrP/zVd2fde7kN7CMpvmb3xcWZPfdn73dt2u/qPvtcZkf/OzvNjvvivuAzPuMADuAADuAADuAADuAADuAADuAADuAADvxIceAHv7llodx7oF/5G2vCN17HnpxTvr9mfmexMyX+lksCR8Xl/j99cXHm6L6pP3/S+bVpPxJgZeLvAz9T7X2Z8frj/NrsuRrnsDT5N7v+tT7bUwJ4PiWClzuay99W8MvXfnze2sdfWux6zVfGJoGj/Uh+nkxJ0C7ajz0e1mzaWWx+1ptHLj0c1Z+xBPkg+Z33+ss9JnrjJ5KeW9J5bLjkqnL54RgDR+/8RHH8mzdn73/9/jxi/Mb4WHvh5aXeJ+69Lfv4mzQ+vT8bX+lHv+XGt/6hf+gfvYfZFfhX48f4MX6Mn/J5BD88H0z5/Yf4IX6IH+KH+CF+8g/T5w/ET/FT/BQ/xc/u4+dcLAEdCcJ65kOdLJz1dSxDvOnq1xSbrnhpf6/NOuF55LYPp6TXp0buuZuz/a0v+N2xCdByyd+UgI4EZBfXH/ptjCrcdA7jlv4tl13+fFr2t1F5muv66/sXe79GInjUOYQGB7/wpjIJPev9Xu7vo+3QoU58xjXGXr9H7/xUEX2hy+tv6jmXkq7zSY+5lBCO8z12zy1L9vzNrb/PqxTosn/5fPrqX9XMPbzBGzzEQzzEQ/FAPOQH+AF+gB/gB/gBfoAf4Af4AX6AH+AH+IFyksUP3pAqgKPitz/Tua6AHPo5w/tlxWFaDvjUd+5oVJjm+/zlzn9u1xNT0u/aMgm9ZvPO4nRacjb2HD354F29Sufeecxwfcu1X8xvL9uPZaGjEjW6XSRej93zxeL0g/cM9Oio/bqid8NTnlOsv/Cp/fZWu/0u+1fX/dfnd8sH+tIXH+qZsvnjr/FlfBlfxle1Egm+VBUGq/P80W+nY39vfBvfxje+4bv4Jr6J7/wNf7eIA/xnbyUT8UF8EB/EB/EhONDfA7iaFzO0/O2Syj3vL1qegj5DlZ36h/7RXE5+eKaV/qF/6B+j9pgQf/kP/kt8EB/EB/Fh6V5k4qP4KD6Kj+Kj+Cg+io/De3XyB/wBf8Af8Af8AX8whT8Y7AE8phJ2eOaQ14tnEtGDHs3KGv1Bf9Afxq9sYHwYH8aH8VFPNsQDPMADPMCDakUqPMRDPMRDPMRD8UA85Af4AX6AH+AH+IEO/EBvD+DBzJHFM6kGufR6ZoX3mzOt6FPPNdA/qpk3xofxMZiJiA/4UM1Vxkd8FB/ER/6AP+APBstv8Qf8AX/EH/LH/DF/zB/zx/wxf8wf18tUez7wfOD5oLvng7l+BXA908jPasYRHeigHxgHOIADOIADOIADOIADOIADOIADOIADOIADOIADOIADOIADOIAD5xgHensAD+beDWZeVHOxvK42DK8PetBDfzAe8EB8EB/5A36AH+AH+AF+gB/gB/gBfoAf4Af4AX6AH+AH+AF+gB/gB/iBs9YPqABO5dVmbpi5cY7N3FChbtzilpUacAAHcAAHcAAHcAAHcAAHcAAHcAAHcAAHcAAHcAAHcAAHRnEg7QG8pZygkHKggzrX8nVj5ob36aN/GB+DLWrwAR8HKyOID+KD+CA+iA/1Fmbio/goPtZE5A/4A/6AP+AP+INqi1P+iD/ij/ijBg/lH/p1kvgoPogP4sMqxAd7AKv8VAGtAlwFOA7gAA7gAA7gAA7gAA7gAA7gAA7gAA7gAA7gAA7gAA7gAA7gwGOEA/0K4LTZbzUFx0866AfGAQ7gAA7gAA7gAA7gAA7gAA7gAA7gAA7gAA7gAA7gAA7gAA7gAA6ckxzoVQCnc6+XHSgz217To7dMj/5gPOABPooPjZmP4qP4KD4O9hQxHowH48F4qPfawgM8wAM8wINq7z08xEM8xEM8xEPxQDzkB/iBs8MPlAngWIi/HpT1Ni39SuDeP3i/GrT0qTtEr2Jc/ygVMD6MD3zAR/FBfKgCgvg42PRQfOQP+AP+gD/gD/gD/oA/4g/5Y/648XVqb5KE+Cg+io/io/goPoqP3cfHoQrgemaCn9UMBTrQQT8wDnAAB3AAB3AAB3AAB3AAB3AAB3AAB3AAB3AAB3AAB3AAB3AAB84dDgz2AK6TzUOVK8MzMbxePDODHvRozlTRH/QH/WF8pY/xYXwYH8bHuJn++IAP+IAP+DC6Eggf8REf8REf8XFUpaT4ID6ID+KD+CA+iA9LK+nFx6HK8h/85uaFwd4M9R4F8bOeyRBr1jf/vX7t/WqmA330D+Nj6TjAB3zAR/FBfBQfxUfxcZgD/AF/wB/wB/wBf8Af8Af8wWIO8Ef8EX/EH/FH/BF/xB914496ewDH5rZR+jtu5oz36aN/GB/4MHpmHT7iIz7iIz7i46iZx+KD+CA+iA/ig/ggPiytTBEfxUfxUXwUH8VH8VF8HK7c5A/4A/6gC3+QEsDjKoDHzTzx76NnpNCFLqNm6ugX+oV+MX4mp/FhfBgfxgcO4AAO4AAO4AAO4AAO4AAO4AAO4AAO4AAO4AAO5ObAUAXw8EyL+vXwzzoX7f1qZgZ9Fuugf1QKGB/GBz7go/ggPjQ5ID6Kj/wBf8Qf8of8IX/IH/KH/OGAA/wxf8wf88f8MX/MH/PH/HFX/risAK4/vJ5h4HUFHXpUMy70B/3BeMADPMRD8UA85Af4AX6AH+AH+AF+gB/gB/gBfoAf4Af4AX6AH+AH+AF+4NzwAyMqgOvZd6NmXgTcVvb+uidcXpx68K4V//0gAz5d+/NXvKzYcMmVxdpdF5d/eObY/uL43bcUx75585gKzek+f+kMncV/vya1u/nqVxfr0/Wvf/LVxakHvlWc3vvd3jl8qrHYfa133vbj/NbsemKx8dJri/lLn1t++Om99xcn7r29OH7Pl4qFYweGdMjffj2DZW5+e7HuCZeVDZx68J7U9r5Vuf7FM2i6u76qHZ9fKZCXHysd/5PGp/eH75P+q/8av/iF36Nn4OMjPuIjPuIjPo6qUBIfxAfxQXwQH8QH8cH3a75f8/17kwP8IX949vjDag/glKxZiIrXzD83peTrpqteXay78Kn9tFgkQA9/7T0p+XhL9vaa5782JRp3/tpnijW7q8Tv8HFmz/3Fgc+8sjhx322dnce257+v2HT1a0a2XyZBH7ir2Penv1Qs7P1eJ/qHHlue/7spAT36HEKDg194U3Hini931n70qw2XXF1seeYNZQK8eZxIfeDwbR8uTt13R6ft1/0ikuAbL31OORkgJgKciIkAKQlepCR4F/0/93jyed1wiq50Nf7zx3/jyrgyrowrHMABHMABHMABHMABHMABHMABHMABHMABHHj0ONCoAB6XpxyuTB3+vaXvz83vKJOvwwm/5l8eu/MTZQJ2aWXf5M9f/BtL249q412v/utibtPOscnX+o0Dn/k/i2N3fnKZ35v++uPDtr/4PxVRfTzpWDi6r3jk936mOJOqgkcfK2s/PmvXq79SrL/kqkmnkO7DchqsvP1oePPVry22piT0ckeX7Uf/iqrj7S/+6KKJCPX5hP77/vTFxcn7bs+uf/WBA/3iXkQyPhLRcUQC/mjqe0dSEnwhJaRz3//h9uvPj/G5tBJ73B2a7f53Mb4njX/vNxVw/xZX5g/3c/rQp7lyg/6Bn/g5UAAf8REfxz+/GB/Gh/FhfHh+Xq3vL/hT/pQ/7X+bl/5D/BF/xB/xZ5QCnk/wcXx8mPvB69MewHO9Nct7FcD9NdzjdewBO+X7bROPR1Pi6+Dn3zT15y93fkVaZvj8t/zXVsnfGC5VAvZnUwL2/n4l8KzX3ybp2RyqUQm854M/k639OP9Iuo6r/B2Fib0feXa/EnfW66//PhKdO9JEgDbH/lQJXVci52o/ZpbM7Xxicd4b/8vE/tDF9ZczW3rjZ/6Kl5aTAkYdcf+j/boSOef1N8fvmvmdxeZn3VAm5esj+n8koA9/7d1Z+1+5B8Ay/IhK7HJZ+LQiwIn7/rZcDryeCdTV9fv8aqYRfRvxbgXxjX70m8Q37y/Pf/rQZzl/oH/oH/rHyp6/+RP+BD/xEz/xcyXf34of4of4IX6IH+KH+DF9/vNcip/lEtBtEnRtfyeqXsclukZ9xsPv/GfLVL+2bXXwe1ue9TtpueE3T/WHUQEcVai5jgve9WARVZbTHJMrkdt/2ppdF6Uk+H9r/wfpN0/ee1ux96afn+pvJv1ynEOcS5sjqmEfftdPt/nVqX6n7WSErtqPk41E5+43/JdlzzuSsIfSctxdHstpEQngw199V5fNl58d/SFWBxheFj5WA1i8R3i3pxLjc2PaE3ttWiI+qrDHV+B3ex4+nQIUoAAFKEABClCAAhSgAAUoQAEKUIACFKAABShAAQrkVmCwB3BZCVV9/PhKucnv7/i1vygTK22PsvrwC7/Vq5Sc/PmTzi8SbZFwm+aIKsiHfufCLNcf1x4aTHs0k9Cz6B/tTluBXJ9rnYyftf34+w2pwnNaHfakpbAjCZij/ah0XJP2+o1q8LZHVCEfT3sC52q/ngmyM/WHDS3GRO7rb85E2fi0VIH8ktEVyF3c/9GVpuOXJY9K4D0f/NmZ+TOJD/F+VELvfsPfLdoffP/H0r3/dtoPekb+Tfv3a3Y9sViX+umJWII8A3+nbX/xTM/Z+av92eIn/eiXO/4MZvIa38aX8WV8jVsJBB/wAR/wAR/GPb/iAz7gAz7gw6iV5PhH8UF8EB/Eh3MlPmSvAH7c7x1um28rfy/2Xi2Xv810TNt+3exDv/OEZfZhbX9yK6lAzq1D2/2Hh68q7sP4vXDbaxC/uRIdclehxp67UfXa9sjdft1u24rwnFXgw9fcpk902X6cz6TK9DoB3vZ+rfT3RvXNZgJ6pZ877d/FEu1bn/++8s9yjr1pziMmy2xLy8XvTysgqIKeRjm/SwEKUIACFKAABShAAQpQgAIUoAAFKEABClCAAhQ4exXo7QFcnWC580E9sWeFry+YIQH8aLRf35pIPp1O1aezXv/mZ6YlqJ813RLUcQ4Lx/YXD0cSekb94+93veYrRSQ/pz32pQTwiXublYgr7w8rSQAfScsQH/pKWoa4Xwm58vbj2jel5ci3jdl3d5Q2uduv+/PjPthuUkRX7YeebZbC7rL90HtD6pM7l0nI5+x/y/Fs6wvet2R/7Jzjr23/3ZqWq9/cW64+F3+m5UeMj1i2v9oD+/Ys/Gl7/Tl4P+31+v1eYF9hfKcf/YzvfH7ZeDKejCfjKdfzN57gCZ7gCZ7k+T4TT/EUT/EUT/HU95Wz5WPod/bpl70CeJp9XwOquSuA21ZbDicAf/iGLdPmS0f+frOqb5oPzKnDSpKvca45qxBXokPuCtRpK4BjD95Ykjz30XZZ8noJ6tztx+e16RM57/+oa4h9d2N8jjtyVeFP0m/UPuW59wGfdA7xflTfxmSNmHQR9/7ROGLJ+jNH92er/H80rkGbFKAABShAAQpQgAIUoAAFKEABClCAAhSgAAUoQAEKLFZgUAFc7gGccvT9pf1X9rrNUrPNUzj0+ZR0uz0l3TK1P+0exHEuse/sng/8yyzXv2bnRcX5b/1vU/ezI7fdWBxKeyHPqn/8/cbLpt+HOCogIwGXo/2YMbfu8ZcVu9/4/0ylQ7kH8Z7vDqYaZeiP00wIKJcgfuCurO2HnluenarCe5We4wQpK1Df8c+KhZSM65fiZ7j++n6u2fnE4rzr/76IJOyooxwD6fpz3f9x43nLmAr5w199VxFLcHfdfv35cT8iKR5HTL7Y9ycvKhaOH1i19nPxbrX0cr4ri4fuTxpg9dS/jDzTH/XHHH7V+DQ+8Sn1gUzPX8aT8WQ8GU94wp/xZ7N/nyqeiqfiqXgqnoqn4ql4mtsPZK8AnrTPZzP5FHtOPpISr5H8ynVMW/UZ7eauPG2z3O7w9ZbJz6RHrmPaSuwu9r+dRoeuKjDbVL6G5l21X9/PSVXAXVb/1ucwqvI13ovxt/fDaQnglARejSOqwzdf/dpyT+BoO5K/XVRer8a1aIMCFKAABShAAQpQgAIUoAAFKEABClCAAhSgAAUoQAEKnG0KpArgTQvVzIJ6hsXg51z694UR/17//rj355/+8iIqgScde1PF4ckHvtWrvM3X/vaX/GG5r2WbY1D5mK/9dRc+tVzadVy15fB5RfLr0OevX6LDSvWP+7P+SVemc/hqGwnKxN/eG5/Vq4Cc/f7X/WPNpp3FeakaepIO5USA9/+L7O3X+k3qD11df/P+zW3cXux8xWeX7M0cCdCDqQr+2Dc+kfX+x3ge1X+iX2y+5jeK9Rdenpb+3VdWPB9KCdgze+5flfabnJmlf4+7Pp+fb/y6PyuLf5Pio/crv6F/6V8r8ZfGj/GDH/gpfogf4sfS7y3ER/FRfBQfxUfxUXwUH3Pnd/gL/oK/eGz4i6oCuE7y1unCDK83XnZtEYm3Ucm/SPjt+9gvDSoOM7RXQql3jEu2DWdDy8RfqnxcSImw5t/n0GO562+eR1l5+ul/l739uJ5Igm97wfuWTcCGBrH87Zl93xucVsb7EVWeO3/9L8r9Tkcdi5bfzdj/hu9nTErYmpb8jfPpN5OSr5F8P/J//0GVfO6w/fp8okJ9Q/p/vD6dkq7H776lk/6Xuz/7vAFfcvCBnvRcDd6UbWTkuc+jp/7U+1JhFfyC8Wa8GW/GG7/IL/KLPQX42U6+L9K/9C9+k9/kN/lNfpPf5Ace+35g2QrgcTNH2v77XKoA3Xjpc4sNT766WLv74jLhdeLe24pj3/zUyIrjtp/b9vc2X/Pacp/P4SR0VF0eufXGMvnXT/4uU+nctr3h34tK4EjARtJv+IgkeFRejqr8XGl7o/4u9n7d+uy3LKmILjVoJj87uP7m+cw/7aX9fhBaRF84mpLfJ1N/yHm9oyrZm58fexPPbd5Z9r+T37ljVfrhal7fpOv3/vgZge7T6JUg6EIX3MANHMABHMABHMABHMABHMABHMABHMABHMABHMABHDi3OLC4ArjjJOCj1Tki6bf2vItTsq8ozqTE52onHSMJu+EnrynWRvVpqvw88T9vXfXkYyTj1z3hsrL9hSNp6d9/vFvy8zHa3x+tcabdcwv+7pf7xbQz7TiAAziAAziAAziAAziAAziAAziAAziAAziAAzjw2ORApxXAOs1js9O4r+4rU8AU4AAO4AAO4AAO4AAO4AAO4AAO4AAO4AAO4AAO4AAO4AAO4MDZyYEqARxH7KEbFZH14TU99AfjAQ8qBfAQD/EQD/EQD8UD8ZAf4Af4AX6AH+AH+AF+gB/gB/gBfoAf4Af4AX7gHPEDKoAtA7yqe/CaCXJ2zgRxX9wXM/XM1MMBHMABHMABHMABHMABHMABHMABHMABHMABHMABHMCBxwYH0h7AqQK4UfhbpL7t9WAiEz30B+PBeBisjGA8GA/Gg/HQU4Bf4hf558bMf/FRfBQfxUfxsVo5CA/xEA/xEA/xUDwQD/kBfoAf4AfODj8w9/20BHRUK5eDsi5bbvxcSBWy3qeP/mF84MPSmV/4KD6Ij+Kj+Cg+io/i4/DMaP6AP+AP+AP+gD/gD/gD/mBx5RR/xB/xR/wRf8Qf8Uer748GewA3JiWMnKnl/cUKDM/spQ99mgroH4srw4wP48P4GCiAD/jQrBzFR3zER3ysFRAfxAfxYTgq4gM+VArgIz7iIz6OUwAf8AEf8AEfRiuAj/gYc7F+kCqA+2Z6SSVwPTNl+GedqfZ+NXOFPot10D+qmZ7Gh/GBD/goPogPTQ6Ij+Ijf8Af8Yf8IX/IH/KH/CF/OOAAf8wf88f8MX/MH/PH/DF/3JU/Hl8BPH7uiHcoQAEKUIACFKAABShAAQpQgAIUoAAFKEABClCAAhSgAAUoQAEKUOAsVKDaA7g+sXLiXRQE9/6lMRGv/BXv00f/MD7woSImPvYnKosP4iN/wD/xj/yz5wfPT/wRf8gfhx+oFoLij/lj/pg/5o/5Y/6YP+aP+WP+mD9+tJ8PVACfhVl5p0QBClCAAhSgAAUoQAEKUIACFKAABShAAQpQgAIUoAAFKEABClBgJQqkBPB8OUd1If2vmplUbWrrNT30B+MBD/BQPBAP+QF+gB/gB/gBfoAf4Af4AX6AH+AH+AF+gB/gB/gBfoAf4Af4gXPLD6gAXkna3N9QgAIUoAAFKEABClCAAhSgAAUoQAEKUIACFKAABShAAQpQgAIUOAsVmPv+6+YX5uaWmbkQe756f3xlNH30D+PD+Bi3cgI+4AM+4AM+pD4wYqY8PuIjPuIjPuKj+LB05TXxUXwUH8VH8VF8FB/Fx+GVWvkD/oA/4A9W6A96FcBV2fLg8Joe+oPxUCuAB3iAB3iAB5UCeIiHeIiHeIiH4oF4yA/wA/wAP8AP8AP8AD/AD/AD/AA/cPb7gbnvpz2AY+32hTEzSeq1/b0/uhKaPtXeB/qH/jFqpQDjw/jAB3wUH8QH8WHpSjvio/goPoqP4qP4KD6Kj8N76PEH/AF/wB/wB/wBf8Af8AeL99jlj2bzR0MVwPXMFT+rGSx0oIN+YBzgAA7gAA7gAA7gAA7gAA7gAA7gAA7gAA7gAA7gAA7gAA7gAA6cOxxYugfwcCWw14vXmKcHPZpr7usP+oP+MNiDwXgwHowH46HekwQP8AAP8AAPqj0M8RAP8RAP8RAPxQPxkB/gB/gBfoAf4AceBT+QKoDnI11dil9l7uvDa3roD8YDHuCj+CA+8gP8AD/AD/AD/AA/wA/wA/wAP8AP8AP8AD/AD/AD/AA/wA/wA+eSH+hXANczk3P/XPuEy4r5S6/tL6Z88oFvFSfvu6M4c3RfOfMnd3vDn1e3v/7JV5cp7uP33lacuOdLRZzHarS//pKrik1XvKzYeNm1xdymnWXfOH73F4tjd99SHP/mpzq//tBj7e6Li81Xv6ZYf+FTy/uwkLQ/kXQ4duenVu0+xHlE+2t2PbHU/dSe+4vTD969Kte/Gve5637s86s9QOhAB/3AOMABHMABHMABHMABHMABHMABHMABHMABHMABHMABHMCB5TnQqABuFP9m+M81uy4udrzkD4tIvA4fkYA8+Pk3pQTkJzK0NPoj5uZ3FNte8P5i/ukvH/kLJ1MCdN/HXlQsHNvf2TlsTe1vvvq1Yz+J+VvTAAAgAElEQVT/VEpC7/vYLxVn9t7/qJxD3IcDn/53xfF7bums/fjgjWkCQNyLNSkR3TzOpCTwwc9f33n75fzE1B/mn/6yNBnhef1TiEkAh7/6rk77wChh1z3h8jQZYEdx6oG7Vr3tTm+0D6cABShAAQpQgAIUoAAFKEABClCAAhSgAAUoQAEKUIACFHjUFehVAKeq0FQaOpgxkc6r3Me4nkEw3fvrL7y82PWar/YrXsdd5ZHbbiwOfu76aCZr+2tSci3aX5cqTpc7IgG758PPKoqUBM55/XE921/yR8V8qvyddEQS9uF3/NNUibs/m/71lgLbr2t3DpEEPvqNT2RvP27s1he8b9kkeOjTZftV5fHlxY5f/2xZCT181JMRurr+agZK1b+3PvstZSV2XQke5xKV2IdSEvxkSgbnGn+DLSVGj9/5VI0eSeg4jqXk/+kHUyI64/if1L73Z+Mr/eg3S3zWf/Qf/Wfl/tb4MX6MH+Nnpc/H+IEf+IEf+LGy7xfxEz/xEz/xEz+b36+v1vfn4o/481iJP1UFcJnsbaTGZnx9/lv/e1rq96JJuc/y/f2pCvd4Wg45Z/uTKm+bJxaVwHsjCZzx+tdfcnWZgG57lOfwkXQO9TGj/nE/N1/z2pR8fX+rU4gk6CMf+JeDSuQM7YeeUfkbidc2R9yDk/fdVv1qpvbjo6Ly97w3/v2S6uPhc+qq/fp6tr5wfDV4V/oP96dI+m5PVfnDEyNiSfJIwver4TPqP+p+xj2JyvgNaXWASIAfvfOTi6vgO24/Z//K3V99Xt7xT096Gu95/R096ZnTL+tP+pP+lO/523gynown4ynn90n6k/6kP/UU8P1U1u/L+RV+RXwRX8SX1Y8vQxXAdSXuyn/OX/HyMsnU9jidlgF+5J3/tFeBuPJ2qwrGIiWeLy7Of+v/17b58vf2fOBf9CowZ28/zuO86/++X2HZ9kQeSecwqMSc/TwuePf3y+Rn2+NYSsId+PS/zXYfQocL3tZ+IkAkAvelJHh9H3P9bDsZIHc/bJ5/JDonTQjo6vqb57Fcv4xq/KhEzqX7uM9Zm5LQu4dWB4gEeCyFHhMAum6//vwijY0tKQkdS3EfT3uCh/6DlQhmH3+rdR3aqbhPBzroB8YBDuAADuAADuAADuAADuAADuAADuAADuAADuAADgw4sLgCuJ7ZNMPPHa/4bFn5Oc1RLoEc++DO0G45g2TKytf6HGMf2MNffWeW9iOhFMnXaY9Ivh259cZqZtWMOkxbgRznGvvxxn3I0X6c/7q07PLuVHk7zZGzH9TXccF72ifCYyLAqbQc8qz6D/99VEG3GRNdXH+tw8a07POkauyH3vy/VVXAM/a/5f5+12u/Vqy/5Kol3aJcjj1Voefqf8t9zqiq8LICPCWBV6P9Wp/oE1GVHZMPjn3zk53qvprX1WX/cR2zxwf3pzfjtkPO6af6qXFmnOEADuAADuAADuAADuAADuAADuAADuAADjzaHEgVwBsXqrXT65kBsWfpyl9H9W1U4U5zRPJlUIE3W/tbnvU7xZZnvWWa5lMF4C3Fvj95Ua+SbLb2I7m16zVfm6r9+OU6CV2tab9y/ePvNz39l6eqwq5P9oe/uSn1g9nbj/NfSRK66ge3znz9tX6x5+801eCxHPmxtBzyrPoP//1513+jVUV4V+3H+cSYiLGx3JFb/2qmzeL+9LgPHh17Cjn733I8m7/seUuS4YMK+Dz9vw1PdzeS4bEE97E7P5Ft/LVpf9T9yTX+tZ8nnrofqzcejYelvNb/9L/cfsjnzebv6Uc//oq/4lf4Ff6MP+MH+AF+gB/gB/gBfoAfmMYPzP3gdfMRO8rkZzkjoZ6YscLX50+x7G+dCervv5qh/S3PnpzoGs5ARQI4km85rn99i+V+R2XAygTwV1IV8oz6x99vSNWeO1vuvds8lx++flOW9uM2tln2eFiHugozV3+MSs9pqrFzt1/3p90tlwSv98POdf3N/ry1xbjo6vqb1/O4Dy2TAM7Y/5bj2agxWiaAb/632fp/G542k/L9CuQM47+L/tPmenLwMwf/XH++eO5+9ArzV+iH6Ec/PMIj8TPP8yWe4ime4ime4qnnzdm/rxVPxVPxVDwVT8VT8fRHL542KoDrzPlsP2Ov06j+nOao9uD9Vq/ycrb25694Wap+/aNpmi/3Pj186x9kab+Y31487t0/mKr9+OWDn39jcfS2DzcqAFeuw/oLnzr18suxBHcsQTyYQbLy9mMGwppdF6Xq2/8+lQ6xBPGZtB9sNYNhtvbrv5+mIj2u//Sef8jafpzHjuv+uIh+Oenoqv2qInv5yvRY+vnht/9Udv2H7+M4PsT+v5EEzXXfJ31OLE8eyy+XD0Dp2vfc+Iy0B/fdq9Z+fX5xXxaO7s/Gv0nX7f08XKEjHXPGKf1Jf9Kf8vk+48l4Mp6MJxzAARzAARzAARzAARzAARzAARyoODDYA7jOTjUqXcp/mvL15mteW2x9wfsn5br675/Z+90y8dQ/pmxv+PxiD96oQo7qz7ZHufdq2odzJdc7Sp+2e742z69/DjNef30+01Zi9yuQM7Uf1zZuv9dR96Wswk7LcE/b3yb9ftuK8JP33V7svfGZ2duP84tE46T9kLu6/qY+y+3P3cX9HzWe1qRluWPp45ggUB/BgD1J+3IMZux/k8bz/NNfXqxJvDh29y1Zx389k2pS+96fPr6sZv9wf9wf/S1myDQi9iry2fgz/ow/4w9/8DfX9wN4gid4gid40lOAn/d84/kuW/6Bv+Av+Av+4lzxF9krgKMC9vzr71yU4FkuEbvvY79YnLjnS1kr77Y++60T9zutz+nIbTeWFcA5ZwRsePI1aR/gry532Yvei+Vn99/8b7JWnm649LlpGei/bHUOUQH50Nv/SVEcO/Co6NB1BeakPXi7bj9mWmy6+jXFthd8YOT9OPXgXWUFam79h2c6rdm0s9j5is8uqdCPMXDwc2/M2v+WG09xHhvTMuVrd/9EWXF9PBKwmSu/c45nM8bMGNOfzBzFARzAARzAARzAARzAARzAARzAARzAARzAARzAARw4lzjQ2wM43bRy6kp1LKT/xUUM1gSf7v21F16Wqvy+PrEKt953s2wvY/vxeW2W3Y3EW1R9lsmnzO1vueY3WlVC95N/Rw9k07++f7EU9qSlh/vJzwfuzt5+9J+ostz+kj8cm4iO9iP5eOwbn+yk/fJDN20vdr3iP5fLIA8fUX2690/+dXG6o+vvj6fUvyLpGRXJzaWHj9x6Y1p+/D8WRQf3f9z4jfG5/sL/PS09vC8tPXxXtex15v4/Cz9m5Y+/n43f9KOf8bty/2P8GD/Gj/Gz0ucn/MAP/MAP/Gh8H+X5tLPvR7r4/g2/8Au/8Kv5/Weu/AJ/zB+LL+KL+DJ7fMleAVzPgFj7hMuK7S/8vZFJt0j6HfrKO7LteTsu4x6VwLEk9ajloLuo/B0+j01P/+Vi2wvfPzYRXi77myp/u6z8jATwthd+YOQ5RPI52u9679OoiI77sPHSaxflX+P6ox903X59X+I8IgkbeyRH0vPEvbcXR7/x56tW+XouzQwxk8lMJv3VjEYcwAEcwAEcwAEcwAEcwAEcwAEcwAEcwAEcwAEcwAEcODc5UFYAV6W+qRP3K3HzvZ6/7HnFugsvT/+PpNv9xalUcXj87i+k6sO03HAH7VWVjIPzby43G/9+es93V739TU9/WUo8Pr9/XpF8PJoqXk/ce2uv8jKf3sPXH6/nUgVstL9290XlfTj1wLfK+3Ds7i+uSvv1/YhK3Kg8jdfR/qDyutvr77J/j9Jbe+5nVzzV3xbznR70wFu8xdtu/Du+4iu+4iu+4utqfF8j3og34o14I96IN+JNvTIqHuABHuBBBzz4/us2LoTprpdVKDP5XtOjtwy4/mA84AE+ig+NGV7io/goPg5WzjAejAfjwXhI2wZ5XvC84HnB84LnBc8L/cow/pA/5A/5Q/6QP5Zfkl/jB84aP5AqgDemIRnzK+qZh/X8O6/rTZDpo38YH3iAB0FC8UE8EA/EA/FAPBAPxEN+gB/gB/gBfoAf4Af4AX6AH+AH+AF+gB/gB852P1DtAdxY/rkus/azMZObPv3luvUL/QIvBstxGA/Gg/FgPOAADuAADuAADuAADuAADuAADuAADuAADuAADuAADpxtHGhUAPd3au3toOt1NZOLDnTQD4wDHMABHMABHMABHMABHMABHMABHMABHMABHMABHMABHMABHMCBc4QD3/8PqQI43a162YoqQ914HWu2e58+vWXC9Q/jAx/wsR8vxAfxkT/gD/iDwd4+/PNgPIgP4oP4ID6ID+JDfyU1z0+en6plYss948UH8UF8EB/Eh95Km+Kj+Cg+8gfd+6NFFcDlBo+Nilev6aE/DGZyGA/Gg/FgPNQzHPEAD/AAD/CgmvGMh3iIh3iIh3goHoiH/AA/wA/wA/wAP8AP8AP8wNnnB3p7AKcglSg9mIk3onzZ+/Tpz9TUP5Ysc2F8GB/Gx/jtA4wP48P4MD7Kmf78A/8w1A/EB/FBfBAfxAfxkT9YygHxUXwUH8VH8VF8FB/Fx2EO8Af8wQr8gT2AR8F0XJD17/ZE1l/sEY4DOIADOIADOIADOIADOIADOIADOIADOIADOIADOIADOIADOHA2c+D7/2FD2gM4rTVdn2S5J4fX9OhVaOgPxgMe4KP4UJlZPMRDPMRDPMRD8UA85Af4AX6AH+AH+AF+gB/gB/gBfoAf4Af4gXPAD6gANkPDDI2zeYaG/ql/6p9mEuIADuAADuAADuAADuAADuAADuAADuAADuAADuAADuAADkzDgX4FcD1zyc9qBhMd6KAfGAc4gAM4gAM4gAM4gAM4gAM4gAM4gAM4gAM4gAM4gAM4gAM4gAPnGAcmVACn5aDT//rLIS/JLHufPvqH8dFbLhwfhmag4SM+4iM+4mO5fLr4ID4s6gfio/goPoqP4qP4yB/wR8Mc4A/4A/6AP+AP+AP+gD/gDxZzIIM/UgHc2/P4HMvcq1B231Sqq9THARzAARzAARzAARzAARzAARzAARzAARzAARzAARzAARzAARwY5sDc91+3cSHVbfc2bu9llBsb2acJ+2nqhffLwZP+V87Io0+vv5S9Q/8wPvADH/BRfBAf+QP+iD/kD0s/wB97PvB85PsD35/4/sT3R74/8/2h7099f+z789oPeD7wfOD5wPPBo/d8MKcC2MwQM0PMDDFDDAdwAAdwAAdwAAdwAAdwAAdwAAdwAAdwAAdwAAdwAAdwAAdw4LHBgWoP4LJioSzkXGYjb+/TR/8YH/yMD+PD+DA+xplDfMAHfMAHfBj98IiP+IiP+IiP+DjqyzXxQXwQH8QH8UF8EB+WckB8FB/FR/FxyvioAvixkck3I8N9NDPLzCwcwAEcwAEcwAEcwAEcwAEcwAEcwAEcwAEcwAEcwAEcwAEcwIFyCehYh72uAK63rcr5em7TjmL9hZcXJx+4q1g4ur9sIufnt/289ZdcXZzec3/5/0ej/Zih0oW+ba9f+/TX/yoFjP9qxqD+oD8YD3iAh3goHoiH/AA/wA/wA/wAP8AP8AP8AD/AD/AD/AA/wA889vxAp3sAb/k/fqPYdPVri7W7f6Kv3Ok9/1Ac+8YnikNfeecyy03ny8zPX/GyYvM1v1Gsu/Cp/XM4k87hyN9/ojh6+43FmSP7VuU8zLgx48aMm3zj2ngynown4wkHcAAHcAAHcAAHcAAHcAAHcAAHcAAHcAAHcAAHcAAHRnMg7QG8IbTJWglWzO8odr/264uSroMWqv869cC3ij03PqMoju3vrBJtx3V/XMw//eXDTS9KRu//2C8WJ//XXVmvf1jPtU+4vNh46fOK9T9+ebruu4pTj/xDcfyeW8pq6NWYWbNm18Wp/WuLjZc/r0hbPRdnju4rjt31xeLYnZ9clfZrPTY8+erUJy5PU2mK4sR9t5VarMb15+7fPi8vL+hJTzONzTQ209hMY37ATGN+gB/gB/gBfoAf4Af4AX6AH+AH+AF+gB/gB/gBfiCjH6j2AB7eQHy21+e96c5iXUp6TjoiCfzI+5/eTwIOZmrM1n5cz/aXLJ/8rc9tISVDH37HP0mVwJGMrWdKzN5+dNK15/1EOo8/LDY8+ZolUkS7Bz9/fXH07/+8k+uvN0SPCuxtL/zAyFsRldB7/+QXi9MPpqW50/nmvv768+ZT4nnrC96/qBI8TijaP/C564sT93yx0/ajP8SkhC2pEnzjZc8rJyZEJfrJe28rK9HP7L2/8/ZrfYv57eVy6CXEjh9Ikw++1en9r2a+5OnPXfUP5+f+dMkf/Uv/0r+6i+/Gl/FlfBlf/GHe50d60tPzm+dX/oq/4q/4K36AH+AH+AF+gB/I5QcGewCnfFSjEHhpZWbL9zelitvtqfK27XHwc28sjtz6B2Vlao72o92oNN2VKpDbHrEk9YGb/0229qPdNZt3FOe/9X8Uc5t2Lnsa0e7R1H7O669nSm151luLLc9+y7LtRyI6KrFPx/7Mjd9cMtNmhfenTX8IDeIedNF+XFJUHUdF+qh7USbiUx/ssv3yfqT/b3n2W9Ny5K9ddB4n7r21bL8r/etbWvev2I970xUvLzb85NWpEnx/ceJ/3lpVgq/w/g5/fv91L+ns/UoB+ubje823RTPB9N/O+Kn/Gr/4hV9d+TN8wRd8wRd8GTyA53r+9vzl+Ut8FV/FV/FVfBVffT/b8wO+n1688q7vT38kvz/t7QFcZ9Rn/7n7jan6N5b5bXlEJeYj7/ipXgXm7O1HUmDHS1P1b0pyTXP84HUbG5WSs5/Hrtd8vVifEtFtjqhAPv3I/Vnbj2Wnz7v+zjbNl5W4D739p7K2H/chkoyhQ5vj4benKux+Je7s+lczJKrPmVSRHkngqETvqv04j+WS8dH+Q+n66+XQBzN88uoQS5Dv+PW/XFKJfTIloaMSvOv26+uK89jyrLcUa9LkiFiO/PBX31kuw97VdfvcvP2InvRs8lV/0B/0h4HfMB6MB+PBeMABHMABHMABHMABHMABHMABHMABHDhbONCvAB43U3Q4eTc8k2z4/R/7/eNt8n2LfieSr7naj/PbnRKf0ySho+29qQr2RFoSeNL1tXl/ze6Li/Pf9j9a6xAV0FEFOmqm5rT61+c3af/j4c/dlxKAx+/+Ypbrr2ea7XzFX5ZLLrc5ogJ3f6oEbqNvcybbJH02p2Wfxy2B3fzbuPbQIHf70cbaFv2hq+tvXmNMCBg3Luo+2MX1N88hlr+O8Tl8PPL+K6o9odMb09zfSfd/3PtxT6I6fk2qiD5y643l2M85/sb1+dW6Pu2PVoD+qzO+9D/9b5QCxp/xtxrxHX/wB3+WKoC/+Iu/47+RMD6MD+PD+OAf+Uf+kX9c6ffL+IEf5wI/UgJ4/cJcSruE6almJqQ11md4/bgPTZ8A7idfM7Qf5/9jv39ivIMZ806cw8n7bpv5+qP9Ldf8+2LrmH13RzUfe9HGMsw59K/v3wXv+WFaanhHax0Op71wD3/1HVmuv+4/j3tvOoe0926bY1AJPlv/G+6/bSuxyyrcN/9Y1uuv7+fWZ7+t1VLcXbUf9yOq0Scti/7D12/s5PqbPIkK5FGTAmIM7P3wMzpvv+4fw5NEBhXoefvfrDz19+7HLPFY/9F/9J98/tZ4Mp6MJ+Mp1/MynuAJnuAJnuT5/hFP8RRP8RRP8TRnPkV/0p8ei/1p/B7AQ5V4S/aQGPP+SiuA235+nUxc7veXq3Qcl4ysk9BtPj9+Z7n2t6a9Xiftvds8jzL5eENKPjb+cVY9pr0PdQVsjuuv9XnclNXgy1WCr1SPC1IldlRktzl+eMPjioW0L+6k+zvt+22rsbtqP863zV7MkQQ9vef+7Nff1Otxy0xM6OL+j+vPw+PjUKrAP5wq8XP2/5zjeaX93/VUCtBvaA+kFcZ3/Ul/Mp7wBE/xlL8ZPFUYD8aD8WA88Mf8MX/MH/MD/AA/wA/wA/zA2ewHGhXA9cyx2X5GlWHbvW9DmFMPfKvYk/ZfXUj/q2Zuzf5zx3V/Usw/vf0ewJH0++ENF2Rrf2UVwP8qW/uh4/QVwO8oogo4h/71fZymEvtMSjxGAjJn+3Eebftj9IGHIgGcof8N9+M2FcAxFn6YlkLvov2qAviqpMXfDCLyiP/qsv36usbdj7ICOFXBd3X9w58bS7Q3JwbEEtSn0xLUq9W+dmbnfK544XPyxF060hHXcA0HcAAHcAAHcAAHcAAHcAAHcAAHcAAHcAAHzh4ODO0BXBa6N1JD07/e9PRfLrZf98fLJpqabx5I+74eTfu/Vsf07Y063zZ7rjbPIRKfh77yjmztxz6rUYXc9hjsAZzn+qPdafbfjd+v9gD+wsz3v3k/pjmHag/cV2RtP/rT5rQcd/s9gP919vZDjzb9oarA7qb9uh8uVw29Gu3H/djw5GtGLkVdVeDf2on+g3E4GF9xT6JSf82mnWXlb1x/Lv6Mai8n33x+rUA+Xro/+eKv/ql/Gk/Gk3gqPs36POnvZ3sepx/9+DF+jB/jx/gxfowf4Af4AX6AH+AHwg/Mff/fpz2A0+LWY2dmxJ7AU76/8xX/eeQ+n8MJ0XLv2z9Ila9Tfv6iGQRjzi/24N18zW9MzMFGBXIkn86kZZhHzkxYwfVPU3kaJ1gtvfsPWdtvU/FZixPVtw+9/Sezth/9aVyyb9RNGVuBuUL96/5czG8vzn/TN5ddBjqqf/fc+K9GV4DO2H65J03q38v1x2j/kfc/rTiz57tLx2Gm9uv7EWNzeG/osvo6tV8cPdBp+/X4mr/s+eUS6esufGq5AkBMwDiWJh/kHH99nmXUz/mNiBP07SR+6b+9mZL6l/7VgT80voyvMp7jC77gS9bn/zbP5/iLv/gr/oi/03+/iq+N7yH4N/6Nf+Pfxq3ciQ/4gA9j+VAuAV0l5OpdC6qftckYJOvavz+3aXsRyzBvvOx5YxOwUXEXFZ/1nqs526/Pf1ISOJJPUXVZ7Xva/vra6LM+Jbdiyd3hZNuwIIdT5XFVfZy3/bh/26/7o7QU9i9PTILvTcnPE/feXt73+jxmuf9Nfba98PcmJuIrDd7ZSftx8ZFo3L3MvRhUoee//ub4iUrk4UkJkXzdm/rgqbT8cBf6D4/ftbt/ojyH6J9xRNXt4Vv/YxqHB1al/dz9ayV8ajN+c/V/51crkJ9v8SUifemb27/gw2z+j370Ez+rLynFJ/FJfMr7/YL4Ir6IL+KL+Mpf8Ff8FX/FX3WRPxFfxJfHenwZ7AHcwUyJqPQrk01PvrqvY1T9Hv3Gn5f/X42ZbFEJG8sARzVqnYyNZNuRlPSKZYe7nIkcSbaouGzuNdrMxh763BvL5FuXM2EnVZ5GEv7E3bd0WgkReyJvScvtDifDI/l/8HNvqO5DB/2v2b/W7Lqo2PrzbysnJdTnEZMQoh+cTMnvrtuvP3/N7ouKGBdxDtEP+5WvHV//al1fzpUEVoMPXY5/52+mrv6l0qXL+K5/6V/6l0oq/k4lVRcraYkv4ov4Ir6IL+KL+JJ3pUzfD/l+iL/ir/gr/urR8leNCuDhmUTNVGXzv+tKLu+PVmCpPrEvciQeY7/RuuoyEuBV5fHwkV/fDSkBH+cQ1Z9z6RwW0nLXkXiMcxhUYHd7/yPhGYnPOIeYwR3XHuewWu0vncmh/7btv4t/L3//9Pn4anx2y1/60nfxTGnxT/wbpYD4Xq3EYnwYH8bHajyf8v/8P3/Kn/KnoQD/xX/xn/y35w/PH54/PH8MK5DXHyzdA3i4EtHrxWuo04MezTXl9Qf9QX8Yv5KC8WF8GB/GR72tCB7gAR7gAR6MXvkJH/ERH/ERH/ExKbCkMkh8EB/EB/FBfBAfxAfxcUY/MKICeJnJ796iAAUoQAEKUIACFKAABShAAQpQgAIUoAAFKEABClCAAhSgAAUoQIGzVoFBBXCdSV70My3GkVajKPd+8P4IHeijfxgf+ICP4kNvjyjxsxEnxUfxUXwUH8VH8VF8XMoB8VF8FB/FR/FRfBQfxcdhDvAH/AF/wB/wB/xBN/5ABfBZm5t3YhSgAAUoQAEKUIACFKAABShAAQpQgAIUoAAFKEABClCAAhSgAAWmU6CsAE5LiaepRjHTpJpxNHhdzTzwPn30D+MDH/BRfBAf+YPaD/BH/CF/7PnA84HnA88Hng88H3g+8Hzg+cDzQeUHPB95PvJ85PnI85HnI89HZ+PzUVUBXCd96+Sx11XSmx6VAvqD/mA84AEe4qF4IB7yA/wAP8AP8AP8AD/AD/AD/AA/wA/wA/wAP8AP8AP8AD9wTviB3h7AMXO1LgEeZOrrjHX10/tViTR9FveLWg/9Q/8wPvABH/Gx3ruo+VN8EB/EB/FBfBAfxIf+43T/eVJ8FB/FR/FRfBQfxUfxcZgD/AF/wB/wB/wBf5DPHyyuAG4s/1wvW+BnowKWPv3lwPUL/aJfGW5cGBe9bQRwARdwYbAMoPFgPBgPxgMO4AAO4AAO4AAO4AAO4AAO4AAO4AAO4MCjxYFUAbwu7QFcbf472LPBa3roD8ZDvYcLHuABHuABHgxWQjEejAfjwXgYLAlkPBgPxoPx4PsUz4ueF/ljfoAf4Af4AX6AH+AH+IGz0Q+US0AP1jVubOLQW+64v6mB19Xa/uUxWI7Da3roD8ZDvTwNHuABHuABHlTLVeEhHuIhHuIhHooH4iE/wA/wA/wAP8AP8AP8AD/AD/ADj54fKCuAz8bMtJlTZk6ZOWXmlJlTZk6JT2ZS8wP8AD/AD/AD/AA/wA/wA/wAP8AP8AP8AD/AD/AD/AA/wA/wA9P5gd4ewI1NPOsdlutFqb2udlymR6PymR76Q2/TV3zAB3wUH8RH8bG/Mgp/wB/wB4OZzcaD8WA8GA+DL2mNB+PBeDAe6qQFHuABHnvQ70QAAAIOSURBVOABHlRJTDzEQzzsnof2AA7Y2APZHtD2wLYHeOKAmYR4KB6YSWgm4XQzCelFL5UY/AP/xD/xT/wTP8AP8AP8AD/AD/AD/AA/wA/wA2efH6gSwOXRm3FQL0vfr+zr/0NV4eL9nlz1TBX66D/GD37gp/ggPvIHPQX4p95MXv6IP+KP+CP+iD/ij/gj/qj6us33R1WlF3/IH/KH/CF/yB/yh/whf7ia/nBRBXDflNbm1M/qS0w60EE/MA5wAAdwAAdwAAdwAAdwAAdwAAdwAAdwAAdwAAdwAAdwAAdwAAfOAQ40KoAbk/H8JwUoQAEKUIACFKAABShAAQpQgAIUoAAFKEABClCAAhSgAAUoQAEKnHMK9BLA1fIL/TW6e8tBe91bs5se+ofxgQ/1HsF4gAd4gAd4UO2Zjod4iId4iId4KB6Ih/wAP8AP8AP8AD/AD/AD/AA/wA+clX5ABfA5l7N3whSgAAUoQAEKUIACFKAABShAAQpQgAIUoAAFKEABClCAAhSgAAVGK7CoAni8SEMbtC/5Re8v2sCdPkMK6B/6R1SKjTv0D/1D/zA+8GGMTUv/bHwYH8aH8TFKAf4JH8UH8UF8EB/Eh6UKiI/io/goPoqP4qP4KD4OK/Cj6w9UAJsaQAEKUIACFKAABShAAQpQgAIUoAAFKEABClCAAhSgAAUoQAEKUOAxosD/D8ZG/FqHcd4AAAAAAElFTkSuQmCC;" vertex="1" parent="1">
          <mxGeometry x="30" y="50" width="750" height="421.88" as="geometry" />
        </mxCell>
        <mxCell id="bFUkQ9FSZ-hTwYrbiSbe-2" value="&lt;font color=&quot;#ffffff&quot;&gt;&lt;span style=&quot;font-size: 64px;&quot;&gt;Integrate with eSignet&lt;/span&gt;&lt;/font&gt;" style="text;html=1;strokeColor=none;fillColor=none;align=center;verticalAlign=middle;whiteSpace=wrap;rounded=0;fontFamily=montserrat semibold;" vertex="1" parent="1">
          <mxGeometry x="90" y="160" width="630" height="220" as="geometry" />
        </mxCell>
      </root>
    </mxGraphModel>
  </diagram>
</mxfile>
